<svg width="829" height="913" viewBox="0 0 829 913" fill="none" xmlns="http://www.w3.org/2000/svg">
<rect x="438" y="98" width="390" height="814" rx="40" fill="black"/>
<g clip-path="url(#clip0_102_85)">
<path d="M627.625 191.946L627.62 161L621 165.911L621.005 196.857L639.38 203L646 198.089L627.625 191.946Z" fill="white"/>
<path d="M643.777 188.796C644.46 186.872 643.396 184.705 641.39 183.662C641.239 183.587 641.084 183.523 640.925 183.469L634.795 181.278L634.716 187.811L640.618 189.79C640.618 189.79 643.049 190.789 643.777 188.796Z" fill="white"/>
<path d="M643.866 176.743C644.549 174.819 643.485 172.652 641.479 171.609C641.328 171.535 641.173 171.471 641.014 171.416L634.904 169.215L634.824 175.758L640.722 177.761C640.722 177.761 643.158 178.736 643.866 176.743Z" fill="white"/>
</g>
<path d="M565.487 241.428H569.043V249.548H578.451V241.428H581.979V261H578.451V252.488H569.043V261H565.487V241.428ZM592.898 261.42C590.397 261.42 588.418 260.795 586.962 259.544C585.506 258.293 584.778 256.548 584.778 254.308C584.778 252.105 585.422 250.36 586.71 249.072C587.998 247.784 589.837 247.14 592.226 247.14C593.794 247.14 595.129 247.439 596.23 248.036C597.35 248.633 598.19 249.455 598.75 250.5C599.31 251.527 599.59 252.703 599.59 254.028V255.652H588.138C588.381 257.649 590.117 258.648 593.346 258.648C594.205 258.648 595.082 258.573 595.978 258.424C596.874 258.275 597.658 258.069 598.33 257.808V260.524C597.696 260.785 596.874 261 595.866 261.168C594.877 261.336 593.888 261.42 592.898 261.42ZM596.258 253.244C596.221 252.18 595.838 251.359 595.11 250.78C594.401 250.201 593.421 249.912 592.17 249.912C590.938 249.912 589.968 250.211 589.258 250.808C588.549 251.405 588.176 252.217 588.138 253.244H596.258ZM602.401 240.308H605.929V261H602.401V240.308ZM609.291 240.308H612.819V261H609.291V240.308ZM623.49 261.42C621.922 261.42 620.541 261.14 619.346 260.58C618.17 260.001 617.255 259.18 616.602 258.116C615.949 257.033 615.622 255.755 615.622 254.28C615.622 252.843 615.939 251.592 616.574 250.528C617.227 249.445 618.151 248.615 619.346 248.036C620.541 247.439 621.922 247.14 623.49 247.14C625.058 247.14 626.43 247.439 627.606 248.036C628.801 248.615 629.725 249.445 630.378 250.528C631.031 251.592 631.358 252.843 631.358 254.28C631.358 255.755 631.031 257.033 630.378 258.116C629.725 259.18 628.801 260.001 627.606 260.58C626.43 261.14 625.058 261.42 623.49 261.42ZM623.49 258.648C624.778 258.648 625.805 258.247 626.57 257.444C627.335 256.623 627.718 255.568 627.718 254.28C627.718 252.917 627.335 251.853 626.57 251.088C625.823 250.304 624.797 249.912 623.49 249.912C622.183 249.912 621.147 250.304 620.382 251.088C619.635 251.853 619.262 252.917 619.262 254.28C619.262 255.568 619.645 256.623 620.41 257.444C621.175 258.247 622.202 258.648 623.49 258.648ZM654.149 261.42C652.095 261.42 650.275 261.009 648.689 260.188C647.102 259.348 645.87 258.163 644.993 256.632C644.115 255.083 643.677 253.281 643.677 251.228C643.677 249.175 644.115 247.383 644.993 245.852C645.87 244.303 647.102 243.108 648.689 242.268C650.275 241.428 652.095 241.008 654.149 241.008C655.549 241.008 656.799 241.157 657.901 241.456C659.002 241.755 660.001 242.231 660.897 242.884V246.272C660.075 245.563 659.133 245.049 658.069 244.732C657.005 244.415 655.801 244.256 654.457 244.256C653.113 244.256 651.89 244.545 650.789 245.124C649.706 245.684 648.847 246.496 648.213 247.56C647.578 248.605 647.261 249.828 647.261 251.228C647.261 252.647 647.559 253.888 648.157 254.952C648.754 255.997 649.585 256.809 650.649 257.388C651.713 257.948 652.926 258.228 654.289 258.228C655.726 258.228 656.911 257.985 657.845 257.5V253.104H654.541V250.276H661.401V259.404C659.665 260.748 657.247 261.42 654.149 261.42ZM669.126 261.42C667.52 261.42 666.204 261 665.178 260.16C664.151 259.301 663.638 258.153 663.638 256.716C663.638 255.223 664.123 254.056 665.094 253.216C666.064 252.376 667.427 251.956 669.182 251.956C670.88 251.956 672.346 252.301 673.578 252.992V252.628C673.578 251.676 673.279 250.985 672.682 250.556C672.103 250.127 671.16 249.912 669.854 249.912C669.032 249.912 668.22 249.996 667.418 250.164C666.615 250.313 665.906 250.528 665.29 250.808V248.036C665.85 247.775 666.596 247.56 667.53 247.392C668.482 247.224 669.396 247.14 670.274 247.14C672.607 247.14 674.334 247.644 675.454 248.652C676.574 249.641 677.134 251.023 677.134 252.796V261H673.802V259.684C673.223 260.244 672.56 260.673 671.814 260.972C671.086 261.271 670.19 261.42 669.126 261.42ZM669.994 258.844C670.778 258.844 671.487 258.695 672.122 258.396C672.756 258.079 673.242 257.649 673.578 257.108V255.624C672.551 254.896 671.375 254.532 670.05 254.532C668.164 254.532 667.222 255.26 667.222 256.716C667.222 257.425 667.455 257.957 667.922 258.312C668.407 258.667 669.098 258.844 669.994 258.844ZM682.346 245.208C681.786 245.208 681.31 245.021 680.918 244.648C680.544 244.275 680.358 243.808 680.358 243.248C680.358 242.688 680.544 242.221 680.918 241.848C681.31 241.456 681.786 241.26 682.346 241.26C682.906 241.26 683.382 241.456 683.774 241.848C684.166 242.221 684.362 242.688 684.362 243.248C684.362 243.808 684.166 244.275 683.774 244.648C683.382 245.021 682.906 245.208 682.346 245.208ZM680.554 247.56H684.138V261H680.554V247.56ZM692.641 261.42C691.036 261.42 689.72 261 688.693 260.16C687.667 259.301 687.153 258.153 687.153 256.716C687.153 255.223 687.639 254.056 688.609 253.216C689.58 252.376 690.943 251.956 692.697 251.956C694.396 251.956 695.861 252.301 697.093 252.992V252.628C697.093 251.676 696.795 250.985 696.197 250.556C695.619 250.127 694.676 249.912 693.369 249.912C692.548 249.912 691.736 249.996 690.933 250.164C690.131 250.313 689.421 250.528 688.805 250.808V248.036C689.365 247.775 690.112 247.56 691.045 247.392C691.997 247.224 692.912 247.14 693.789 247.14C696.123 247.14 697.849 247.644 698.969 248.652C700.089 249.641 700.649 251.023 700.649 252.796V261H697.317V259.684C696.739 260.244 696.076 260.673 695.329 260.972C694.601 261.271 693.705 261.42 692.641 261.42ZM693.509 258.844C694.293 258.844 695.003 258.695 695.637 258.396C696.272 258.079 696.757 257.649 697.093 257.108V255.624C696.067 254.896 694.891 254.532 693.565 254.532C691.68 254.532 690.737 255.26 690.737 256.716C690.737 257.425 690.971 257.957 691.437 258.312C691.923 258.667 692.613 258.844 693.509 258.844Z" fill="white"/>
<path d="M551.595 378.8L539.755 387.36V377.92L553.195 368.08H561.675V424H551.595V378.8ZM593.757 425.2C588.85 425.2 584.583 424.027 580.957 421.68C577.33 419.333 574.53 415.973 572.557 411.6C570.637 407.227 569.677 402.053 569.677 396.08C569.677 390.107 570.637 384.933 572.557 380.56C574.477 376.133 577.223 372.747 580.797 370.4C584.423 368.053 588.743 366.88 593.757 366.88C598.717 366.88 603.01 368.053 606.637 370.4C610.263 372.747 613.037 376.133 614.957 380.56C616.877 384.933 617.837 390.107 617.837 396.08C617.837 402.053 616.877 407.227 614.957 411.6C613.037 415.973 610.263 419.333 606.637 421.68C603.01 424.027 598.717 425.2 593.757 425.2ZM593.757 416.08C598.183 416.08 601.597 414.32 603.997 410.8C606.45 407.227 607.677 402.347 607.677 396.16C607.677 389.973 606.477 385.093 604.077 381.52C601.677 377.947 598.263 376.16 593.837 376.16C589.41 376.16 585.97 377.947 583.517 381.52C581.117 385.093 579.917 389.973 579.917 396.16C579.917 402.347 581.117 407.227 583.517 410.8C585.97 414.32 589.383 416.08 593.757 416.08ZM648.288 425.2C643.381 425.2 639.114 424.027 635.488 421.68C631.861 419.333 629.061 415.973 627.088 411.6C625.168 407.227 624.208 402.053 624.208 396.08C624.208 390.107 625.168 384.933 627.088 380.56C629.008 376.133 631.754 372.747 635.328 370.4C638.954 368.053 643.274 366.88 648.288 366.88C653.248 366.88 657.541 368.053 661.168 370.4C664.794 372.747 667.568 376.133 669.488 380.56C671.408 384.933 672.368 390.107 672.368 396.08C672.368 402.053 671.408 407.227 669.488 411.6C667.568 415.973 664.794 419.333 661.168 421.68C657.541 424.027 653.248 425.2 648.288 425.2ZM648.288 416.08C652.714 416.08 656.128 414.32 658.528 410.8C660.981 407.227 662.208 402.347 662.208 396.16C662.208 389.973 661.008 385.093 658.608 381.52C656.208 377.947 652.794 376.16 648.368 376.16C643.941 376.16 640.501 377.947 638.048 381.52C635.648 385.093 634.448 389.973 634.448 396.16C634.448 402.347 635.648 407.227 638.048 410.8C640.501 414.32 643.914 416.08 648.288 416.08ZM710.259 425.2C704.072 425.2 698.686 423.627 694.099 420.48C689.566 417.333 686.366 412.96 684.499 407.36H677.939V399.68H682.899C682.792 398.933 682.739 397.733 682.739 396.08C682.739 394.48 682.792 393.28 682.899 392.48H677.939V384.8H684.499C686.366 379.2 689.566 374.827 694.099 371.68C698.686 368.48 704.072 366.88 710.259 366.88C713.726 366.88 716.739 367.28 719.299 368.08C721.912 368.827 724.286 370 726.419 371.6V381.28C724.232 379.467 721.912 378.16 719.459 377.36C717.059 376.56 714.286 376.16 711.139 376.16C703.512 376.16 698.206 379.04 695.219 384.8H707.619V392.48H693.139C693.032 393.28 692.979 394.48 692.979 396.08C692.979 396.987 693.032 398.187 693.139 399.68H707.619V407.36H695.219C696.659 410.187 698.712 412.347 701.379 413.84C704.046 415.28 707.299 416 711.139 416C714.552 416 717.459 415.627 719.859 414.88C722.259 414.08 724.659 412.64 727.059 410.56V420.24C725.032 422.053 722.686 423.333 720.019 424.08C717.352 424.827 714.099 425.2 710.259 425.2Z" fill="white"/>
<path d="M551.595 378.8H552.595V376.843L551.009 377.99L551.595 378.8ZM539.755 387.36H538.755V389.317L540.341 388.17L539.755 387.36ZM539.755 377.92L539.164 377.113L538.755 377.413V377.92H539.755ZM553.195 368.08V367.08H552.868L552.604 367.273L553.195 368.08ZM561.675 368.08H562.675V367.08H561.675V368.08ZM561.675 424V425H562.675V424H561.675ZM551.595 424H550.595V425H551.595V424ZM551.009 377.99L539.169 386.55L540.341 388.17L552.181 379.61L551.009 377.99ZM540.755 387.36V377.92H538.755V387.36H540.755ZM540.345 378.727L553.785 368.887L552.604 367.273L539.164 377.113L540.345 378.727ZM553.195 369.08H561.675V367.08H553.195V369.08ZM560.675 368.08V424H562.675V368.08H560.675ZM561.675 423H551.595V425H561.675V423ZM552.595 424V378.8H550.595V424H552.595ZM580.957 421.68L580.413 422.52L580.957 421.68ZM572.557 411.6L571.641 412.002L571.645 412.011L572.557 411.6ZM572.557 380.56L573.472 380.962L573.474 380.958L572.557 380.56ZM580.797 370.4L580.253 369.56L580.248 369.564L580.797 370.4ZM606.637 370.4L606.093 371.24L606.637 370.4ZM614.957 380.56L614.039 380.958L614.041 380.962L614.957 380.56ZM614.957 411.6L614.041 411.198L614.957 411.6ZM606.637 421.68L607.18 422.52L606.637 421.68ZM603.997 410.8L603.172 410.234L603.17 410.237L603.997 410.8ZM604.077 381.52L603.246 382.078H603.246L604.077 381.52ZM583.517 381.52L582.692 380.954L582.686 380.962L583.517 381.52ZM583.517 410.8L582.686 411.358L582.691 411.365L582.696 411.372L583.517 410.8ZM593.757 424.2C589.016 424.2 584.943 423.069 581.5 420.84L580.413 422.52C584.223 424.985 588.684 426.2 593.757 426.2V424.2ZM581.5 420.84C578.052 418.61 575.371 415.407 573.468 411.189L571.645 412.011C573.688 416.54 576.608 420.057 580.413 422.52L581.5 420.84ZM573.472 411.198C571.62 406.979 570.677 401.949 570.677 396.08H568.677C568.677 402.158 569.653 407.474 571.641 412.002L573.472 411.198ZM570.677 396.08C570.677 390.211 571.62 385.181 573.472 380.962L571.641 380.158C569.653 384.686 568.677 390.002 568.677 396.08H570.677ZM573.474 380.958C575.327 376.686 577.955 373.462 581.345 371.236L580.248 369.564C576.491 372.031 573.626 375.58 571.639 380.162L573.474 380.958ZM581.34 371.24C584.78 369.014 588.904 367.88 593.757 367.88V365.88C588.582 365.88 584.066 367.093 580.253 369.56L581.34 371.24ZM593.757 367.88C598.553 367.88 602.651 369.012 606.093 371.24L607.18 369.56C603.368 367.094 598.88 365.88 593.757 365.88V367.88ZM606.093 371.24C609.535 373.467 612.188 376.69 614.039 380.958L615.874 380.162C613.885 375.576 610.991 372.026 607.18 369.56L606.093 371.24ZM614.041 380.962C615.893 385.181 616.837 390.211 616.837 396.08H618.837C618.837 390.002 617.86 384.686 615.872 380.158L614.041 380.962ZM616.837 396.08C616.837 401.949 615.893 406.979 614.041 411.198L615.872 412.002C617.86 407.474 618.837 402.158 618.837 396.08H616.837ZM614.041 411.198C612.191 415.412 609.539 418.611 606.093 420.84L607.18 422.52C610.988 420.056 613.882 416.535 615.872 412.002L614.041 411.198ZM606.093 420.84C602.651 423.068 598.553 424.2 593.757 424.2V426.2C598.88 426.2 603.368 424.986 607.18 422.52L606.093 420.84ZM593.757 417.08C598.498 417.08 602.228 415.169 604.823 411.363L603.17 410.237C600.965 413.471 597.868 415.08 593.757 415.08V417.08ZM604.821 411.366C607.428 407.569 608.677 402.466 608.677 396.16H606.677C606.677 402.227 605.472 406.884 603.172 410.234L604.821 411.366ZM608.677 396.16C608.677 389.858 607.456 384.758 604.907 380.962L603.246 382.078C605.497 385.429 606.677 390.089 606.677 396.16H608.677ZM604.907 380.962C602.315 377.103 598.585 375.16 593.837 375.16V377.16C597.941 377.16 601.038 378.79 603.246 382.078L604.907 380.962ZM593.837 375.16C589.089 375.16 585.337 377.102 582.692 380.954L584.341 382.086C586.603 378.791 589.731 377.16 593.837 377.16V375.16ZM582.686 380.962C580.137 384.758 578.917 389.858 578.917 396.16H580.917C580.917 390.089 582.096 385.429 584.347 382.078L582.686 380.962ZM578.917 396.16C578.917 402.462 580.137 407.562 582.686 411.358L584.347 410.242C582.096 406.891 580.917 402.231 580.917 396.16H578.917ZM582.696 411.372C585.341 415.166 589.064 417.08 593.757 417.08V415.08C589.703 415.08 586.599 413.474 584.337 410.228L582.696 411.372ZM635.488 421.68L634.945 422.52L635.488 421.68ZM627.088 411.6L626.172 412.002L626.176 412.011L627.088 411.6ZM627.088 380.56L628.003 380.962L628.005 380.958L627.088 380.56ZM635.328 370.4L634.785 369.56L634.779 369.564L635.328 370.4ZM661.168 370.4L660.625 371.24L661.168 370.4ZM669.488 380.56L668.57 380.958L668.572 380.962L669.488 380.56ZM669.488 411.6L668.572 411.198L669.488 411.6ZM661.168 421.68L661.711 422.52L661.168 421.68ZM658.528 410.8L657.703 410.234L657.702 410.237L658.528 410.8ZM658.608 381.52L657.778 382.078L658.608 381.52ZM638.048 381.52L637.223 380.954L637.218 380.962L638.048 381.52ZM638.048 410.8L637.218 411.358L637.222 411.365L637.227 411.372L638.048 410.8ZM648.288 424.2C643.547 424.2 639.475 423.069 636.031 420.84L634.945 422.52C638.754 424.985 643.215 426.2 648.288 426.2V424.2ZM636.031 420.84C632.583 418.61 629.903 415.407 627.999 411.189L626.176 412.011C628.22 416.54 631.139 420.057 634.945 422.52L636.031 420.84ZM628.003 411.198C626.151 406.979 625.208 401.949 625.208 396.08H623.208C623.208 402.158 624.184 407.474 626.172 412.002L628.003 411.198ZM625.208 396.08C625.208 390.211 626.151 385.181 628.003 380.962L626.172 380.158C624.184 384.686 623.208 390.002 623.208 396.08H625.208ZM628.005 380.958C629.858 376.686 632.487 373.462 635.877 371.236L634.779 369.564C631.022 372.031 628.158 375.58 626.17 380.162L628.005 380.958ZM635.871 371.24C639.311 369.014 643.436 367.88 648.288 367.88V365.88C643.113 365.88 638.598 367.093 634.785 369.56L635.871 371.24ZM648.288 367.88C653.084 367.88 657.183 369.012 660.625 371.24L661.711 369.56C657.9 367.094 653.411 365.88 648.288 365.88V367.88ZM660.625 371.24C664.067 373.467 666.719 376.69 668.57 380.958L670.405 380.162C668.416 375.576 665.522 372.026 661.711 369.56L660.625 371.24ZM668.572 380.962C670.424 385.181 671.368 390.211 671.368 396.08H673.368C673.368 390.002 672.391 384.686 670.403 380.158L668.572 380.962ZM671.368 396.08C671.368 401.949 670.424 406.979 668.572 411.198L670.403 412.002C672.391 407.474 673.368 402.158 673.368 396.08H671.368ZM668.572 411.198C666.722 415.412 664.07 418.611 660.625 420.84L661.711 422.52C665.519 420.056 668.413 416.535 670.403 412.002L668.572 411.198ZM660.625 420.84C657.183 423.068 653.084 424.2 648.288 424.2V426.2C653.411 426.2 657.9 424.986 661.711 422.52L660.625 420.84ZM648.288 417.08C653.03 417.08 656.759 415.169 659.354 411.363L657.702 410.237C655.496 413.471 652.399 415.08 648.288 415.08V417.08ZM659.352 411.366C661.959 407.569 663.208 402.466 663.208 396.16H661.208C661.208 402.227 660.003 406.884 657.703 410.234L659.352 411.366ZM663.208 396.16C663.208 389.858 661.987 384.758 659.438 380.962L657.778 382.078C660.028 385.429 661.208 390.089 661.208 396.16H663.208ZM659.438 380.962C656.846 377.103 653.116 375.16 648.368 375.16V377.16C652.473 377.16 655.57 378.79 657.778 382.078L659.438 380.962ZM648.368 375.16C643.62 375.16 639.868 377.102 637.223 380.954L638.872 382.086C641.134 378.791 644.262 377.16 648.368 377.16V375.16ZM637.218 380.962C634.668 384.758 633.448 389.858 633.448 396.16H635.448C635.448 390.089 636.627 385.429 638.878 382.078L637.218 380.962ZM633.448 396.16C633.448 402.462 634.668 407.562 637.218 411.358L638.878 410.242C636.627 406.891 635.448 402.231 635.448 396.16H633.448ZM637.227 411.372C639.872 415.166 643.595 417.08 648.288 417.08V415.08C644.234 415.08 641.13 413.474 638.868 410.228L637.227 411.372ZM694.099 420.48L693.529 421.302L693.533 421.305L694.099 420.48ZM684.499 407.36L685.448 407.044L685.22 406.36H684.499V407.36ZM677.939 407.36H676.939V408.36H677.939V407.36ZM677.939 399.68V398.68H676.939V399.68H677.939ZM682.899 399.68V400.68H684.052L683.889 399.539L682.899 399.68ZM682.899 392.48L683.89 392.612L684.041 391.48H682.899V392.48ZM677.939 392.48H676.939V393.48H677.939V392.48ZM677.939 384.8V383.8H676.939V384.8H677.939ZM684.499 384.8V385.8H685.22L685.448 385.116L684.499 384.8ZM694.099 371.68L694.669 372.501L694.671 372.5L694.099 371.68ZM719.299 368.08L719.001 369.034L719.013 369.038L719.024 369.042L719.299 368.08ZM726.419 371.6H727.419V371.1L727.019 370.8L726.419 371.6ZM726.419 381.28L725.781 382.05L727.419 383.408V381.28H726.419ZM719.459 377.36L719.143 378.309L719.149 378.311L719.459 377.36ZM695.219 384.8L694.331 384.34L693.574 385.8H695.219V384.8ZM707.619 384.8H708.619V383.8H707.619V384.8ZM707.619 392.48V393.48H708.619V392.48H707.619ZM693.139 392.48V391.48H692.264L692.148 392.348L693.139 392.48ZM693.139 399.68L692.142 399.751L692.208 400.68H693.139V399.68ZM707.619 399.68H708.619V398.68H707.619V399.68ZM707.619 407.36V408.36H708.619V407.36H707.619ZM695.219 407.36V406.36H693.587L694.328 407.814L695.219 407.36ZM701.379 413.84L700.89 414.713L700.897 414.716L700.904 414.72L701.379 413.84ZM719.859 414.88L720.156 415.835L720.166 415.832L720.175 415.829L719.859 414.88ZM727.059 410.56H728.059V408.37L726.404 409.804L727.059 410.56ZM727.059 420.24L727.726 420.985L728.059 420.687V420.24H727.059ZM720.019 424.08L720.289 425.043L720.019 424.08ZM710.259 424.2C704.251 424.2 699.066 422.675 694.665 419.655L693.533 421.305C698.305 424.578 703.894 426.2 710.259 426.2V424.2ZM694.669 419.659C690.326 416.644 687.251 412.454 685.448 407.044L683.55 407.676C685.48 413.466 688.805 418.023 693.529 421.301L694.669 419.659ZM684.499 406.36H677.939V408.36H684.499V406.36ZM678.939 407.36V399.68H676.939V407.36H678.939ZM677.939 400.68H682.899V398.68H677.939V400.68ZM683.889 399.539C683.793 398.867 683.739 397.728 683.739 396.08H681.739C681.739 397.739 681.792 398.999 681.909 399.821L683.889 399.539ZM683.739 396.08C683.739 394.49 683.793 393.344 683.89 392.612L681.908 392.348C681.792 393.216 681.739 394.47 681.739 396.08H683.739ZM682.899 391.48H677.939V393.48H682.899V391.48ZM678.939 392.48V384.8H676.939V392.48H678.939ZM677.939 385.8H684.499V383.8H677.939V385.8ZM685.448 385.116C687.251 379.706 690.326 375.516 694.669 372.501L693.529 370.859C688.805 374.137 685.48 378.694 683.55 384.484L685.448 385.116ZM694.671 372.5C699.072 369.43 704.254 367.88 710.259 367.88V365.88C703.89 365.88 698.299 367.53 693.527 370.86L694.671 372.5ZM710.259 367.88C713.653 367.88 716.561 368.272 719.001 369.034L719.597 367.126C716.917 366.288 713.799 365.88 710.259 365.88V367.88ZM719.024 369.042C721.523 369.755 723.785 370.875 725.819 372.4L727.019 370.8C724.786 369.125 722.302 367.898 719.574 367.118L719.024 369.042ZM725.419 371.6V381.28H727.419V371.6H725.419ZM727.057 380.51C724.783 378.625 722.354 377.252 719.769 376.409L719.149 378.311C721.471 379.068 723.681 380.309 725.781 382.05L727.057 380.51ZM719.775 376.411C717.252 375.57 714.368 375.16 711.139 375.16V377.16C714.203 377.16 716.866 377.55 719.143 378.309L719.775 376.411ZM711.139 375.16C707.202 375.16 703.795 375.903 700.962 377.441C698.12 378.984 695.909 381.296 694.331 384.34L696.107 385.26C697.515 382.544 699.452 380.536 701.916 379.199C704.389 377.857 707.449 377.16 711.139 377.16V375.16ZM695.219 385.8H707.619V383.8H695.219V385.8ZM706.619 384.8V392.48H708.619V384.8H706.619ZM707.619 391.48H693.139V393.48H707.619V391.48ZM692.148 392.348C692.032 393.216 691.979 394.47 691.979 396.08H693.979C693.979 394.49 694.033 393.344 694.13 392.612L692.148 392.348ZM691.979 396.08C691.979 397.021 692.034 398.247 692.142 399.751L694.137 399.609C694.031 398.126 693.979 396.953 693.979 396.08H691.979ZM693.139 400.68H707.619V398.68H693.139V400.68ZM706.619 399.68V407.36H708.619V399.68H706.619ZM707.619 406.36H695.219V408.36H707.619V406.36ZM694.328 407.814C695.854 410.81 698.044 413.119 700.89 414.713L701.868 412.967C699.38 411.575 697.464 409.564 696.11 406.906L694.328 407.814ZM700.904 414.72C703.75 416.257 707.177 417 711.139 417V415C707.422 415 704.341 414.303 701.854 412.96L700.904 414.72ZM711.139 417C714.62 417 717.632 416.62 720.156 415.835L719.562 413.925C717.286 414.633 714.485 415 711.139 415V417ZM720.175 415.829C722.727 414.978 725.239 413.46 727.714 411.316L726.404 409.804C724.079 411.82 721.791 413.182 719.543 413.931L720.175 415.829ZM726.059 410.56V420.24H728.059V410.56H726.059ZM726.392 419.495C724.482 421.204 722.272 422.411 719.749 423.117L720.289 425.043C723.1 424.256 725.583 422.902 727.726 420.985L726.392 419.495ZM719.749 423.117C717.197 423.832 714.04 424.2 710.259 424.2V426.2C714.158 426.2 717.508 425.822 720.289 425.043L719.749 423.117Z" fill="black"/>
<line x1="438" y1="469.5" x2="828" y2="469.5" stroke="white"/>
<rect x="544" y="454" width="178" height="32" rx="16" fill="white"/>
<path d="M579.981 466.684H577.027V465.214H584.713V466.684H581.759V475H579.981V466.684ZM589.98 475.21C589 475.21 588.113 475 587.32 474.58C586.536 474.151 585.915 473.549 585.458 472.774C585.01 471.999 584.786 471.113 584.786 470.114C584.786 469.115 585.01 468.229 585.458 467.454C585.915 466.679 586.536 466.077 587.32 465.648C588.113 465.219 589 465.004 589.98 465.004C590.95 465.004 591.828 465.219 592.612 465.648C593.405 466.077 594.026 466.679 594.474 467.454C594.931 468.229 595.16 469.115 595.16 470.114C595.16 471.113 594.931 471.999 594.474 472.774C594.026 473.539 593.405 474.137 592.612 474.566C591.828 474.995 590.95 475.21 589.98 475.21ZM589.98 473.6C590.605 473.6 591.174 473.46 591.688 473.18C592.201 472.891 592.607 472.485 592.906 471.962C593.214 471.43 593.368 470.814 593.368 470.114C593.368 469.423 593.218 468.817 592.92 468.294C592.621 467.762 592.215 467.351 591.702 467.062C591.188 466.773 590.614 466.628 589.98 466.628C589.345 466.628 588.766 466.773 588.244 467.062C587.73 467.351 587.324 467.762 587.026 468.294C586.727 468.817 586.578 469.423 586.578 470.114C586.578 470.814 586.727 471.43 587.026 471.962C587.334 472.485 587.744 472.891 588.258 473.18C588.78 473.46 589.354 473.6 589.98 473.6ZM598.192 466.684H595.238V465.214H602.924V466.684H599.97V475H598.192V466.684ZM605.932 465.214H607.654L611.56 475H609.754L608.858 472.746H604.714L603.832 475H602.012L605.932 465.214ZM608.368 471.276L606.786 467.118L605.204 471.276H608.368ZM612.956 465.214H614.734V473.53H619.438V475H612.956V465.214ZM625.603 465.214H630.251C631.147 465.214 631.842 465.438 632.337 465.886C632.841 466.334 633.093 466.987 633.093 467.846C633.093 468.303 632.981 468.719 632.757 469.092C632.542 469.456 632.253 469.736 631.889 469.932C632.906 470.268 633.415 471.019 633.415 472.186C633.415 472.765 633.284 473.269 633.023 473.698C632.761 474.118 632.407 474.44 631.959 474.664C631.52 474.888 631.03 475 630.489 475H625.603V465.214ZM629.971 469.288C630.372 469.288 630.694 469.181 630.937 468.966C631.179 468.742 631.301 468.406 631.301 467.958C631.301 467.445 631.179 467.095 630.937 466.908C630.703 466.712 630.353 466.614 629.887 466.614H627.367V469.288H629.971ZM630.083 473.6C630.577 473.6 630.955 473.497 631.217 473.292C631.487 473.087 631.623 472.723 631.623 472.2C631.623 471.677 631.483 471.299 631.203 471.066C630.923 470.833 630.517 470.716 629.985 470.716H627.367V473.6H630.083ZM637.542 465.214H639.264L643.17 475H641.364L640.468 472.746H636.324L635.442 475H633.622L637.542 465.214ZM639.978 471.276L638.396 467.118L636.814 471.276H639.978ZM644.566 465.214H646.344V473.53H651.048V475H644.566V465.214ZM655.602 465.214H657.324L661.23 475H659.424L658.528 472.746H654.384L653.502 475H651.682L655.602 465.214ZM658.038 471.276L656.456 467.118L654.874 471.276H658.038ZM662.626 465.214H664.306L668.884 472.032V465.214H670.662V475H668.982L664.404 468.168V475H662.626V465.214ZM677.303 475.21C676.276 475.21 675.366 475.005 674.573 474.594C673.78 474.174 673.164 473.581 672.725 472.816C672.286 472.041 672.067 471.141 672.067 470.114C672.067 469.087 672.286 468.191 672.725 467.426C673.164 466.651 673.78 466.054 674.573 465.634C675.366 465.214 676.276 465.004 677.303 465.004C678.656 465.004 679.786 465.326 680.691 465.97V467.664C679.879 466.973 678.801 466.628 677.457 466.628C676.738 466.628 676.108 466.773 675.567 467.062C675.026 467.342 674.606 467.743 674.307 468.266C674.008 468.789 673.859 469.405 673.859 470.114C673.859 470.823 674.008 471.439 674.307 471.962C674.615 472.485 675.04 472.891 675.581 473.18C676.122 473.46 676.748 473.6 677.457 473.6C678.148 473.6 678.764 473.516 679.305 473.348C679.846 473.171 680.346 472.891 680.803 472.508V474.202C679.944 474.874 678.778 475.21 677.303 475.21ZM682.204 465.214H688.826V466.684H683.982V469.372H687.58V470.842H683.982V473.53H688.826V475H682.204V465.214Z" fill="black"/>
<rect x="637" y="292" width="152" height="32" rx="16" fill="white"/>
<rect x="470" y="286" width="326" height="45" rx="22.5" stroke="url(#paint0_linear_102_85)" stroke-width="3"/>
<path d="M690.21 314.21C689.631 314.21 689.057 314.154 688.488 314.042C687.928 313.939 687.466 313.799 687.102 313.622V312.096C687.569 312.32 688.059 312.488 688.572 312.6C689.085 312.712 689.589 312.768 690.084 312.768C690.709 312.768 691.185 312.651 691.512 312.418C691.839 312.185 692.002 311.863 692.002 311.452C692.002 311.163 691.927 310.925 691.778 310.738C691.629 310.542 691.409 310.374 691.12 310.234C690.831 310.085 690.387 309.893 689.79 309.66C688.875 309.287 688.213 308.871 687.802 308.414C687.391 307.957 687.186 307.387 687.186 306.706C687.186 306.174 687.331 305.703 687.62 305.292C687.909 304.881 688.315 304.564 688.838 304.34C689.361 304.116 689.963 304.004 690.644 304.004C691.204 304.004 691.699 304.051 692.128 304.144C692.567 304.228 692.996 304.363 693.416 304.55V306.034C692.604 305.642 691.783 305.446 690.952 305.446C690.355 305.446 689.893 305.558 689.566 305.782C689.239 305.997 689.076 306.305 689.076 306.706C689.076 306.995 689.151 307.233 689.3 307.42C689.449 307.597 689.645 307.751 689.888 307.882C690.14 308.003 690.588 308.199 691.232 308.47C691.885 308.741 692.399 309.007 692.772 309.268C693.155 309.529 693.439 309.837 693.626 310.192C693.822 310.537 693.92 310.962 693.92 311.466C693.92 312.334 693.607 313.011 692.982 313.496C692.357 313.972 691.433 314.21 690.21 314.21ZM698.336 304.214H700.058L703.964 314H702.158L701.262 311.746H697.118L696.236 314H694.416L698.336 304.214ZM700.772 310.276L699.19 306.118L697.608 310.276H700.772ZM703.194 304.214H705.084L707.968 311.62L710.866 304.214H712.742L708.836 314H707.114L703.194 304.214ZM714.138 304.214H715.916V314H714.138V304.214ZM717.597 304.214H719.277L723.855 311.032V304.214H725.633V314H723.953L719.375 307.168V314H717.597V304.214ZM732.274 314.21C731.247 314.21 730.337 314.005 729.544 313.594C728.75 313.174 728.134 312.581 727.696 311.816C727.257 311.041 727.038 310.141 727.038 309.114C727.038 308.087 727.257 307.191 727.696 306.426C728.134 305.651 728.75 305.054 729.544 304.634C730.337 304.214 731.247 304.004 732.274 304.004C732.974 304.004 733.599 304.079 734.15 304.228C734.7 304.377 735.2 304.615 735.648 304.942V306.636C735.237 306.281 734.766 306.025 734.234 305.866C733.702 305.707 733.1 305.628 732.428 305.628C731.756 305.628 731.144 305.773 730.594 306.062C730.052 306.342 729.623 306.748 729.306 307.28C728.988 307.803 728.83 308.414 728.83 309.114C728.83 309.823 728.979 310.444 729.278 310.976C729.576 311.499 729.992 311.905 730.524 312.194C731.056 312.474 731.662 312.614 732.344 312.614C733.062 312.614 733.655 312.493 734.122 312.25V310.052H732.47V308.638H735.9V313.202C735.032 313.874 733.823 314.21 732.274 314.21Z" fill="black"/>
<path d="M520.755 313.21C519.728 313.21 518.818 313.005 518.025 312.594C517.232 312.174 516.616 311.581 516.177 310.816C515.738 310.041 515.519 309.141 515.519 308.114C515.519 307.087 515.738 306.191 516.177 305.426C516.616 304.651 517.232 304.054 518.025 303.634C518.818 303.214 519.728 303.004 520.755 303.004C522.108 303.004 523.238 303.326 524.143 303.97V305.664C523.331 304.973 522.253 304.628 520.909 304.628C520.19 304.628 519.56 304.773 519.019 305.062C518.478 305.342 518.058 305.743 517.759 306.266C517.46 306.789 517.311 307.405 517.311 308.114C517.311 308.823 517.46 309.439 517.759 309.962C518.067 310.485 518.492 310.891 519.033 311.18C519.574 311.46 520.2 311.6 520.909 311.6C521.6 311.6 522.216 311.516 522.757 311.348C523.298 311.171 523.798 310.891 524.255 310.508V312.202C523.396 312.874 522.23 313.21 520.755 313.21ZM525.656 303.214H527.434V307.274H532.138V303.214H533.902V313H532.138V308.744H527.434V313H525.656V303.214ZM535.582 303.214H542.204V304.684H537.36V307.372H540.958V308.842H537.36V311.53H542.204V313H535.582V303.214ZM548.222 313.21C547.195 313.21 546.285 313.005 545.492 312.594C544.698 312.174 544.082 311.581 543.644 310.816C543.205 310.041 542.986 309.141 542.986 308.114C542.986 307.087 543.205 306.191 543.644 305.426C544.082 304.651 544.698 304.054 545.492 303.634C546.285 303.214 547.195 303.004 548.222 303.004C549.575 303.004 550.704 303.326 551.61 303.97V305.664C550.798 304.973 549.72 304.628 548.376 304.628C547.657 304.628 547.027 304.773 546.486 305.062C545.944 305.342 545.524 305.743 545.226 306.266C544.927 306.789 544.778 307.405 544.778 308.114C544.778 308.823 544.927 309.439 545.226 309.962C545.534 310.485 545.958 310.891 546.5 311.18C547.041 311.46 547.666 311.6 548.376 311.6C549.066 311.6 549.682 311.516 550.224 311.348C550.765 311.171 551.264 310.891 551.722 310.508V312.202C550.863 312.874 549.696 313.21 548.222 313.21ZM553.123 303.214H554.901V307.652L558.919 303.214H561.047L556.707 308.002L561.327 313H559.199L554.901 308.352V313H553.123V303.214ZM562.721 303.214H564.499V313H562.721V303.214ZM566.18 303.214H567.86L572.438 310.032V303.214H574.216V313H572.536L567.958 306.168V313H566.18V303.214ZM580.857 313.21C579.83 313.21 578.92 313.005 578.127 312.594C577.333 312.174 576.717 311.581 576.279 310.816C575.84 310.041 575.621 309.141 575.621 308.114C575.621 307.087 575.84 306.191 576.279 305.426C576.717 304.651 577.333 304.054 578.127 303.634C578.92 303.214 579.83 303.004 580.857 303.004C581.557 303.004 582.182 303.079 582.733 303.228C583.283 303.377 583.783 303.615 584.231 303.942V305.636C583.82 305.281 583.349 305.025 582.817 304.866C582.285 304.707 581.683 304.628 581.011 304.628C580.339 304.628 579.727 304.773 579.177 305.062C578.635 305.342 578.206 305.748 577.889 306.28C577.571 306.803 577.413 307.414 577.413 308.114C577.413 308.823 577.562 309.444 577.861 309.976C578.159 310.499 578.575 310.905 579.107 311.194C579.639 311.474 580.245 311.614 580.927 311.614C581.645 311.614 582.238 311.493 582.705 311.25V309.052H581.053V307.638H584.483V312.202C583.615 312.874 582.406 313.21 580.857 313.21Z" fill="white"/>
<rect x="470" y="772" width="326" height="63" rx="31.5" stroke="white" stroke-width="3"/>
<path d="M607.04 810.27C605.984 810.27 605.078 810.006 604.322 809.478C603.566 808.95 602.984 808.194 602.576 807.21C602.18 806.226 601.982 805.062 601.982 803.718C601.982 802.374 602.18 801.21 602.576 800.226C602.972 799.242 603.548 798.486 604.304 797.958C605.06 797.418 605.972 797.148 607.04 797.148C608.108 797.148 609.02 797.418 609.776 797.958C610.532 798.486 611.108 799.242 611.504 800.226C611.9 801.21 612.098 802.374 612.098 803.718C612.098 805.062 611.894 806.226 611.486 807.21C611.09 808.194 610.514 808.95 609.758 809.478C609.002 810.006 608.096 810.27 607.04 810.27ZM607.04 809.082C607.796 809.082 608.45 808.866 609.002 808.434C609.566 807.99 609.998 807.366 610.298 806.562C610.61 805.746 610.766 804.798 610.766 803.718C610.766 802.638 610.616 801.696 610.316 800.892C610.028 800.088 609.602 799.464 609.038 799.02C608.474 798.576 607.808 798.354 607.04 798.354C606.272 798.354 605.606 798.576 605.042 799.02C604.478 799.464 604.046 800.088 603.746 800.892C603.458 801.696 603.314 802.638 603.314 803.718C603.314 804.798 603.464 805.746 603.764 806.562C604.076 807.366 604.508 807.99 605.06 808.434C605.624 808.866 606.284 809.082 607.04 809.082Z" fill="white" fill-opacity="0.5"/>
<path d="M623.642 809.21C622.56 809.21 621.617 808.935 620.814 808.384C620.021 807.833 619.461 807.068 619.134 806.088H617.986V804.744H618.854C618.836 804.613 618.826 804.403 618.826 804.114C618.826 803.834 618.836 803.624 618.854 803.484H617.986V802.14H619.134C619.461 801.16 620.021 800.395 620.814 799.844C621.617 799.284 622.56 799.004 623.642 799.004C624.249 799.004 624.776 799.074 625.224 799.214C625.682 799.345 626.097 799.55 626.47 799.83V801.524C626.088 801.207 625.682 800.978 625.252 800.838C624.832 800.698 624.347 800.628 623.796 800.628C622.462 800.628 621.533 801.132 621.01 802.14H623.18V803.484H620.646C620.628 803.624 620.618 803.834 620.618 804.114C620.618 804.273 620.628 804.483 620.646 804.744H623.18V806.088H621.01C621.262 806.583 621.622 806.961 622.088 807.222C622.555 807.474 623.124 807.6 623.796 807.6C624.394 807.6 624.902 807.535 625.322 807.404C625.742 807.264 626.162 807.012 626.582 806.648V808.342C626.228 808.659 625.817 808.883 625.35 809.014C624.884 809.145 624.314 809.21 623.642 809.21Z" fill="white"/>
<rect x="644" y="772" width="152" height="63" rx="31.5" stroke="url(#paint1_linear_102_85)" stroke-width="3"/>
<path d="M676.627 799.308H672.829V797.418H682.711V799.308H678.913V810H676.627V799.308ZM689.482 810.27C688.222 810.27 687.082 810 686.062 809.46C685.054 808.908 684.256 808.134 683.668 807.138C683.092 806.142 682.804 805.002 682.804 803.718C682.804 802.434 683.092 801.294 683.668 800.298C684.256 799.302 685.054 798.528 686.062 797.976C687.082 797.424 688.222 797.148 689.482 797.148C690.73 797.148 691.858 797.424 692.866 797.976C693.886 798.528 694.684 799.302 695.26 800.298C695.848 801.294 696.142 802.434 696.142 803.718C696.142 805.002 695.848 806.142 695.26 807.138C694.684 808.122 693.886 808.89 692.866 809.442C691.858 809.994 690.73 810.27 689.482 810.27ZM689.482 808.2C690.286 808.2 691.018 808.02 691.678 807.66C692.338 807.288 692.86 806.766 693.244 806.094C693.64 805.41 693.838 804.618 693.838 803.718C693.838 802.83 693.646 802.05 693.262 801.378C692.878 800.694 692.356 800.166 691.696 799.794C691.036 799.422 690.298 799.236 689.482 799.236C688.666 799.236 687.922 799.422 687.25 799.794C686.59 800.166 686.068 800.694 685.684 801.378C685.3 802.05 685.108 802.83 685.108 803.718C685.108 804.618 685.3 805.41 685.684 806.094C686.08 806.766 686.608 807.288 687.268 807.66C687.94 808.02 688.678 808.2 689.482 808.2ZM708.069 810.27C707.325 810.27 706.587 810.198 705.855 810.054C705.135 809.922 704.541 809.742 704.073 809.514V807.552C704.673 807.84 705.303 808.056 705.963 808.2C706.623 808.344 707.271 808.416 707.907 808.416C708.711 808.416 709.323 808.266 709.743 807.966C710.163 807.666 710.373 807.252 710.373 806.724C710.373 806.352 710.277 806.046 710.085 805.806C709.893 805.554 709.611 805.338 709.239 805.158C708.867 804.966 708.297 804.72 707.529 804.42C706.353 803.94 705.501 803.406 704.973 802.818C704.445 802.23 704.181 801.498 704.181 800.622C704.181 799.938 704.367 799.332 704.739 798.804C705.111 798.276 705.633 797.868 706.305 797.58C706.977 797.292 707.751 797.148 708.627 797.148C709.347 797.148 709.983 797.208 710.535 797.328C711.099 797.436 711.651 797.61 712.191 797.85V799.758C711.147 799.254 710.091 799.002 709.023 799.002C708.255 799.002 707.661 799.146 707.241 799.434C706.821 799.71 706.611 800.106 706.611 800.622C706.611 800.994 706.707 801.3 706.899 801.54C707.091 801.768 707.343 801.966 707.655 802.134C707.979 802.29 708.555 802.542 709.383 802.89C710.223 803.238 710.883 803.58 711.363 803.916C711.855 804.252 712.221 804.648 712.461 805.104C712.713 805.548 712.839 806.094 712.839 806.742C712.839 807.858 712.437 808.728 711.633 809.352C710.829 809.964 709.641 810.27 708.069 810.27ZM718.518 797.418H720.732L725.754 810H723.432L722.28 807.102H716.952L715.818 810H713.478L718.518 797.418ZM721.65 805.212L719.616 799.866L717.582 805.212H721.65ZM724.763 797.418H727.193L730.901 806.94L734.627 797.418H737.039L732.017 810H729.803L724.763 797.418ZM738.834 797.418H741.12V810H738.834V797.418ZM743.281 797.418H745.441L751.327 806.184V797.418H753.613V810H751.453L745.567 801.216V810H743.281V797.418ZM762.151 810.27C760.831 810.27 759.661 810.006 758.641 809.478C757.621 808.938 756.829 808.176 756.265 807.192C755.701 806.196 755.419 805.038 755.419 803.718C755.419 802.398 755.701 801.246 756.265 800.262C756.829 799.266 757.621 798.498 758.641 797.958C759.661 797.418 760.831 797.148 762.151 797.148C763.051 797.148 763.855 797.244 764.563 797.436C765.271 797.628 765.913 797.934 766.489 798.354V800.532C765.961 800.076 765.355 799.746 764.671 799.542C763.987 799.338 763.213 799.236 762.349 799.236C761.485 799.236 760.699 799.422 759.991 799.794C759.295 800.154 758.743 800.676 758.335 801.36C757.927 802.032 757.723 802.818 757.723 803.718C757.723 804.63 757.915 805.428 758.299 806.112C758.683 806.784 759.217 807.306 759.901 807.678C760.585 808.038 761.365 808.218 762.241 808.218C763.165 808.218 763.927 808.062 764.527 807.75V804.924H762.403V803.106H766.813V808.974C765.697 809.838 764.143 810.27 762.151 810.27Z" fill="white"/>
<rect x="644" y="542" width="152" height="189" rx="31" stroke="white" stroke-width="3"/>
<path d="M760.04 584.27C758.984 584.27 758.078 584.006 757.322 583.478C756.566 582.95 755.984 582.194 755.576 581.21C755.18 580.226 754.982 579.062 754.982 577.718C754.982 576.374 755.18 575.21 755.576 574.226C755.972 573.242 756.548 572.486 757.304 571.958C758.06 571.418 758.972 571.148 760.04 571.148C761.108 571.148 762.02 571.418 762.776 571.958C763.532 572.486 764.108 573.242 764.504 574.226C764.9 575.21 765.098 576.374 765.098 577.718C765.098 579.062 764.894 580.226 764.486 581.21C764.09 582.194 763.514 582.95 762.758 583.478C762.002 584.006 761.096 584.27 760.04 584.27ZM760.04 583.082C760.796 583.082 761.45 582.866 762.002 582.434C762.566 581.99 762.998 581.366 763.298 580.562C763.61 579.746 763.766 578.798 763.766 577.718C763.766 576.638 763.616 575.696 763.316 574.892C763.028 574.088 762.602 573.464 762.038 573.02C761.474 572.576 760.808 572.354 760.04 572.354C759.272 572.354 758.606 572.576 758.042 573.02C757.478 573.464 757.046 574.088 756.746 574.892C756.458 575.696 756.314 576.638 756.314 577.718C756.314 578.798 756.464 579.746 756.764 580.562C757.076 581.366 757.508 581.99 758.06 582.434C758.624 582.866 759.284 583.082 760.04 583.082Z" fill="white" fill-opacity="0.5"/>
<path d="M776.642 583.21C775.56 583.21 774.617 582.935 773.814 582.384C773.021 581.833 772.461 581.068 772.134 580.088H770.986V578.744H771.854C771.836 578.613 771.826 578.403 771.826 578.114C771.826 577.834 771.836 577.624 771.854 577.484H770.986V576.14H772.134C772.461 575.16 773.021 574.395 773.814 573.844C774.617 573.284 775.56 573.004 776.642 573.004C777.249 573.004 777.776 573.074 778.224 573.214C778.682 573.345 779.097 573.55 779.47 573.83V575.524C779.088 575.207 778.682 574.978 778.252 574.838C777.832 574.698 777.347 574.628 776.796 574.628C775.462 574.628 774.533 575.132 774.01 576.14H776.18V577.484H773.646C773.628 577.624 773.618 577.834 773.618 578.114C773.618 578.273 773.628 578.483 773.646 578.744H776.18V580.088H774.01C774.262 580.583 774.622 580.961 775.088 581.222C775.555 581.474 776.124 581.6 776.796 581.6C777.394 581.6 777.902 581.535 778.322 581.404C778.742 581.264 779.162 581.012 779.582 580.648V582.342C779.228 582.659 778.817 582.883 778.35 583.014C777.884 583.145 777.314 583.21 776.642 583.21Z" fill="white"/>
<path d="M663 603.5H780" stroke="white" stroke-opacity="0.3"/>
<path d="M746.778 630.418H748.182V643H746.778V630.418ZM750.715 634.36H752.065V635.656C752.485 635.116 752.995 634.72 753.595 634.468C754.207 634.216 754.855 634.09 755.539 634.09C756.679 634.09 757.525 634.39 758.077 634.99C758.641 635.59 758.923 636.394 758.923 637.402V643H757.537V637.528C757.537 636.784 757.357 636.214 756.997 635.818C756.637 635.41 756.061 635.206 755.269 635.206C753.937 635.206 752.881 635.806 752.101 637.006V643H750.715V634.36ZM761.98 635.44H760.63V634.36H761.98V632.452C761.98 631.516 762.232 630.808 762.736 630.328C763.252 629.848 763.942 629.608 764.806 629.608C765.262 629.608 765.688 629.668 766.084 629.788V630.958C765.748 630.802 765.4 630.724 765.04 630.724C764.464 630.724 764.038 630.874 763.762 631.174C763.498 631.462 763.366 631.912 763.366 632.524V634.36H765.562V635.44H763.366V643H761.98V635.44ZM771.315 643.27C770.379 643.27 769.545 643.084 768.813 642.712C768.093 642.34 767.529 641.812 767.121 641.128C766.725 640.432 766.527 639.622 766.527 638.698C766.527 637.786 766.731 636.982 767.139 636.286C767.547 635.59 768.111 635.05 768.831 634.666C769.563 634.282 770.391 634.09 771.315 634.09C772.239 634.09 773.061 634.282 773.781 634.666C774.513 635.05 775.083 635.59 775.491 636.286C775.899 636.982 776.103 637.786 776.103 638.698C776.103 639.622 775.899 640.432 775.491 641.128C775.095 641.812 774.531 642.34 773.799 642.712C773.079 643.084 772.251 643.27 771.315 643.27ZM771.315 642.172C772.347 642.172 773.169 641.86 773.781 641.236C774.405 640.6 774.717 639.754 774.717 638.698C774.717 637.63 774.405 636.784 773.781 636.16C773.169 635.524 772.347 635.206 771.315 635.206C770.283 635.206 769.455 635.524 768.831 636.16C768.219 636.784 767.913 637.63 767.913 638.698C767.913 639.754 768.219 640.6 768.831 641.236C769.455 641.86 770.283 642.172 771.315 642.172Z" fill="white" fill-opacity="0.5"/>
<rect x="470" y="542" width="152" height="189" rx="31" stroke="white" stroke-width="3"/>
<path d="M586.04 584.27C584.984 584.27 584.078 584.006 583.322 583.478C582.566 582.95 581.984 582.194 581.576 581.21C581.18 580.226 580.982 579.062 580.982 577.718C580.982 576.374 581.18 575.21 581.576 574.226C581.972 573.242 582.548 572.486 583.304 571.958C584.06 571.418 584.972 571.148 586.04 571.148C587.108 571.148 588.02 571.418 588.776 571.958C589.532 572.486 590.108 573.242 590.504 574.226C590.9 575.21 591.098 576.374 591.098 577.718C591.098 579.062 590.894 580.226 590.486 581.21C590.09 582.194 589.514 582.95 588.758 583.478C588.002 584.006 587.096 584.27 586.04 584.27ZM586.04 583.082C586.796 583.082 587.45 582.866 588.002 582.434C588.566 581.99 588.998 581.366 589.298 580.562C589.61 579.746 589.766 578.798 589.766 577.718C589.766 576.638 589.616 575.696 589.316 574.892C589.028 574.088 588.602 573.464 588.038 573.02C587.474 572.576 586.808 572.354 586.04 572.354C585.272 572.354 584.606 572.576 584.042 573.02C583.478 573.464 583.046 574.088 582.746 574.892C582.458 575.696 582.314 576.638 582.314 577.718C582.314 578.798 582.464 579.746 582.764 580.562C583.076 581.366 583.508 581.99 584.06 582.434C584.624 582.866 585.284 583.082 586.04 583.082Z" fill="white" fill-opacity="0.5"/>
<path d="M602.642 583.21C601.56 583.21 600.617 582.935 599.814 582.384C599.021 581.833 598.461 581.068 598.134 580.088H596.986V578.744H597.854C597.836 578.613 597.826 578.403 597.826 578.114C597.826 577.834 597.836 577.624 597.854 577.484H596.986V576.14H598.134C598.461 575.16 599.021 574.395 599.814 573.844C600.617 573.284 601.56 573.004 602.642 573.004C603.249 573.004 603.776 573.074 604.224 573.214C604.682 573.345 605.097 573.55 605.47 573.83V575.524C605.088 575.207 604.682 574.978 604.252 574.838C603.832 574.698 603.347 574.628 602.796 574.628C601.462 574.628 600.533 575.132 600.01 576.14H602.18V577.484H599.646C599.628 577.624 599.618 577.834 599.618 578.114C599.618 578.273 599.628 578.483 599.646 578.744H602.18V580.088H600.01C600.262 580.583 600.622 580.961 601.088 581.222C601.555 581.474 602.124 581.6 602.796 581.6C603.394 581.6 603.902 581.535 604.322 581.404C604.742 581.264 605.162 581.012 605.582 580.648V582.342C605.228 582.659 604.817 582.883 604.35 583.014C603.884 583.145 603.314 583.21 602.642 583.21Z" fill="white"/>
<path d="M489 603.5H606" stroke="white" stroke-opacity="0.3"/>
<path d="M572.778 630.418H574.182V643H572.778V630.418ZM576.715 634.36H578.065V635.656C578.485 635.116 578.995 634.72 579.595 634.468C580.207 634.216 580.855 634.09 581.539 634.09C582.679 634.09 583.525 634.39 584.077 634.99C584.641 635.59 584.923 636.394 584.923 637.402V643H583.537V637.528C583.537 636.784 583.357 636.214 582.997 635.818C582.637 635.41 582.061 635.206 581.269 635.206C579.937 635.206 578.881 635.806 578.101 637.006V643H576.715V634.36ZM587.98 635.44H586.63V634.36H587.98V632.452C587.98 631.516 588.232 630.808 588.736 630.328C589.252 629.848 589.942 629.608 590.806 629.608C591.262 629.608 591.688 629.668 592.084 629.788V630.958C591.748 630.802 591.4 630.724 591.04 630.724C590.464 630.724 590.038 630.874 589.762 631.174C589.498 631.462 589.366 631.912 589.366 632.524V634.36H591.562V635.44H589.366V643H587.98V635.44ZM597.315 643.27C596.379 643.27 595.545 643.084 594.813 642.712C594.093 642.34 593.529 641.812 593.121 641.128C592.725 640.432 592.527 639.622 592.527 638.698C592.527 637.786 592.731 636.982 593.139 636.286C593.547 635.59 594.111 635.05 594.831 634.666C595.563 634.282 596.391 634.09 597.315 634.09C598.239 634.09 599.061 634.282 599.781 634.666C600.513 635.05 601.083 635.59 601.491 636.286C601.899 636.982 602.103 637.786 602.103 638.698C602.103 639.622 601.899 640.432 601.491 641.128C601.095 641.812 600.531 642.34 599.799 642.712C599.079 643.084 598.251 643.27 597.315 643.27ZM597.315 642.172C598.347 642.172 599.169 641.86 599.781 641.236C600.405 640.6 600.717 639.754 600.717 638.698C600.717 637.63 600.405 636.784 599.781 636.16C599.169 635.524 598.347 635.206 597.315 635.206C596.283 635.206 595.455 635.524 594.831 636.16C594.219 636.784 593.913 637.63 593.913 638.698C593.913 639.754 594.219 640.6 594.831 641.236C595.455 641.86 596.283 642.172 597.315 642.172Z" fill="white" fill-opacity="0.5"/>
<rect x="644" y="668" width="152" height="63" rx="31.5" stroke="url(#paint2_linear_102_85)" stroke-width="3"/>
<path d="M671.361 693.418H673.737L676.239 702.31L678.705 693.418H680.469L682.935 702.31L685.437 693.418H687.813L684.231 706H682.107L679.587 697.252L677.067 706H674.943L671.361 693.418ZM689.615 693.418H691.901V706H689.615V693.418ZM697.14 695.308H693.342V693.418H703.224V695.308H699.426V706H697.14V695.308ZM704.662 693.418H706.948V698.638H712.996V693.418H715.264V706H712.996V700.528H706.948V706H704.662V693.418ZM717.424 693.418H721.636C723.004 693.418 724.192 693.67 725.2 694.174C726.208 694.678 726.982 695.398 727.522 696.334C728.062 697.27 728.332 698.374 728.332 699.646C728.332 701.734 727.726 703.318 726.514 704.398C725.302 705.466 723.61 706 721.438 706H717.424V693.418ZM721.474 704.11C722.938 704.11 724.06 703.72 724.84 702.94C725.632 702.148 726.028 701.05 726.028 699.646C726.028 698.794 725.854 698.044 725.506 697.396C725.158 696.736 724.66 696.226 724.012 695.866C723.364 695.494 722.596 695.308 721.708 695.308H719.71V704.11H721.474ZM730.133 693.418H735.389C736.781 693.418 737.855 693.76 738.611 694.444C739.367 695.128 739.745 696.118 739.745 697.414C739.745 698.338 739.517 699.124 739.061 699.772C738.605 700.42 737.957 700.882 737.117 701.158L739.673 706H737.333L734.903 701.392H732.419V706H730.133V693.418ZM734.975 699.502C735.719 699.502 736.319 699.328 736.775 698.98C737.231 698.632 737.459 698.11 737.459 697.414C737.459 696.01 736.631 695.308 734.975 695.308H732.419V699.502H734.975ZM745.412 693.418H747.626L752.648 706H750.326L749.174 703.102H743.846L742.712 706H740.372L745.412 693.418ZM748.544 701.212L746.51 695.866L744.476 701.212H748.544ZM752.185 693.418H754.561L757.063 702.31L759.529 693.418H761.293L763.759 702.31L766.261 693.418H768.637L765.055 706H762.931L760.411 697.252L757.891 706H755.767L752.185 693.418Z" fill="white"/>
<rect x="470" y="668" width="152" height="63" rx="31.5" stroke="url(#paint3_linear_102_85)" stroke-width="3"/>
<path d="M510.465 693.418H514.677C516.045 693.418 517.233 693.67 518.241 694.174C519.249 694.678 520.023 695.398 520.563 696.334C521.103 697.27 521.373 698.374 521.373 699.646C521.373 701.734 520.767 703.318 519.555 704.398C518.343 705.466 516.651 706 514.479 706H510.465V693.418ZM514.515 704.11C515.979 704.11 517.101 703.72 517.881 702.94C518.673 702.148 519.069 701.05 519.069 699.646C519.069 698.794 518.895 698.044 518.547 697.396C518.199 696.736 517.701 696.226 517.053 695.866C516.405 695.494 515.637 695.308 514.749 695.308H512.751V704.11H514.515ZM523.174 693.418H531.688V695.308H525.46V698.764H530.086V700.654H525.46V704.11H531.688V706H523.174V693.418ZM533.316 693.418H538.356C539.736 693.418 540.84 693.784 541.668 694.516C542.508 695.248 542.928 696.25 542.928 697.522C542.928 698.842 542.514 699.85 541.686 700.546C540.858 701.23 539.742 701.572 538.338 701.572H535.602V706H533.316V693.418ZM538.068 699.682C539.784 699.682 540.642 698.962 540.642 697.522C540.642 696.046 539.784 695.308 538.068 695.308H535.602V699.682H538.068ZM550.427 706.27C549.167 706.27 548.027 706 547.007 705.46C545.999 704.908 545.201 704.134 544.613 703.138C544.037 702.142 543.749 701.002 543.749 699.718C543.749 698.434 544.037 697.294 544.613 696.298C545.201 695.302 545.999 694.528 547.007 693.976C548.027 693.424 549.167 693.148 550.427 693.148C551.675 693.148 552.803 693.424 553.811 693.976C554.831 694.528 555.629 695.302 556.205 696.298C556.793 697.294 557.087 698.434 557.087 699.718C557.087 701.002 556.793 702.142 556.205 703.138C555.629 704.122 554.831 704.89 553.811 705.442C552.803 705.994 551.675 706.27 550.427 706.27ZM550.427 704.2C551.231 704.2 551.963 704.02 552.623 703.66C553.283 703.288 553.805 702.766 554.189 702.094C554.585 701.41 554.783 700.618 554.783 699.718C554.783 698.83 554.591 698.05 554.207 697.378C553.823 696.694 553.301 696.166 552.641 695.794C551.981 695.422 551.243 695.236 550.427 695.236C549.611 695.236 548.867 695.422 548.195 695.794C547.535 696.166 547.013 696.694 546.629 697.378C546.245 698.05 546.053 698.83 546.053 699.718C546.053 700.618 546.245 701.41 546.629 702.094C547.025 702.766 547.553 703.288 548.213 703.66C548.885 704.02 549.623 704.2 550.427 704.2ZM562.071 706.27C561.327 706.27 560.589 706.198 559.857 706.054C559.137 705.922 558.543 705.742 558.075 705.514V703.552C558.675 703.84 559.305 704.056 559.965 704.2C560.625 704.344 561.273 704.416 561.909 704.416C562.713 704.416 563.325 704.266 563.745 703.966C564.165 703.666 564.375 703.252 564.375 702.724C564.375 702.352 564.279 702.046 564.087 701.806C563.895 701.554 563.613 701.338 563.241 701.158C562.869 700.966 562.299 700.72 561.531 700.42C560.355 699.94 559.503 699.406 558.975 698.818C558.447 698.23 558.183 697.498 558.183 696.622C558.183 695.938 558.369 695.332 558.741 694.804C559.113 694.276 559.635 693.868 560.307 693.58C560.979 693.292 561.753 693.148 562.629 693.148C563.349 693.148 563.985 693.208 564.537 693.328C565.101 693.436 565.653 693.61 566.193 693.85V695.758C565.149 695.254 564.093 695.002 563.025 695.002C562.257 695.002 561.663 695.146 561.243 695.434C560.823 695.71 560.613 696.106 560.613 696.622C560.613 696.994 560.709 697.3 560.901 697.54C561.093 697.768 561.345 697.966 561.657 698.134C561.981 698.29 562.557 698.542 563.385 698.89C564.225 699.238 564.885 699.58 565.365 699.916C565.857 700.252 566.223 700.648 566.464 701.104C566.715 701.548 566.841 702.094 566.841 702.742C566.841 703.858 566.439 704.728 565.635 705.352C564.831 705.964 563.643 706.27 562.071 706.27ZM568.648 693.418H570.934V706H568.648V693.418ZM576.174 695.308H572.376V693.418H582.258V695.308H578.46V706H576.174V695.308Z" fill="white"/>
<rect x="1" y="2" width="390" height="814" rx="40" fill="black"/>
<path d="M1 193H391V776C391 798.091 373.091 816 351 816H41C18.9086 816 1 798.091 1 776V193Z" fill="url(#paint4_radial_102_85)" fill-opacity="0.5"/>
<path d="M1 193H391V776C391 798.091 373.091 816 351 816H41C18.9086 816 1 798.091 1 776V193Z" fill="url(#paint5_radial_102_85)" fill-opacity="0.5"/>
<g clip-path="url(#clip1_102_85)">
<path d="M82.0728 356.768H77V384.783H95.4995V380.575H82.0728V356.768Z" fill="white"/>
<path d="M113.46 366.227C111.683 365.328 109.711 364.888 107.721 364.946C104.311 364.946 101.688 365.867 99.8519 367.709C98.0156 369.551 97.0975 372.054 97.0975 375.22C97.0975 378.43 98.1367 380.929 100.215 382.719C102.293 384.508 105.118 385.402 108.69 385.402C110.11 385.4 111.528 385.278 112.927 385.038C114.122 384.861 115.293 384.554 116.42 384.121V380.229C115.336 380.64 114.212 380.938 113.067 381.116C111.824 381.324 110.567 381.43 109.307 381.431C104.703 381.431 102.227 380.002 101.88 377.145H118.224V374.819C118.252 373.056 117.836 371.314 117.013 369.755C116.206 368.25 114.969 367.022 113.46 366.227ZM101.892 373.684C101.89 373.02 102.032 372.364 102.308 371.762C102.584 371.159 102.987 370.623 103.49 370.192C104.678 369.283 106.151 368.828 107.643 368.911C109.153 368.812 110.65 369.242 111.88 370.126C112.397 370.554 112.812 371.093 113.093 371.704C113.374 372.314 113.514 372.981 113.502 373.653L101.892 373.684Z" fill="white"/>
<path d="M139.769 367.43C137.953 365.774 135.475 364.946 132.335 364.946C130.514 364.915 128.717 365.363 127.123 366.246C125.609 367.1 124.363 368.362 123.527 369.889C122.672 371.538 122.225 373.37 122.225 375.229C122.225 377.088 122.672 378.92 123.527 380.569C124.365 382.075 125.612 383.311 127.123 384.133C128.724 384.994 130.519 385.428 132.335 385.396C133.762 385.429 135.182 385.205 136.53 384.734C137.794 384.237 138.948 383.494 139.926 382.549V384.795H144.769V355.183H139.738L139.769 367.43ZM139.769 377.145C139.343 378.417 138.514 379.515 137.408 380.272C136.282 381.049 134.942 381.454 133.576 381.431C132.753 381.461 131.932 381.324 131.162 381.029C130.393 380.733 129.69 380.286 129.096 379.713C128.51 379.126 128.051 378.424 127.749 377.651C127.447 376.878 127.308 376.05 127.341 375.22C127.305 374.387 127.442 373.556 127.742 372.779C128.042 372.003 128.5 371.296 129.085 370.705C129.671 370.115 130.372 369.652 131.145 369.346C131.918 369.04 132.746 368.899 133.576 368.929C134.951 368.911 136.297 369.325 137.426 370.113C138.533 370.873 139.357 371.979 139.769 373.259V377.145Z" fill="white"/>
<path d="M167.294 367.788C166.314 366.847 165.16 366.106 163.898 365.608C162.55 365.137 161.129 364.913 159.703 364.946C157.886 364.914 156.092 365.349 154.491 366.209C152.978 367.03 151.731 368.266 150.895 369.773C150.034 371.421 149.585 373.253 149.585 375.114C149.585 376.974 150.034 378.806 150.895 380.454C151.752 381.992 153.026 383.255 154.569 384.097C156.187 384.977 158.002 385.427 159.842 385.402C161.212 385.417 162.575 385.212 163.88 384.795C165.078 384.408 166.181 383.773 167.118 382.931V384.145C167.118 386.092 166.604 387.562 165.575 388.554C164.546 389.545 162.867 390.037 160.538 390.029C158.125 390.071 155.729 389.607 153.504 388.669V392.676C154.526 393.129 155.599 393.453 156.7 393.642C157.966 393.879 159.251 393.999 160.538 394C164.481 394 167.403 393.097 169.304 391.292C171.204 389.487 172.157 386.93 172.161 383.623V365.547H167.288L167.294 367.788ZM167.136 377.09C166.724 378.37 165.9 379.476 164.794 380.235C163.665 381.022 162.318 381.433 160.944 381.413C160.117 381.442 159.292 381.301 158.522 380.998C157.752 380.695 157.051 380.237 156.464 379.652C155.88 379.057 155.423 378.348 155.121 377.569C154.819 376.79 154.679 375.958 154.709 375.123C154.677 374.294 154.816 373.467 155.118 372.695C155.42 371.923 155.879 371.222 156.464 370.636C157.057 370.062 157.76 369.613 158.529 369.317C159.299 369.021 160.12 368.883 160.944 368.911C162.311 368.891 163.65 369.298 164.776 370.077C165.883 370.832 166.712 371.931 167.136 373.204V377.09Z" fill="white"/>
<path d="M193.324 366.227C191.549 365.329 189.578 364.888 187.591 364.946C184.177 364.946 181.554 365.867 179.722 367.709C177.889 369.551 176.969 372.054 176.961 375.22C176.961 378.43 178 380.929 180.079 382.719C182.157 384.508 184.982 385.402 188.554 385.402C189.974 385.4 191.391 385.278 192.791 385.038C193.985 384.861 195.156 384.554 196.284 384.121V380.229C195.2 380.64 194.076 380.938 192.93 381.116C191.69 381.324 190.435 381.43 189.177 381.431C184.564 381.431 182.086 380.002 181.743 377.145H198.088V374.819C198.116 373.056 197.699 371.314 196.877 369.755C196.07 368.25 194.832 367.022 193.324 366.227ZM181.756 373.684C181.753 373.02 181.895 372.364 182.171 371.762C182.447 371.159 182.851 370.623 183.354 370.192C184.541 369.283 186.014 368.828 187.506 368.911C189.016 368.815 190.513 369.244 191.744 370.126C192.259 370.555 192.672 371.095 192.951 371.705C193.231 372.316 193.371 372.982 193.36 373.653L181.756 373.684Z" fill="white"/>
<path d="M207.755 368.632V365.547H202.912V384.783H207.949V373.119C208.235 372.474 208.645 371.893 209.157 371.409C209.668 370.924 210.27 370.546 210.927 370.296C212.535 369.659 214.254 369.351 215.982 369.391V365.547C214.318 365.52 212.662 365.777 211.085 366.306C209.765 366.724 208.603 367.535 207.755 368.632Z" fill="white"/>
<path d="M236.11 366.227C234.564 365.368 232.822 364.927 231.055 364.946C229.143 364.933 227.257 365.394 225.565 366.288C223.931 367.121 222.627 368.484 221.866 370.156V355.183H220.752V384.801H221.866V380.272C222.717 381.87 224.007 383.191 225.583 384.079C227.255 384.983 229.132 385.439 231.031 385.402C232.788 385.424 234.521 384.995 236.067 384.158C237.589 383.337 238.849 382.102 239.699 380.593C240.621 378.956 241.087 377.1 241.049 375.22C241.089 373.346 240.636 371.495 239.736 369.852C238.887 368.329 237.631 367.074 236.11 366.227ZM238.81 380.077C238.044 381.435 236.916 382.552 235.553 383.301C234.177 384.066 232.628 384.46 231.055 384.443C228.992 384.494 226.963 383.907 225.244 382.761C223.609 381.639 222.415 379.982 221.866 378.074V372.384C222.378 370.452 223.572 368.771 225.226 367.654C226.946 366.493 228.981 365.891 231.055 365.93C232.627 365.917 234.176 366.31 235.553 367.071C236.923 367.832 238.051 368.964 238.81 370.338C239.632 371.833 240.05 373.519 240.02 375.226C240.054 376.922 239.636 378.597 238.81 380.077Z" fill="white"/>
<path d="M256.667 364.946C255.594 364.951 254.524 365.058 253.471 365.268C252.515 365.442 251.578 365.71 250.675 366.07V367.071C252.578 366.297 254.613 365.901 256.667 365.906C259.119 365.906 260.905 366.416 262.001 367.43C263.096 368.444 263.659 369.992 263.659 372.081V375.323C261.207 373.955 258.431 373.277 255.626 373.362C250.566 373.362 248.035 375.386 248.035 379.434C247.988 380.282 248.147 381.128 248.5 381.901C248.852 382.673 249.386 383.348 250.057 383.866C251.401 384.89 253.205 385.404 255.469 385.408C259.279 385.408 262.049 384.18 263.78 381.723V384.807H264.779V372.117C264.779 367.341 262.075 364.95 256.667 364.946ZM263.659 380.332C262.975 381.65 261.889 382.713 260.56 383.368C259.08 384.11 257.443 384.481 255.79 384.449C253.526 384.449 251.837 384.018 250.735 383.15C250.184 382.709 249.745 382.142 249.457 381.497C249.168 380.851 249.038 380.146 249.076 379.44C249.076 377.732 249.583 376.456 250.596 375.615C251.607 374.777 253.284 374.352 255.626 374.352C257.066 374.333 258.503 374.488 259.906 374.813C261.215 375.155 262.476 375.661 263.659 376.319V380.332Z" fill="white"/>
<path d="M283.557 364.946C281.985 364.94 280.43 365.276 278.999 365.93C277.498 366.635 276.216 367.734 275.288 369.112V365.547H274.168V384.783H275.288V370.636C277.387 367.486 280.143 365.91 283.557 365.906C285.736 365.906 287.314 366.434 288.291 367.49C289.259 368.547 289.75 370.065 289.75 372.038V384.789H290.87V371.996C290.964 370.107 290.311 368.256 289.054 366.847C287.867 365.58 286.035 364.946 283.557 364.946Z" fill="white"/>
<path d="M302.771 375.165L313.122 365.547H311.524L301.372 375.044V355.165H300.259V384.783H301.372V375.287L312.402 384.783H314L302.771 375.165Z" fill="white"/>
<path d="M188.318 326.991L188.312 289L180.218 295.029L180.224 333.021L202.689 340.562L210.782 334.533L188.318 326.991Z" fill="white"/>
<path d="M208.04 323.124C208.875 320.762 207.574 318.102 205.122 316.821C204.938 316.73 204.748 316.651 204.553 316.584L197.083 313.894L196.986 321.927L204.202 324.356C204.202 324.356 207.15 325.571 208.04 323.124Z" fill="white"/>
<path d="M208.173 308.327C209.008 305.965 207.707 303.305 205.255 302.024C205.071 301.933 204.881 301.854 204.686 301.787L197.216 299.085L197.119 307.118L204.335 309.577C204.335 309.577 207.307 310.774 208.173 308.327Z" fill="white"/>
</g>
<path d="M135.591 515.428H139.287L143.179 529.26L147.015 515.428H149.759L153.595 529.26L157.487 515.428H161.183L155.611 535H152.307L148.387 521.392L144.467 535H141.163L135.591 515.428ZM169.441 535.42C166.94 535.42 164.961 534.795 163.505 533.544C162.049 532.293 161.321 530.548 161.321 528.308C161.321 526.105 161.965 524.36 163.253 523.072C164.541 521.784 166.38 521.14 168.769 521.14C170.337 521.14 171.672 521.439 172.773 522.036C173.893 522.633 174.733 523.455 175.293 524.5C175.853 525.527 176.133 526.703 176.133 528.028V529.652H164.681C164.924 531.649 166.66 532.648 169.889 532.648C170.748 532.648 171.625 532.573 172.521 532.424C173.417 532.275 174.201 532.069 174.873 531.808V534.524C174.239 534.785 173.417 535 172.409 535.168C171.42 535.336 170.431 535.42 169.441 535.42ZM172.801 527.244C172.764 526.18 172.381 525.359 171.653 524.78C170.944 524.201 169.964 523.912 168.713 523.912C167.481 523.912 166.511 524.211 165.801 524.808C165.092 525.405 164.719 526.217 164.681 527.244H172.801ZM178.944 514.308H182.472V535H178.944V514.308ZM193.142 535.42C191.574 535.42 190.193 535.14 188.998 534.58C187.822 534.02 186.908 533.208 186.254 532.144C185.601 531.08 185.274 529.801 185.274 528.308C185.274 526.815 185.601 525.536 186.254 524.472C186.926 523.389 187.85 522.568 189.026 522.008C190.221 521.429 191.612 521.14 193.198 521.14C195.289 521.14 196.96 521.551 198.21 522.372V525.2C196.997 524.341 195.448 523.912 193.562 523.912C192.125 523.912 190.977 524.276 190.118 525.004C189.278 525.713 188.858 526.815 188.858 528.308C188.858 529.783 189.278 530.875 190.118 531.584C190.977 532.293 192.106 532.648 193.506 532.648C195.392 532.648 197.016 532.2 198.378 531.304V534.104C197.706 534.552 196.941 534.879 196.082 535.084C195.242 535.308 194.262 535.42 193.142 535.42ZM208.072 535.42C206.504 535.42 205.123 535.14 203.928 534.58C202.752 534.001 201.837 533.18 201.184 532.116C200.531 531.033 200.204 529.755 200.204 528.28C200.204 526.843 200.521 525.592 201.156 524.528C201.809 523.445 202.733 522.615 203.928 522.036C205.123 521.439 206.504 521.14 208.072 521.14C209.64 521.14 211.012 521.439 212.188 522.036C213.383 522.615 214.307 523.445 214.96 524.528C215.613 525.592 215.94 526.843 215.94 528.28C215.94 529.755 215.613 531.033 214.96 532.116C214.307 533.18 213.383 534.001 212.188 534.58C211.012 535.14 209.64 535.42 208.072 535.42ZM208.072 532.648C209.36 532.648 210.387 532.247 211.152 531.444C211.917 530.623 212.3 529.568 212.3 528.28C212.3 526.917 211.917 525.853 211.152 525.088C210.405 524.304 209.379 523.912 208.072 523.912C206.765 523.912 205.729 524.304 204.964 525.088C204.217 525.853 203.844 526.917 203.844 528.28C203.844 529.568 204.227 530.623 204.992 531.444C205.757 532.247 206.784 532.648 208.072 532.648ZM218.729 521.56H222.033V523.324C222.63 522.615 223.33 522.073 224.133 521.7C224.935 521.327 225.747 521.14 226.569 521.14C227.614 521.14 228.454 521.317 229.089 521.672C229.723 522.008 230.199 522.521 230.517 523.212C231.114 522.54 231.833 522.027 232.673 521.672C233.531 521.317 234.381 521.14 235.221 521.14C236.901 521.14 238.105 521.56 238.833 522.4C239.561 523.24 239.925 524.472 239.925 526.096V535H236.537V526.572C236.537 525.62 236.341 524.939 235.949 524.528C235.575 524.117 234.969 523.912 234.129 523.912C233.531 523.912 232.981 524.033 232.477 524.276C231.991 524.5 231.543 524.892 231.133 525.452C231.17 526.049 231.189 526.535 231.189 526.908V535H227.773V526.516C227.773 525.545 227.614 524.873 227.297 524.5C226.979 524.108 226.401 523.912 225.561 523.912C224.291 523.912 223.153 524.631 222.145 526.068V535H218.729V521.56ZM250.707 535.42C248.205 535.42 246.227 534.795 244.771 533.544C243.315 532.293 242.587 530.548 242.587 528.308C242.587 526.105 243.231 524.36 244.519 523.072C245.807 521.784 247.645 521.14 250.035 521.14C251.603 521.14 252.937 521.439 254.039 522.036C255.159 522.633 255.999 523.455 256.559 524.5C257.119 525.527 257.399 526.703 257.399 528.028V529.652H245.947C246.189 531.649 247.925 532.648 251.155 532.648C252.013 532.648 252.891 532.573 253.787 532.424C254.683 532.275 255.467 532.069 256.139 531.808V534.524C255.504 534.785 254.683 535 253.675 535.168C252.685 535.336 251.696 535.42 250.707 535.42ZM254.067 527.244C254.029 526.18 253.647 525.359 252.919 524.78C252.209 524.201 251.229 523.912 249.979 523.912C248.747 523.912 247.776 524.211 247.067 524.808C246.357 525.405 245.984 526.217 245.947 527.244H254.067Z" fill="white"/>
<defs>
<linearGradient id="paint0_linear_102_85" x1="805" y1="193.857" x2="627.612" y2="498.217" gradientUnits="userSpaceOnUse">
<stop offset="0.114583" stop-color="#00D1FF"/>
<stop offset="0.510417" stop-color="white"/>
<stop offset="0.90625" stop-color="#AD00FF"/>
</linearGradient>
<linearGradient id="paint1_linear_102_85" x1="800.196" y1="643" x2="554.294" y2="783.515" gradientUnits="userSpaceOnUse">
<stop offset="0.114583" stop-color="#00D1FF"/>
<stop offset="0.510417" stop-color="white"/>
<stop offset="0.90625" stop-color="#AD00FF"/>
</linearGradient>
<linearGradient id="paint2_linear_102_85" x1="800.196" y1="539" x2="554.294" y2="679.515" gradientUnits="userSpaceOnUse">
<stop offset="0.114583" stop-color="#00D1FF"/>
<stop offset="0.510417" stop-color="white"/>
<stop offset="0.90625" stop-color="#AD00FF"/>
</linearGradient>
<linearGradient id="paint3_linear_102_85" x1="626.196" y1="539" x2="380.294" y2="679.515" gradientUnits="userSpaceOnUse">
<stop offset="0.114583" stop-color="#00D1FF"/>
<stop offset="0.510417" stop-color="white"/>
<stop offset="0.90625" stop-color="#AD00FF"/>
</linearGradient>
<radialGradient id="paint4_radial_102_85" cx="0" cy="0" r="1" gradientUnits="userSpaceOnUse" gradientTransform="translate(366.5 816) rotate(74.6714) scale(478.523 862.95)">
<stop stop-color="#AD00FF"/>
<stop offset="1" stop-opacity="0"/>
</radialGradient>
<radialGradient id="paint5_radial_102_85" cx="0" cy="0" r="1" gradientUnits="userSpaceOnUse" gradientTransform="translate(47.5 790.5) rotate(97.9463) scale(462.945 328.597)">
<stop stop-color="#00D1FF"/>
<stop offset="1" stop-opacity="0"/>
</radialGradient>
<clipPath id="clip0_102_85">
<rect width="25" height="42" fill="white" transform="translate(621 161)"/>
</clipPath>
<clipPath id="clip1_102_85">
<rect width="237" height="105" fill="white" transform="translate(77 289)"/>
</clipPath>
</defs>
</svg>
