<svg width="1107" height="1190" viewBox="0 0 1107 1190" fill="none" xmlns="http://www.w3.org/2000/svg">
<g filter="url(#filter0_d_102_85)">
<rect x="577" y="236" width="390" height="814" rx="40" fill="black"/>
<g clip-path="url(#clip0_102_85)">
<path d="M766.625 329.946L766.62 299L760 303.911L760.005 334.857L778.38 341L785 336.089L766.625 329.946Z" fill="white"/>
<path d="M782.777 326.796C783.46 324.872 782.396 322.705 780.39 321.662C780.239 321.587 780.084 321.523 779.925 321.469L773.795 319.278L773.716 325.811L779.618 327.79C779.618 327.79 782.049 328.789 782.777 326.796Z" fill="white"/>
<path d="M782.866 314.743C783.549 312.819 782.485 310.652 780.479 309.609C780.328 309.535 780.173 309.471 780.014 309.416L773.904 307.215L773.824 313.758L779.722 315.761C779.722 315.761 782.158 316.736 782.866 314.743Z" fill="white"/>
</g>
<path d="M704.487 379.428H708.043V387.548H717.451V379.428H720.979V399H717.451V390.488H708.043V399H704.487V379.428ZM731.898 399.42C729.397 399.42 727.418 398.795 725.962 397.544C724.506 396.293 723.778 394.548 723.778 392.308C723.778 390.105 724.422 388.36 725.71 387.072C726.998 385.784 728.837 385.14 731.226 385.14C732.794 385.14 734.129 385.439 735.23 386.036C736.35 386.633 737.19 387.455 737.75 388.5C738.31 389.527 738.59 390.703 738.59 392.028V393.652H727.138C727.381 395.649 729.117 396.648 732.346 396.648C733.205 396.648 734.082 396.573 734.978 396.424C735.874 396.275 736.658 396.069 737.33 395.808V398.524C736.696 398.785 735.874 399 734.866 399.168C733.877 399.336 732.888 399.42 731.898 399.42ZM735.258 391.244C735.221 390.18 734.838 389.359 734.11 388.78C733.401 388.201 732.421 387.912 731.17 387.912C729.938 387.912 728.968 388.211 728.258 388.808C727.549 389.405 727.176 390.217 727.138 391.244H735.258ZM741.401 378.308H744.929V399H741.401V378.308ZM748.291 378.308H751.819V399H748.291V378.308ZM762.49 399.42C760.922 399.42 759.541 399.14 758.346 398.58C757.17 398.001 756.255 397.18 755.602 396.116C754.949 395.033 754.622 393.755 754.622 392.28C754.622 390.843 754.939 389.592 755.574 388.528C756.227 387.445 757.151 386.615 758.346 386.036C759.541 385.439 760.922 385.14 762.49 385.14C764.058 385.14 765.43 385.439 766.606 386.036C767.801 386.615 768.725 387.445 769.378 388.528C770.031 389.592 770.358 390.843 770.358 392.28C770.358 393.755 770.031 395.033 769.378 396.116C768.725 397.18 767.801 398.001 766.606 398.58C765.43 399.14 764.058 399.42 762.49 399.42ZM762.49 396.648C763.778 396.648 764.805 396.247 765.57 395.444C766.335 394.623 766.718 393.568 766.718 392.28C766.718 390.917 766.335 389.853 765.57 389.088C764.823 388.304 763.797 387.912 762.49 387.912C761.183 387.912 760.147 388.304 759.382 389.088C758.635 389.853 758.262 390.917 758.262 392.28C758.262 393.568 758.645 394.623 759.41 395.444C760.175 396.247 761.202 396.648 762.49 396.648ZM793.149 399.42C791.095 399.42 789.275 399.009 787.689 398.188C786.102 397.348 784.87 396.163 783.993 394.632C783.115 393.083 782.677 391.281 782.677 389.228C782.677 387.175 783.115 385.383 783.993 383.852C784.87 382.303 786.102 381.108 787.689 380.268C789.275 379.428 791.095 379.008 793.149 379.008C794.549 379.008 795.799 379.157 796.901 379.456C798.002 379.755 799.001 380.231 799.897 380.884V384.272C799.075 383.563 798.133 383.049 797.069 382.732C796.005 382.415 794.801 382.256 793.457 382.256C792.113 382.256 790.89 382.545 789.789 383.124C788.706 383.684 787.847 384.496 787.213 385.56C786.578 386.605 786.261 387.828 786.261 389.228C786.261 390.647 786.559 391.888 787.157 392.952C787.754 393.997 788.585 394.809 789.649 395.388C790.713 395.948 791.926 396.228 793.289 396.228C794.726 396.228 795.911 395.985 796.845 395.5V391.104H793.541V388.276H800.401V397.404C798.665 398.748 796.247 399.42 793.149 399.42ZM808.126 399.42C806.52 399.42 805.204 399 804.178 398.16C803.151 397.301 802.638 396.153 802.638 394.716C802.638 393.223 803.123 392.056 804.094 391.216C805.064 390.376 806.427 389.956 808.182 389.956C809.88 389.956 811.346 390.301 812.578 390.992V390.628C812.578 389.676 812.279 388.985 811.682 388.556C811.103 388.127 810.16 387.912 808.854 387.912C808.032 387.912 807.22 387.996 806.418 388.164C805.615 388.313 804.906 388.528 804.29 388.808V386.036C804.85 385.775 805.596 385.56 806.53 385.392C807.482 385.224 808.396 385.14 809.274 385.14C811.607 385.14 813.334 385.644 814.454 386.652C815.574 387.641 816.134 389.023 816.134 390.796V399H812.802V397.684C812.223 398.244 811.56 398.673 810.814 398.972C810.086 399.271 809.19 399.42 808.126 399.42ZM808.994 396.844C809.778 396.844 810.487 396.695 811.122 396.396C811.756 396.079 812.242 395.649 812.578 395.108V393.624C811.551 392.896 810.375 392.532 809.05 392.532C807.164 392.532 806.222 393.26 806.222 394.716C806.222 395.425 806.455 395.957 806.922 396.312C807.407 396.667 808.098 396.844 808.994 396.844ZM821.346 383.208C820.786 383.208 820.31 383.021 819.918 382.648C819.544 382.275 819.358 381.808 819.358 381.248C819.358 380.688 819.544 380.221 819.918 379.848C820.31 379.456 820.786 379.26 821.346 379.26C821.906 379.26 822.382 379.456 822.774 379.848C823.166 380.221 823.362 380.688 823.362 381.248C823.362 381.808 823.166 382.275 822.774 382.648C822.382 383.021 821.906 383.208 821.346 383.208ZM819.554 385.56H823.138V399H819.554V385.56ZM831.641 399.42C830.036 399.42 828.72 399 827.693 398.16C826.667 397.301 826.153 396.153 826.153 394.716C826.153 393.223 826.639 392.056 827.609 391.216C828.58 390.376 829.943 389.956 831.697 389.956C833.396 389.956 834.861 390.301 836.093 390.992V390.628C836.093 389.676 835.795 388.985 835.197 388.556C834.619 388.127 833.676 387.912 832.369 387.912C831.548 387.912 830.736 387.996 829.933 388.164C829.131 388.313 828.421 388.528 827.805 388.808V386.036C828.365 385.775 829.112 385.56 830.045 385.392C830.997 385.224 831.912 385.14 832.789 385.14C835.123 385.14 836.849 385.644 837.969 386.652C839.089 387.641 839.649 389.023 839.649 390.796V399H836.317V397.684C835.739 398.244 835.076 398.673 834.329 398.972C833.601 399.271 832.705 399.42 831.641 399.42ZM832.509 396.844C833.293 396.844 834.003 396.695 834.637 396.396C835.272 396.079 835.757 395.649 836.093 395.108V393.624C835.067 392.896 833.891 392.532 832.565 392.532C830.68 392.532 829.737 393.26 829.737 394.716C829.737 395.425 829.971 395.957 830.437 396.312C830.923 396.667 831.613 396.844 832.509 396.844Z" fill="white"/>
<path d="M690.595 516.8L678.755 525.36V515.92L692.195 506.08H700.675V562H690.595V516.8ZM732.757 563.2C727.85 563.2 723.583 562.027 719.957 559.68C716.33 557.333 713.53 553.973 711.557 549.6C709.637 545.227 708.677 540.053 708.677 534.08C708.677 528.107 709.637 522.933 711.557 518.56C713.477 514.133 716.223 510.747 719.797 508.4C723.423 506.053 727.743 504.88 732.757 504.88C737.717 504.88 742.01 506.053 745.637 508.4C749.263 510.747 752.037 514.133 753.957 518.56C755.877 522.933 756.837 528.107 756.837 534.08C756.837 540.053 755.877 545.227 753.957 549.6C752.037 553.973 749.263 557.333 745.637 559.68C742.01 562.027 737.717 563.2 732.757 563.2ZM732.757 554.08C737.183 554.08 740.597 552.32 742.997 548.8C745.45 545.227 746.677 540.347 746.677 534.16C746.677 527.973 745.477 523.093 743.077 519.52C740.677 515.947 737.263 514.16 732.837 514.16C728.41 514.16 724.97 515.947 722.517 519.52C720.117 523.093 718.917 527.973 718.917 534.16C718.917 540.347 720.117 545.227 722.517 548.8C724.97 552.32 728.383 554.08 732.757 554.08ZM787.288 563.2C782.381 563.2 778.114 562.027 774.488 559.68C770.861 557.333 768.061 553.973 766.088 549.6C764.168 545.227 763.208 540.053 763.208 534.08C763.208 528.107 764.168 522.933 766.088 518.56C768.008 514.133 770.754 510.747 774.328 508.4C777.954 506.053 782.274 504.88 787.288 504.88C792.248 504.88 796.541 506.053 800.168 508.4C803.794 510.747 806.568 514.133 808.488 518.56C810.408 522.933 811.368 528.107 811.368 534.08C811.368 540.053 810.408 545.227 808.488 549.6C806.568 553.973 803.794 557.333 800.168 559.68C796.541 562.027 792.248 563.2 787.288 563.2ZM787.288 554.08C791.714 554.08 795.128 552.32 797.528 548.8C799.981 545.227 801.208 540.347 801.208 534.16C801.208 527.973 800.008 523.093 797.608 519.52C795.208 515.947 791.794 514.16 787.368 514.16C782.941 514.16 779.501 515.947 777.048 519.52C774.648 523.093 773.448 527.973 773.448 534.16C773.448 540.347 774.648 545.227 777.048 548.8C779.501 552.32 782.914 554.08 787.288 554.08ZM849.259 563.2C843.072 563.2 837.686 561.627 833.099 558.48C828.566 555.333 825.366 550.96 823.499 545.36H816.939V537.68H821.899C821.792 536.933 821.739 535.733 821.739 534.08C821.739 532.48 821.792 531.28 821.899 530.48H816.939V522.8H823.499C825.366 517.2 828.566 512.827 833.099 509.68C837.686 506.48 843.072 504.88 849.259 504.88C852.726 504.88 855.739 505.28 858.299 506.08C860.912 506.827 863.286 508 865.419 509.6V519.28C863.232 517.467 860.912 516.16 858.459 515.36C856.059 514.56 853.286 514.16 850.139 514.16C842.512 514.16 837.206 517.04 834.219 522.8H846.619V530.48H832.139C832.032 531.28 831.979 532.48 831.979 534.08C831.979 534.987 832.032 536.187 832.139 537.68H846.619V545.36H834.219C835.659 548.187 837.712 550.347 840.379 551.84C843.046 553.28 846.299 554 850.139 554C853.552 554 856.459 553.627 858.859 552.88C861.259 552.08 863.659 550.64 866.059 548.56V558.24C864.032 560.053 861.686 561.333 859.019 562.08C856.352 562.827 853.099 563.2 849.259 563.2Z" fill="white"/>
<path d="M690.595 516.8H691.595V514.843L690.009 515.99L690.595 516.8ZM678.755 525.36H677.755V527.317L679.341 526.17L678.755 525.36ZM678.755 515.92L678.164 515.113L677.755 515.413V515.92H678.755ZM692.195 506.08V505.08H691.868L691.604 505.273L692.195 506.08ZM700.675 506.08H701.675V505.08H700.675V506.08ZM700.675 562V563H701.675V562H700.675ZM690.595 562H689.595V563H690.595V562ZM690.009 515.99L678.169 524.55L679.341 526.17L691.181 517.61L690.009 515.99ZM679.755 525.36V515.92H677.755V525.36H679.755ZM679.345 516.727L692.785 506.887L691.604 505.273L678.164 515.113L679.345 516.727ZM692.195 507.08H700.675V505.08H692.195V507.08ZM699.675 506.08V562H701.675V506.08H699.675ZM700.675 561H690.595V563H700.675V561ZM691.595 562V516.8H689.595V562H691.595ZM719.957 559.68L719.413 560.52L719.957 559.68ZM711.557 549.6L710.641 550.002L710.645 550.011L711.557 549.6ZM711.557 518.56L712.472 518.962L712.474 518.958L711.557 518.56ZM719.797 508.4L719.253 507.56L719.248 507.564L719.797 508.4ZM745.637 508.4L745.093 509.24L745.637 508.4ZM753.957 518.56L753.039 518.958L753.041 518.962L753.957 518.56ZM753.957 549.6L753.041 549.198L753.957 549.6ZM745.637 559.68L746.18 560.52L745.637 559.68ZM742.997 548.8L742.172 548.234L742.17 548.237L742.997 548.8ZM743.077 519.52L742.246 520.078H742.246L743.077 519.52ZM722.517 519.52L721.692 518.954L721.686 518.962L722.517 519.52ZM722.517 548.8L721.686 549.358L721.691 549.365L721.696 549.372L722.517 548.8ZM732.757 562.2C728.016 562.2 723.943 561.069 720.5 558.84L719.413 560.52C723.223 562.985 727.684 564.2 732.757 564.2V562.2ZM720.5 558.84C717.052 556.61 714.371 553.407 712.468 549.189L710.645 550.011C712.688 554.54 715.608 558.057 719.413 560.52L720.5 558.84ZM712.472 549.198C710.62 544.979 709.677 539.949 709.677 534.08H707.677C707.677 540.158 708.653 545.474 710.641 550.002L712.472 549.198ZM709.677 534.08C709.677 528.211 710.62 523.181 712.472 518.962L710.641 518.158C708.653 522.686 707.677 528.002 707.677 534.08H709.677ZM712.474 518.958C714.327 514.686 716.955 511.462 720.345 509.236L719.248 507.564C715.491 510.031 712.626 513.58 710.639 518.162L712.474 518.958ZM720.34 509.24C723.78 507.014 727.904 505.88 732.757 505.88V503.88C727.582 503.88 723.066 505.093 719.253 507.56L720.34 509.24ZM732.757 505.88C737.553 505.88 741.651 507.012 745.093 509.24L746.18 507.56C742.368 505.094 737.88 503.88 732.757 503.88V505.88ZM745.093 509.24C748.535 511.467 751.188 514.69 753.039 518.958L754.874 518.162C752.885 513.576 749.991 510.026 746.18 507.56L745.093 509.24ZM753.041 518.962C754.893 523.181 755.837 528.211 755.837 534.08H757.837C757.837 528.002 756.86 522.686 754.872 518.158L753.041 518.962ZM755.837 534.08C755.837 539.949 754.893 544.979 753.041 549.198L754.872 550.002C756.86 545.474 757.837 540.158 757.837 534.08H755.837ZM753.041 549.198C751.191 553.412 748.539 556.611 745.093 558.84L746.18 560.52C749.988 558.056 752.882 554.535 754.872 550.002L753.041 549.198ZM745.093 558.84C741.651 561.068 737.553 562.2 732.757 562.2V564.2C737.88 564.2 742.368 562.986 746.18 560.52L745.093 558.84ZM732.757 555.08C737.498 555.08 741.228 553.169 743.823 549.363L742.17 548.237C739.965 551.471 736.868 553.08 732.757 553.08V555.08ZM743.821 549.366C746.428 545.569 747.677 540.466 747.677 534.16H745.677C745.677 540.227 744.472 544.884 742.172 548.234L743.821 549.366ZM747.677 534.16C747.677 527.858 746.456 522.758 743.907 518.962L742.246 520.078C744.497 523.429 745.677 528.089 745.677 534.16H747.677ZM743.907 518.962C741.315 515.103 737.585 513.16 732.837 513.16V515.16C736.941 515.16 740.038 516.79 742.246 520.078L743.907 518.962ZM732.837 513.16C728.089 513.16 724.337 515.102 721.692 518.954L723.341 520.086C725.603 516.791 728.731 515.16 732.837 515.16V513.16ZM721.686 518.962C719.137 522.758 717.917 527.858 717.917 534.16H719.917C719.917 528.089 721.096 523.429 723.347 520.078L721.686 518.962ZM717.917 534.16C717.917 540.462 719.137 545.562 721.686 549.358L723.347 548.242C721.096 544.891 719.917 540.231 719.917 534.16H717.917ZM721.696 549.372C724.341 553.166 728.064 555.08 732.757 555.08V553.08C728.703 553.08 725.599 551.474 723.337 548.228L721.696 549.372ZM774.488 559.68L773.945 560.52L774.488 559.68ZM766.088 549.6L765.172 550.002L765.176 550.011L766.088 549.6ZM766.088 518.56L767.003 518.962L767.005 518.958L766.088 518.56ZM774.328 508.4L773.785 507.56L773.779 507.564L774.328 508.4ZM800.168 508.4L799.625 509.24L800.168 508.4ZM808.488 518.56L807.57 518.958L807.572 518.962L808.488 518.56ZM808.488 549.6L807.572 549.198L808.488 549.6ZM800.168 559.68L800.711 560.52L800.168 559.68ZM797.528 548.8L796.703 548.234L796.702 548.237L797.528 548.8ZM797.608 519.52L796.778 520.078L797.608 519.52ZM777.048 519.52L776.223 518.954L776.218 518.962L777.048 519.52ZM777.048 548.8L776.218 549.358L776.222 549.365L776.227 549.372L777.048 548.8ZM787.288 562.2C782.547 562.2 778.475 561.069 775.031 558.84L773.945 560.52C777.754 562.985 782.215 564.2 787.288 564.2V562.2ZM775.031 558.84C771.583 556.61 768.903 553.407 766.999 549.189L765.176 550.011C767.22 554.54 770.139 558.057 773.945 560.52L775.031 558.84ZM767.003 549.198C765.151 544.979 764.208 539.949 764.208 534.08H762.208C762.208 540.158 763.184 545.474 765.172 550.002L767.003 549.198ZM764.208 534.08C764.208 528.211 765.151 523.181 767.003 518.962L765.172 518.158C763.184 522.686 762.208 528.002 762.208 534.08H764.208ZM767.005 518.958C768.858 514.686 771.487 511.462 774.877 509.236L773.779 507.564C770.022 510.031 767.158 513.58 765.17 518.162L767.005 518.958ZM774.871 509.24C778.311 507.014 782.436 505.88 787.288 505.88V503.88C782.113 503.88 777.598 505.093 773.785 507.56L774.871 509.24ZM787.288 505.88C792.084 505.88 796.183 507.012 799.625 509.24L800.711 507.56C796.9 505.094 792.411 503.88 787.288 503.88V505.88ZM799.625 509.24C803.067 511.467 805.719 514.69 807.57 518.958L809.405 518.162C807.416 513.576 804.522 510.026 800.711 507.56L799.625 509.24ZM807.572 518.962C809.424 523.181 810.368 528.211 810.368 534.08H812.368C812.368 528.002 811.391 522.686 809.403 518.158L807.572 518.962ZM810.368 534.08C810.368 539.949 809.424 544.979 807.572 549.198L809.403 550.002C811.391 545.474 812.368 540.158 812.368 534.08H810.368ZM807.572 549.198C805.722 553.412 803.07 556.611 799.625 558.84L800.711 560.52C804.519 558.056 807.413 554.535 809.403 550.002L807.572 549.198ZM799.625 558.84C796.183 561.068 792.084 562.2 787.288 562.2V564.2C792.411 564.2 796.9 562.986 800.711 560.52L799.625 558.84ZM787.288 555.08C792.03 555.08 795.759 553.169 798.354 549.363L796.702 548.237C794.496 551.471 791.399 553.08 787.288 553.08V555.08ZM798.352 549.366C800.959 545.569 802.208 540.466 802.208 534.16H800.208C800.208 540.227 799.003 544.884 796.703 548.234L798.352 549.366ZM802.208 534.16C802.208 527.858 800.987 522.758 798.438 518.962L796.778 520.078C799.028 523.429 800.208 528.089 800.208 534.16H802.208ZM798.438 518.962C795.846 515.103 792.116 513.16 787.368 513.16V515.16C791.473 515.16 794.57 516.79 796.778 520.078L798.438 518.962ZM787.368 513.16C782.62 513.16 778.868 515.102 776.223 518.954L777.872 520.086C780.134 516.791 783.262 515.16 787.368 515.16V513.16ZM776.218 518.962C773.668 522.758 772.448 527.858 772.448 534.16H774.448C774.448 528.089 775.627 523.429 777.878 520.078L776.218 518.962ZM772.448 534.16C772.448 540.462 773.668 545.562 776.218 549.358L777.878 548.242C775.627 544.891 774.448 540.231 774.448 534.16H772.448ZM776.227 549.372C778.872 553.166 782.595 555.08 787.288 555.08V553.08C783.234 553.08 780.13 551.474 777.868 548.228L776.227 549.372ZM833.099 558.48L832.529 559.302L832.533 559.305L833.099 558.48ZM823.499 545.36L824.448 545.044L824.22 544.36H823.499V545.36ZM816.939 545.36H815.939V546.36H816.939V545.36ZM816.939 537.68V536.68H815.939V537.68H816.939ZM821.899 537.68V538.68H823.052L822.889 537.539L821.899 537.68ZM821.899 530.48L822.89 530.612L823.041 529.48H821.899V530.48ZM816.939 530.48H815.939V531.48H816.939V530.48ZM816.939 522.8V521.8H815.939V522.8H816.939ZM823.499 522.8V523.8H824.22L824.448 523.116L823.499 522.8ZM833.099 509.68L833.669 510.501L833.671 510.5L833.099 509.68ZM858.299 506.08L858.001 507.034L858.013 507.038L858.024 507.042L858.299 506.08ZM865.419 509.6H866.419V509.1L866.019 508.8L865.419 509.6ZM865.419 519.28L864.781 520.05L866.419 521.408V519.28H865.419ZM858.459 515.36L858.143 516.309L858.149 516.311L858.459 515.36ZM834.219 522.8L833.331 522.34L832.574 523.8H834.219V522.8ZM846.619 522.8H847.619V521.8H846.619V522.8ZM846.619 530.48V531.48H847.619V530.48H846.619ZM832.139 530.48V529.48H831.264L831.148 530.348L832.139 530.48ZM832.139 537.68L831.142 537.751L831.208 538.68H832.139V537.68ZM846.619 537.68H847.619V536.68H846.619V537.68ZM846.619 545.36V546.36H847.619V545.36H846.619ZM834.219 545.36V544.36H832.587L833.328 545.814L834.219 545.36ZM840.379 551.84L839.89 552.713L839.897 552.716L839.904 552.72L840.379 551.84ZM858.859 552.88L859.156 553.835L859.166 553.832L859.175 553.829L858.859 552.88ZM866.059 548.56H867.059V546.37L865.404 547.804L866.059 548.56ZM866.059 558.24L866.726 558.985L867.059 558.687V558.24H866.059ZM859.019 562.08L859.289 563.043L859.019 562.08ZM849.259 562.2C843.251 562.2 838.066 560.675 833.665 557.655L832.533 559.305C837.305 562.578 842.894 564.2 849.259 564.2V562.2ZM833.669 557.659C829.326 554.644 826.251 550.454 824.448 545.044L822.55 545.676C824.48 551.466 827.805 556.023 832.529 559.301L833.669 557.659ZM823.499 544.36H816.939V546.36H823.499V544.36ZM817.939 545.36V537.68H815.939V545.36H817.939ZM816.939 538.68H821.899V536.68H816.939V538.68ZM822.889 537.539C822.793 536.867 822.739 535.728 822.739 534.08H820.739C820.739 535.739 820.792 536.999 820.909 537.821L822.889 537.539ZM822.739 534.08C822.739 532.49 822.793 531.344 822.89 530.612L820.908 530.348C820.792 531.216 820.739 532.47 820.739 534.08H822.739ZM821.899 529.48H816.939V531.48H821.899V529.48ZM817.939 530.48V522.8H815.939V530.48H817.939ZM816.939 523.8H823.499V521.8H816.939V523.8ZM824.448 523.116C826.251 517.706 829.326 513.516 833.669 510.501L832.529 508.859C827.805 512.137 824.48 516.694 822.55 522.484L824.448 523.116ZM833.671 510.5C838.072 507.43 843.254 505.88 849.259 505.88V503.88C842.89 503.88 837.299 505.53 832.527 508.86L833.671 510.5ZM849.259 505.88C852.653 505.88 855.561 506.272 858.001 507.034L858.597 505.126C855.917 504.288 852.799 503.88 849.259 503.88V505.88ZM858.024 507.042C860.523 507.755 862.785 508.875 864.819 510.4L866.019 508.8C863.786 507.125 861.302 505.898 858.574 505.118L858.024 507.042ZM864.419 509.6V519.28H866.419V509.6H864.419ZM866.057 518.51C863.783 516.625 861.354 515.252 858.769 514.409L858.149 516.311C860.471 517.068 862.681 518.309 864.781 520.05L866.057 518.51ZM858.775 514.411C856.252 513.57 853.368 513.16 850.139 513.16V515.16C853.203 515.16 855.866 515.55 858.143 516.309L858.775 514.411ZM850.139 513.16C846.202 513.16 842.795 513.903 839.962 515.441C837.12 516.984 834.909 519.296 833.331 522.34L835.107 523.26C836.515 520.544 838.452 518.536 840.916 517.199C843.389 515.857 846.449 515.16 850.139 515.16V513.16ZM834.219 523.8H846.619V521.8H834.219V523.8ZM845.619 522.8V530.48H847.619V522.8H845.619ZM846.619 529.48H832.139V531.48H846.619V529.48ZM831.148 530.348C831.032 531.216 830.979 532.47 830.979 534.08H832.979C832.979 532.49 833.033 531.344 833.13 530.612L831.148 530.348ZM830.979 534.08C830.979 535.021 831.034 536.247 831.142 537.751L833.137 537.609C833.031 536.126 832.979 534.953 832.979 534.08H830.979ZM832.139 538.68H846.619V536.68H832.139V538.68ZM845.619 537.68V545.36H847.619V537.68H845.619ZM846.619 544.36H834.219V546.36H846.619V544.36ZM833.328 545.814C834.854 548.81 837.044 551.119 839.89 552.713L840.868 550.967C838.38 549.575 836.464 547.564 835.11 544.906L833.328 545.814ZM839.904 552.72C842.75 554.257 846.177 555 850.139 555V553C846.422 553 843.341 552.303 840.854 550.96L839.904 552.72ZM850.139 555C853.62 555 856.632 554.62 859.156 553.835L858.562 551.925C856.286 552.633 853.485 553 850.139 553V555ZM859.175 553.829C861.727 552.978 864.239 551.46 866.714 549.316L865.404 547.804C863.079 549.82 860.791 551.182 858.543 551.931L859.175 553.829ZM865.059 548.56V558.24H867.059V548.56H865.059ZM865.392 557.495C863.482 559.204 861.272 560.411 858.749 561.117L859.289 563.043C862.1 562.256 864.583 560.902 866.726 558.985L865.392 557.495ZM858.749 561.117C856.197 561.832 853.04 562.2 849.259 562.2V564.2C853.158 564.2 856.508 563.822 859.289 563.043L858.749 561.117Z" fill="black"/>
<line x1="577" y1="607.5" x2="967" y2="607.5" stroke="white"/>
<rect x="683" y="592" width="178" height="32" rx="16" fill="white"/>
<path d="M718.981 604.684H716.027V603.214H723.713V604.684H720.759V613H718.981V604.684ZM728.98 613.21C728 613.21 727.113 613 726.32 612.58C725.536 612.151 724.915 611.549 724.458 610.774C724.01 609.999 723.786 609.113 723.786 608.114C723.786 607.115 724.01 606.229 724.458 605.454C724.915 604.679 725.536 604.077 726.32 603.648C727.113 603.219 728 603.004 728.98 603.004C729.95 603.004 730.828 603.219 731.612 603.648C732.405 604.077 733.026 604.679 733.474 605.454C733.931 606.229 734.16 607.115 734.16 608.114C734.16 609.113 733.931 609.999 733.474 610.774C733.026 611.539 732.405 612.137 731.612 612.566C730.828 612.995 729.95 613.21 728.98 613.21ZM728.98 611.6C729.605 611.6 730.174 611.46 730.688 611.18C731.201 610.891 731.607 610.485 731.906 609.962C732.214 609.43 732.368 608.814 732.368 608.114C732.368 607.423 732.218 606.817 731.92 606.294C731.621 605.762 731.215 605.351 730.702 605.062C730.188 604.773 729.614 604.628 728.98 604.628C728.345 604.628 727.766 604.773 727.244 605.062C726.73 605.351 726.324 605.762 726.026 606.294C725.727 606.817 725.578 607.423 725.578 608.114C725.578 608.814 725.727 609.43 726.026 609.962C726.334 610.485 726.744 610.891 727.258 611.18C727.78 611.46 728.354 611.6 728.98 611.6ZM737.192 604.684H734.238V603.214H741.924V604.684H738.97V613H737.192V604.684ZM744.932 603.214H746.654L750.56 613H748.754L747.858 610.746H743.714L742.832 613H741.012L744.932 603.214ZM747.368 609.276L745.786 605.118L744.204 609.276H747.368ZM751.956 603.214H753.734V611.53H758.438V613H751.956V603.214ZM764.603 603.214H769.251C770.147 603.214 770.842 603.438 771.337 603.886C771.841 604.334 772.093 604.987 772.093 605.846C772.093 606.303 771.981 606.719 771.757 607.092C771.542 607.456 771.253 607.736 770.889 607.932C771.906 608.268 772.415 609.019 772.415 610.186C772.415 610.765 772.284 611.269 772.023 611.698C771.761 612.118 771.407 612.44 770.959 612.664C770.52 612.888 770.03 613 769.489 613H764.603V603.214ZM768.971 607.288C769.372 607.288 769.694 607.181 769.937 606.966C770.179 606.742 770.301 606.406 770.301 605.958C770.301 605.445 770.179 605.095 769.937 604.908C769.703 604.712 769.353 604.614 768.887 604.614H766.367V607.288H768.971ZM769.083 611.6C769.577 611.6 769.955 611.497 770.217 611.292C770.487 611.087 770.623 610.723 770.623 610.2C770.623 609.677 770.483 609.299 770.203 609.066C769.923 608.833 769.517 608.716 768.985 608.716H766.367V611.6H769.083ZM776.542 603.214H778.264L782.17 613H780.364L779.468 610.746H775.324L774.442 613H772.622L776.542 603.214ZM778.978 609.276L777.396 605.118L775.814 609.276H778.978ZM783.566 603.214H785.344V611.53H790.048V613H783.566V603.214ZM794.602 603.214H796.324L800.23 613H798.424L797.528 610.746H793.384L792.502 613H790.682L794.602 603.214ZM797.038 609.276L795.456 605.118L793.874 609.276H797.038ZM801.626 603.214H803.306L807.884 610.032V603.214H809.662V613H807.982L803.404 606.168V613H801.626V603.214ZM816.303 613.21C815.276 613.21 814.366 613.005 813.573 612.594C812.78 612.174 812.164 611.581 811.725 610.816C811.286 610.041 811.067 609.141 811.067 608.114C811.067 607.087 811.286 606.191 811.725 605.426C812.164 604.651 812.78 604.054 813.573 603.634C814.366 603.214 815.276 603.004 816.303 603.004C817.656 603.004 818.786 603.326 819.691 603.97V605.664C818.879 604.973 817.801 604.628 816.457 604.628C815.738 604.628 815.108 604.773 814.567 605.062C814.026 605.342 813.606 605.743 813.307 606.266C813.008 606.789 812.859 607.405 812.859 608.114C812.859 608.823 813.008 609.439 813.307 609.962C813.615 610.485 814.04 610.891 814.581 611.18C815.122 611.46 815.748 611.6 816.457 611.6C817.148 611.6 817.764 611.516 818.305 611.348C818.846 611.171 819.346 610.891 819.803 610.508V612.202C818.944 612.874 817.778 613.21 816.303 613.21ZM821.204 603.214H827.826V604.684H822.982V607.372H826.58V608.842H822.982V611.53H827.826V613H821.204V603.214Z" fill="black"/>
<rect x="776" y="430" width="152" height="32" rx="16" fill="white"/>
<rect x="609" y="424" width="326" height="45" rx="22.5" stroke="url(#paint0_linear_102_85)" stroke-width="3"/>
<path d="M829.21 452.21C828.631 452.21 828.057 452.154 827.488 452.042C826.928 451.939 826.466 451.799 826.102 451.622V450.096C826.569 450.32 827.059 450.488 827.572 450.6C828.085 450.712 828.589 450.768 829.084 450.768C829.709 450.768 830.185 450.651 830.512 450.418C830.839 450.185 831.002 449.863 831.002 449.452C831.002 449.163 830.927 448.925 830.778 448.738C830.629 448.542 830.409 448.374 830.12 448.234C829.831 448.085 829.387 447.893 828.79 447.66C827.875 447.287 827.213 446.871 826.802 446.414C826.391 445.957 826.186 445.387 826.186 444.706C826.186 444.174 826.331 443.703 826.62 443.292C826.909 442.881 827.315 442.564 827.838 442.34C828.361 442.116 828.963 442.004 829.644 442.004C830.204 442.004 830.699 442.051 831.128 442.144C831.567 442.228 831.996 442.363 832.416 442.55V444.034C831.604 443.642 830.783 443.446 829.952 443.446C829.355 443.446 828.893 443.558 828.566 443.782C828.239 443.997 828.076 444.305 828.076 444.706C828.076 444.995 828.151 445.233 828.3 445.42C828.449 445.597 828.645 445.751 828.888 445.882C829.14 446.003 829.588 446.199 830.232 446.47C830.885 446.741 831.399 447.007 831.772 447.268C832.155 447.529 832.439 447.837 832.626 448.192C832.822 448.537 832.92 448.962 832.92 449.466C832.92 450.334 832.607 451.011 831.982 451.496C831.357 451.972 830.433 452.21 829.21 452.21ZM837.336 442.214H839.058L842.964 452H841.158L840.262 449.746H836.118L835.236 452H833.416L837.336 442.214ZM839.772 448.276L838.19 444.118L836.608 448.276H839.772ZM842.194 442.214H844.084L846.968 449.62L849.866 442.214H851.742L847.836 452H846.114L842.194 442.214ZM853.138 442.214H854.916V452H853.138V442.214ZM856.597 442.214H858.277L862.855 449.032V442.214H864.633V452H862.953L858.375 445.168V452H856.597V442.214ZM871.274 452.21C870.247 452.21 869.337 452.005 868.544 451.594C867.75 451.174 867.134 450.581 866.696 449.816C866.257 449.041 866.038 448.141 866.038 447.114C866.038 446.087 866.257 445.191 866.696 444.426C867.134 443.651 867.75 443.054 868.544 442.634C869.337 442.214 870.247 442.004 871.274 442.004C871.974 442.004 872.599 442.079 873.15 442.228C873.7 442.377 874.2 442.615 874.648 442.942V444.636C874.237 444.281 873.766 444.025 873.234 443.866C872.702 443.707 872.1 443.628 871.428 443.628C870.756 443.628 870.144 443.773 869.594 444.062C869.052 444.342 868.623 444.748 868.306 445.28C867.988 445.803 867.83 446.414 867.83 447.114C867.83 447.823 867.979 448.444 868.278 448.976C868.576 449.499 868.992 449.905 869.524 450.194C870.056 450.474 870.662 450.614 871.344 450.614C872.062 450.614 872.655 450.493 873.122 450.25V448.052H871.47V446.638H874.9V451.202C874.032 451.874 872.823 452.21 871.274 452.21Z" fill="black"/>
<path d="M659.755 451.21C658.728 451.21 657.818 451.005 657.025 450.594C656.232 450.174 655.616 449.581 655.177 448.816C654.738 448.041 654.519 447.141 654.519 446.114C654.519 445.087 654.738 444.191 655.177 443.426C655.616 442.651 656.232 442.054 657.025 441.634C657.818 441.214 658.728 441.004 659.755 441.004C661.108 441.004 662.238 441.326 663.143 441.97V443.664C662.331 442.973 661.253 442.628 659.909 442.628C659.19 442.628 658.56 442.773 658.019 443.062C657.478 443.342 657.058 443.743 656.759 444.266C656.46 444.789 656.311 445.405 656.311 446.114C656.311 446.823 656.46 447.439 656.759 447.962C657.067 448.485 657.492 448.891 658.033 449.18C658.574 449.46 659.2 449.6 659.909 449.6C660.6 449.6 661.216 449.516 661.757 449.348C662.298 449.171 662.798 448.891 663.255 448.508V450.202C662.396 450.874 661.23 451.21 659.755 451.21ZM664.656 441.214H666.434V445.274H671.138V441.214H672.902V451H671.138V446.744H666.434V451H664.656V441.214ZM674.582 441.214H681.204V442.684H676.36V445.372H679.958V446.842H676.36V449.53H681.204V451H674.582V441.214ZM687.222 451.21C686.195 451.21 685.285 451.005 684.492 450.594C683.698 450.174 683.082 449.581 682.644 448.816C682.205 448.041 681.986 447.141 681.986 446.114C681.986 445.087 682.205 444.191 682.644 443.426C683.082 442.651 683.698 442.054 684.492 441.634C685.285 441.214 686.195 441.004 687.222 441.004C688.575 441.004 689.704 441.326 690.61 441.97V443.664C689.798 442.973 688.72 442.628 687.376 442.628C686.657 442.628 686.027 442.773 685.486 443.062C684.944 443.342 684.524 443.743 684.226 444.266C683.927 444.789 683.778 445.405 683.778 446.114C683.778 446.823 683.927 447.439 684.226 447.962C684.534 448.485 684.958 448.891 685.5 449.18C686.041 449.46 686.666 449.6 687.376 449.6C688.066 449.6 688.682 449.516 689.224 449.348C689.765 449.171 690.264 448.891 690.722 448.508V450.202C689.863 450.874 688.696 451.21 687.222 451.21ZM692.123 441.214H693.901V445.652L697.919 441.214H700.047L695.707 446.002L700.327 451H698.199L693.901 446.352V451H692.123V441.214ZM701.721 441.214H703.499V451H701.721V441.214ZM705.18 441.214H706.86L711.438 448.032V441.214H713.216V451H711.536L706.958 444.168V451H705.18V441.214ZM719.857 451.21C718.83 451.21 717.92 451.005 717.127 450.594C716.333 450.174 715.717 449.581 715.279 448.816C714.84 448.041 714.621 447.141 714.621 446.114C714.621 445.087 714.84 444.191 715.279 443.426C715.717 442.651 716.333 442.054 717.127 441.634C717.92 441.214 718.83 441.004 719.857 441.004C720.557 441.004 721.182 441.079 721.733 441.228C722.283 441.377 722.783 441.615 723.231 441.942V443.636C722.82 443.281 722.349 443.025 721.817 442.866C721.285 442.707 720.683 442.628 720.011 442.628C719.339 442.628 718.727 442.773 718.177 443.062C717.635 443.342 717.206 443.748 716.889 444.28C716.571 444.803 716.413 445.414 716.413 446.114C716.413 446.823 716.562 447.444 716.861 447.976C717.159 448.499 717.575 448.905 718.107 449.194C718.639 449.474 719.245 449.614 719.927 449.614C720.645 449.614 721.238 449.493 721.705 449.25V447.052H720.053V445.638H723.483V450.202C722.615 450.874 721.406 451.21 719.857 451.21Z" fill="white"/>
<rect x="609" y="910" width="326" height="63" rx="31.5" stroke="white" stroke-width="3"/>
<path d="M746.04 948.27C744.984 948.27 744.078 948.006 743.322 947.478C742.566 946.95 741.984 946.194 741.576 945.21C741.18 944.226 740.982 943.062 740.982 941.718C740.982 940.374 741.18 939.21 741.576 938.226C741.972 937.242 742.548 936.486 743.304 935.958C744.06 935.418 744.972 935.148 746.04 935.148C747.108 935.148 748.02 935.418 748.776 935.958C749.532 936.486 750.108 937.242 750.504 938.226C750.9 939.21 751.098 940.374 751.098 941.718C751.098 943.062 750.894 944.226 750.486 945.21C750.09 946.194 749.514 946.95 748.758 947.478C748.002 948.006 747.096 948.27 746.04 948.27ZM746.04 947.082C746.796 947.082 747.45 946.866 748.002 946.434C748.566 945.99 748.998 945.366 749.298 944.562C749.61 943.746 749.766 942.798 749.766 941.718C749.766 940.638 749.616 939.696 749.316 938.892C749.028 938.088 748.602 937.464 748.038 937.02C747.474 936.576 746.808 936.354 746.04 936.354C745.272 936.354 744.606 936.576 744.042 937.02C743.478 937.464 743.046 938.088 742.746 938.892C742.458 939.696 742.314 940.638 742.314 941.718C742.314 942.798 742.464 943.746 742.764 944.562C743.076 945.366 743.508 945.99 744.06 946.434C744.624 946.866 745.284 947.082 746.04 947.082Z" fill="white" fill-opacity="0.5"/>
<path d="M762.642 947.21C761.56 947.21 760.617 946.935 759.814 946.384C759.021 945.833 758.461 945.068 758.134 944.088H756.986V942.744H757.854C757.836 942.613 757.826 942.403 757.826 942.114C757.826 941.834 757.836 941.624 757.854 941.484H756.986V940.14H758.134C758.461 939.16 759.021 938.395 759.814 937.844C760.617 937.284 761.56 937.004 762.642 937.004C763.249 937.004 763.776 937.074 764.224 937.214C764.682 937.345 765.097 937.55 765.47 937.83V939.524C765.088 939.207 764.682 938.978 764.252 938.838C763.832 938.698 763.347 938.628 762.796 938.628C761.462 938.628 760.533 939.132 760.01 940.14H762.18V941.484H759.646C759.628 941.624 759.618 941.834 759.618 942.114C759.618 942.273 759.628 942.483 759.646 942.744H762.18V944.088H760.01C760.262 944.583 760.622 944.961 761.088 945.222C761.555 945.474 762.124 945.6 762.796 945.6C763.394 945.6 763.902 945.535 764.322 945.404C764.742 945.264 765.162 945.012 765.582 944.648V946.342C765.228 946.659 764.817 946.883 764.35 947.014C763.884 947.145 763.314 947.21 762.642 947.21Z" fill="white"/>
<rect x="783" y="910" width="152" height="63" rx="31.5" stroke="url(#paint1_linear_102_85)" stroke-width="3"/>
<path d="M815.627 937.308H811.829V935.418H821.711V937.308H817.913V948H815.627V937.308ZM828.482 948.27C827.222 948.27 826.082 948 825.062 947.46C824.054 946.908 823.256 946.134 822.668 945.138C822.092 944.142 821.804 943.002 821.804 941.718C821.804 940.434 822.092 939.294 822.668 938.298C823.256 937.302 824.054 936.528 825.062 935.976C826.082 935.424 827.222 935.148 828.482 935.148C829.73 935.148 830.858 935.424 831.866 935.976C832.886 936.528 833.684 937.302 834.26 938.298C834.848 939.294 835.142 940.434 835.142 941.718C835.142 943.002 834.848 944.142 834.26 945.138C833.684 946.122 832.886 946.89 831.866 947.442C830.858 947.994 829.73 948.27 828.482 948.27ZM828.482 946.2C829.286 946.2 830.018 946.02 830.678 945.66C831.338 945.288 831.86 944.766 832.244 944.094C832.64 943.41 832.838 942.618 832.838 941.718C832.838 940.83 832.646 940.05 832.262 939.378C831.878 938.694 831.356 938.166 830.696 937.794C830.036 937.422 829.298 937.236 828.482 937.236C827.666 937.236 826.922 937.422 826.25 937.794C825.59 938.166 825.068 938.694 824.684 939.378C824.3 940.05 824.108 940.83 824.108 941.718C824.108 942.618 824.3 943.41 824.684 944.094C825.08 944.766 825.608 945.288 826.268 945.66C826.94 946.02 827.678 946.2 828.482 946.2ZM847.069 948.27C846.325 948.27 845.587 948.198 844.855 948.054C844.135 947.922 843.541 947.742 843.073 947.514V945.552C843.673 945.84 844.303 946.056 844.963 946.2C845.623 946.344 846.271 946.416 846.907 946.416C847.711 946.416 848.323 946.266 848.743 945.966C849.163 945.666 849.373 945.252 849.373 944.724C849.373 944.352 849.277 944.046 849.085 943.806C848.893 943.554 848.611 943.338 848.239 943.158C847.867 942.966 847.297 942.72 846.529 942.42C845.353 941.94 844.501 941.406 843.973 940.818C843.445 940.23 843.181 939.498 843.181 938.622C843.181 937.938 843.367 937.332 843.739 936.804C844.111 936.276 844.633 935.868 845.305 935.58C845.977 935.292 846.751 935.148 847.627 935.148C848.347 935.148 848.983 935.208 849.535 935.328C850.099 935.436 850.651 935.61 851.191 935.85V937.758C850.147 937.254 849.091 937.002 848.023 937.002C847.255 937.002 846.661 937.146 846.241 937.434C845.821 937.71 845.611 938.106 845.611 938.622C845.611 938.994 845.707 939.3 845.899 939.54C846.091 939.768 846.343 939.966 846.655 940.134C846.979 940.29 847.555 940.542 848.383 940.89C849.223 941.238 849.883 941.58 850.363 941.916C850.855 942.252 851.221 942.648 851.461 943.104C851.713 943.548 851.839 944.094 851.839 944.742C851.839 945.858 851.437 946.728 850.633 947.352C849.829 947.964 848.641 948.27 847.069 948.27ZM857.518 935.418H859.732L864.754 948H862.432L861.28 945.102H855.952L854.818 948H852.478L857.518 935.418ZM860.65 943.212L858.616 937.866L856.582 943.212H860.65ZM863.763 935.418H866.193L869.901 944.94L873.627 935.418H876.039L871.017 948H868.803L863.763 935.418ZM877.834 935.418H880.12V948H877.834V935.418ZM882.281 935.418H884.441L890.327 944.184V935.418H892.613V948H890.453L884.567 939.216V948H882.281V935.418ZM901.151 948.27C899.831 948.27 898.661 948.006 897.641 947.478C896.621 946.938 895.829 946.176 895.265 945.192C894.701 944.196 894.419 943.038 894.419 941.718C894.419 940.398 894.701 939.246 895.265 938.262C895.829 937.266 896.621 936.498 897.641 935.958C898.661 935.418 899.831 935.148 901.151 935.148C902.051 935.148 902.855 935.244 903.563 935.436C904.271 935.628 904.913 935.934 905.489 936.354V938.532C904.961 938.076 904.355 937.746 903.671 937.542C902.987 937.338 902.213 937.236 901.349 937.236C900.485 937.236 899.699 937.422 898.991 937.794C898.295 938.154 897.743 938.676 897.335 939.36C896.927 940.032 896.723 940.818 896.723 941.718C896.723 942.63 896.915 943.428 897.299 944.112C897.683 944.784 898.217 945.306 898.901 945.678C899.585 946.038 900.365 946.218 901.241 946.218C902.165 946.218 902.927 946.062 903.527 945.75V942.924H901.403V941.106H905.813V946.974C904.697 947.838 903.143 948.27 901.151 948.27Z" fill="white"/>
<rect x="783" y="680" width="152" height="189" rx="31" stroke="white" stroke-width="3"/>
<path d="M899.04 722.27C897.984 722.27 897.078 722.006 896.322 721.478C895.566 720.95 894.984 720.194 894.576 719.21C894.18 718.226 893.982 717.062 893.982 715.718C893.982 714.374 894.18 713.21 894.576 712.226C894.972 711.242 895.548 710.486 896.304 709.958C897.06 709.418 897.972 709.148 899.04 709.148C900.108 709.148 901.02 709.418 901.776 709.958C902.532 710.486 903.108 711.242 903.504 712.226C903.9 713.21 904.098 714.374 904.098 715.718C904.098 717.062 903.894 718.226 903.486 719.21C903.09 720.194 902.514 720.95 901.758 721.478C901.002 722.006 900.096 722.27 899.04 722.27ZM899.04 721.082C899.796 721.082 900.45 720.866 901.002 720.434C901.566 719.99 901.998 719.366 902.298 718.562C902.61 717.746 902.766 716.798 902.766 715.718C902.766 714.638 902.616 713.696 902.316 712.892C902.028 712.088 901.602 711.464 901.038 711.02C900.474 710.576 899.808 710.354 899.04 710.354C898.272 710.354 897.606 710.576 897.042 711.02C896.478 711.464 896.046 712.088 895.746 712.892C895.458 713.696 895.314 714.638 895.314 715.718C895.314 716.798 895.464 717.746 895.764 718.562C896.076 719.366 896.508 719.99 897.06 720.434C897.624 720.866 898.284 721.082 899.04 721.082Z" fill="white" fill-opacity="0.5"/>
<path d="M915.642 721.21C914.56 721.21 913.617 720.935 912.814 720.384C912.021 719.833 911.461 719.068 911.134 718.088H909.986V716.744H910.854C910.836 716.613 910.826 716.403 910.826 716.114C910.826 715.834 910.836 715.624 910.854 715.484H909.986V714.14H911.134C911.461 713.16 912.021 712.395 912.814 711.844C913.617 711.284 914.56 711.004 915.642 711.004C916.249 711.004 916.776 711.074 917.224 711.214C917.682 711.345 918.097 711.55 918.47 711.83V713.524C918.088 713.207 917.682 712.978 917.252 712.838C916.832 712.698 916.347 712.628 915.796 712.628C914.462 712.628 913.533 713.132 913.01 714.14H915.18V715.484H912.646C912.628 715.624 912.618 715.834 912.618 716.114C912.618 716.273 912.628 716.483 912.646 716.744H915.18V718.088H913.01C913.262 718.583 913.622 718.961 914.088 719.222C914.555 719.474 915.124 719.6 915.796 719.6C916.394 719.6 916.902 719.535 917.322 719.404C917.742 719.264 918.162 719.012 918.582 718.648V720.342C918.228 720.659 917.817 720.883 917.35 721.014C916.884 721.145 916.314 721.21 915.642 721.21Z" fill="white"/>
<path d="M802 741.5H919" stroke="white" stroke-opacity="0.3"/>
<path d="M885.778 768.418H887.182V781H885.778V768.418ZM889.715 772.36H891.065V773.656C891.485 773.116 891.995 772.72 892.595 772.468C893.207 772.216 893.855 772.09 894.539 772.09C895.679 772.09 896.525 772.39 897.077 772.99C897.641 773.59 897.923 774.394 897.923 775.402V781H896.537V775.528C896.537 774.784 896.357 774.214 895.997 773.818C895.637 773.41 895.061 773.206 894.269 773.206C892.937 773.206 891.881 773.806 891.101 775.006V781H889.715V772.36ZM900.98 773.44H899.63V772.36H900.98V770.452C900.98 769.516 901.232 768.808 901.736 768.328C902.252 767.848 902.942 767.608 903.806 767.608C904.262 767.608 904.688 767.668 905.084 767.788V768.958C904.748 768.802 904.4 768.724 904.04 768.724C903.464 768.724 903.038 768.874 902.762 769.174C902.498 769.462 902.366 769.912 902.366 770.524V772.36H904.562V773.44H902.366V781H900.98V773.44ZM910.315 781.27C909.379 781.27 908.545 781.084 907.813 780.712C907.093 780.34 906.529 779.812 906.121 779.128C905.725 778.432 905.527 777.622 905.527 776.698C905.527 775.786 905.731 774.982 906.139 774.286C906.547 773.59 907.111 773.05 907.831 772.666C908.563 772.282 909.391 772.09 910.315 772.09C911.239 772.09 912.061 772.282 912.781 772.666C913.513 773.05 914.083 773.59 914.491 774.286C914.899 774.982 915.103 775.786 915.103 776.698C915.103 777.622 914.899 778.432 914.491 779.128C914.095 779.812 913.531 780.34 912.799 780.712C912.079 781.084 911.251 781.27 910.315 781.27ZM910.315 780.172C911.347 780.172 912.169 779.86 912.781 779.236C913.405 778.6 913.717 777.754 913.717 776.698C913.717 775.63 913.405 774.784 912.781 774.16C912.169 773.524 911.347 773.206 910.315 773.206C909.283 773.206 908.455 773.524 907.831 774.16C907.219 774.784 906.913 775.63 906.913 776.698C906.913 777.754 907.219 778.6 907.831 779.236C908.455 779.86 909.283 780.172 910.315 780.172Z" fill="white" fill-opacity="0.5"/>
<rect x="609" y="680" width="152" height="189" rx="31" stroke="white" stroke-width="3"/>
<path d="M725.04 722.27C723.984 722.27 723.078 722.006 722.322 721.478C721.566 720.95 720.984 720.194 720.576 719.21C720.18 718.226 719.982 717.062 719.982 715.718C719.982 714.374 720.18 713.21 720.576 712.226C720.972 711.242 721.548 710.486 722.304 709.958C723.06 709.418 723.972 709.148 725.04 709.148C726.108 709.148 727.02 709.418 727.776 709.958C728.532 710.486 729.108 711.242 729.504 712.226C729.9 713.21 730.098 714.374 730.098 715.718C730.098 717.062 729.894 718.226 729.486 719.21C729.09 720.194 728.514 720.95 727.758 721.478C727.002 722.006 726.096 722.27 725.04 722.27ZM725.04 721.082C725.796 721.082 726.45 720.866 727.002 720.434C727.566 719.99 727.998 719.366 728.298 718.562C728.61 717.746 728.766 716.798 728.766 715.718C728.766 714.638 728.616 713.696 728.316 712.892C728.028 712.088 727.602 711.464 727.038 711.02C726.474 710.576 725.808 710.354 725.04 710.354C724.272 710.354 723.606 710.576 723.042 711.02C722.478 711.464 722.046 712.088 721.746 712.892C721.458 713.696 721.314 714.638 721.314 715.718C721.314 716.798 721.464 717.746 721.764 718.562C722.076 719.366 722.508 719.99 723.06 720.434C723.624 720.866 724.284 721.082 725.04 721.082Z" fill="white" fill-opacity="0.5"/>
<path d="M741.642 721.21C740.56 721.21 739.617 720.935 738.814 720.384C738.021 719.833 737.461 719.068 737.134 718.088H735.986V716.744H736.854C736.836 716.613 736.826 716.403 736.826 716.114C736.826 715.834 736.836 715.624 736.854 715.484H735.986V714.14H737.134C737.461 713.16 738.021 712.395 738.814 711.844C739.617 711.284 740.56 711.004 741.642 711.004C742.249 711.004 742.776 711.074 743.224 711.214C743.682 711.345 744.097 711.55 744.47 711.83V713.524C744.088 713.207 743.682 712.978 743.252 712.838C742.832 712.698 742.347 712.628 741.796 712.628C740.462 712.628 739.533 713.132 739.01 714.14H741.18V715.484H738.646C738.628 715.624 738.618 715.834 738.618 716.114C738.618 716.273 738.628 716.483 738.646 716.744H741.18V718.088H739.01C739.262 718.583 739.622 718.961 740.088 719.222C740.555 719.474 741.124 719.6 741.796 719.6C742.394 719.6 742.902 719.535 743.322 719.404C743.742 719.264 744.162 719.012 744.582 718.648V720.342C744.228 720.659 743.817 720.883 743.35 721.014C742.884 721.145 742.314 721.21 741.642 721.21Z" fill="white"/>
<path d="M628 741.5H745" stroke="white" stroke-opacity="0.3"/>
<path d="M711.778 768.418H713.182V781H711.778V768.418ZM715.715 772.36H717.065V773.656C717.485 773.116 717.995 772.72 718.595 772.468C719.207 772.216 719.855 772.09 720.539 772.09C721.679 772.09 722.525 772.39 723.077 772.99C723.641 773.59 723.923 774.394 723.923 775.402V781H722.537V775.528C722.537 774.784 722.357 774.214 721.997 773.818C721.637 773.41 721.061 773.206 720.269 773.206C718.937 773.206 717.881 773.806 717.101 775.006V781H715.715V772.36ZM726.98 773.44H725.63V772.36H726.98V770.452C726.98 769.516 727.232 768.808 727.736 768.328C728.252 767.848 728.942 767.608 729.806 767.608C730.262 767.608 730.688 767.668 731.084 767.788V768.958C730.748 768.802 730.4 768.724 730.04 768.724C729.464 768.724 729.038 768.874 728.762 769.174C728.498 769.462 728.366 769.912 728.366 770.524V772.36H730.562V773.44H728.366V781H726.98V773.44ZM736.315 781.27C735.379 781.27 734.545 781.084 733.813 780.712C733.093 780.34 732.529 779.812 732.121 779.128C731.725 778.432 731.527 777.622 731.527 776.698C731.527 775.786 731.731 774.982 732.139 774.286C732.547 773.59 733.111 773.05 733.831 772.666C734.563 772.282 735.391 772.09 736.315 772.09C737.239 772.09 738.061 772.282 738.781 772.666C739.513 773.05 740.083 773.59 740.491 774.286C740.899 774.982 741.103 775.786 741.103 776.698C741.103 777.622 740.899 778.432 740.491 779.128C740.095 779.812 739.531 780.34 738.799 780.712C738.079 781.084 737.251 781.27 736.315 781.27ZM736.315 780.172C737.347 780.172 738.169 779.86 738.781 779.236C739.405 778.6 739.717 777.754 739.717 776.698C739.717 775.63 739.405 774.784 738.781 774.16C738.169 773.524 737.347 773.206 736.315 773.206C735.283 773.206 734.455 773.524 733.831 774.16C733.219 774.784 732.913 775.63 732.913 776.698C732.913 777.754 733.219 778.6 733.831 779.236C734.455 779.86 735.283 780.172 736.315 780.172Z" fill="white" fill-opacity="0.5"/>
<rect x="783" y="806" width="152" height="63" rx="31.5" stroke="url(#paint2_linear_102_85)" stroke-width="3"/>
<path d="M810.361 831.418H812.737L815.239 840.31L817.705 831.418H819.469L821.935 840.31L824.437 831.418H826.813L823.231 844H821.107L818.587 835.252L816.067 844H813.943L810.361 831.418ZM828.615 831.418H830.901V844H828.615V831.418ZM836.14 833.308H832.342V831.418H842.224V833.308H838.426V844H836.14V833.308ZM843.662 831.418H845.948V836.638H851.996V831.418H854.264V844H851.996V838.528H845.948V844H843.662V831.418ZM856.424 831.418H860.636C862.004 831.418 863.192 831.67 864.2 832.174C865.208 832.678 865.982 833.398 866.522 834.334C867.062 835.27 867.332 836.374 867.332 837.646C867.332 839.734 866.726 841.318 865.514 842.398C864.302 843.466 862.61 844 860.438 844H856.424V831.418ZM860.474 842.11C861.938 842.11 863.06 841.72 863.84 840.94C864.632 840.148 865.028 839.05 865.028 837.646C865.028 836.794 864.854 836.044 864.506 835.396C864.158 834.736 863.66 834.226 863.012 833.866C862.364 833.494 861.596 833.308 860.708 833.308H858.71V842.11H860.474ZM869.133 831.418H874.389C875.781 831.418 876.855 831.76 877.611 832.444C878.367 833.128 878.745 834.118 878.745 835.414C878.745 836.338 878.517 837.124 878.061 837.772C877.605 838.42 876.957 838.882 876.117 839.158L878.673 844H876.333L873.903 839.392H871.419V844H869.133V831.418ZM873.975 837.502C874.719 837.502 875.319 837.328 875.775 836.98C876.231 836.632 876.459 836.11 876.459 835.414C876.459 834.01 875.631 833.308 873.975 833.308H871.419V837.502H873.975ZM884.412 831.418H886.626L891.648 844H889.326L888.174 841.102H882.846L881.712 844H879.372L884.412 831.418ZM887.544 839.212L885.51 833.866L883.476 839.212H887.544ZM891.185 831.418H893.561L896.063 840.31L898.529 831.418H900.293L902.759 840.31L905.261 831.418H907.637L904.055 844H901.931L899.411 835.252L896.891 844H894.767L891.185 831.418Z" fill="white"/>
<rect x="609" y="806" width="152" height="63" rx="31.5" stroke="url(#paint3_linear_102_85)" stroke-width="3"/>
<path d="M649.465 831.418H653.677C655.045 831.418 656.233 831.67 657.241 832.174C658.249 832.678 659.023 833.398 659.563 834.334C660.103 835.27 660.373 836.374 660.373 837.646C660.373 839.734 659.767 841.318 658.555 842.398C657.343 843.466 655.651 844 653.479 844H649.465V831.418ZM653.515 842.11C654.979 842.11 656.101 841.72 656.881 840.94C657.673 840.148 658.069 839.05 658.069 837.646C658.069 836.794 657.895 836.044 657.547 835.396C657.199 834.736 656.701 834.226 656.053 833.866C655.405 833.494 654.637 833.308 653.749 833.308H651.751V842.11H653.515ZM662.174 831.418H670.688V833.308H664.46V836.764H669.086V838.654H664.46V842.11H670.688V844H662.174V831.418ZM672.316 831.418H677.356C678.736 831.418 679.84 831.784 680.668 832.516C681.508 833.248 681.928 834.25 681.928 835.522C681.928 836.842 681.514 837.85 680.686 838.546C679.858 839.23 678.742 839.572 677.338 839.572H674.602V844H672.316V831.418ZM677.068 837.682C678.784 837.682 679.642 836.962 679.642 835.522C679.642 834.046 678.784 833.308 677.068 833.308H674.602V837.682H677.068ZM689.427 844.27C688.167 844.27 687.027 844 686.007 843.46C684.999 842.908 684.201 842.134 683.613 841.138C683.037 840.142 682.749 839.002 682.749 837.718C682.749 836.434 683.037 835.294 683.613 834.298C684.201 833.302 684.999 832.528 686.007 831.976C687.027 831.424 688.167 831.148 689.427 831.148C690.675 831.148 691.803 831.424 692.811 831.976C693.831 832.528 694.629 833.302 695.205 834.298C695.793 835.294 696.087 836.434 696.087 837.718C696.087 839.002 695.793 840.142 695.205 841.138C694.629 842.122 693.831 842.89 692.811 843.442C691.803 843.994 690.675 844.27 689.427 844.27ZM689.427 842.2C690.231 842.2 690.963 842.02 691.623 841.66C692.283 841.288 692.805 840.766 693.189 840.094C693.585 839.41 693.783 838.618 693.783 837.718C693.783 836.83 693.591 836.05 693.207 835.378C692.823 834.694 692.301 834.166 691.641 833.794C690.981 833.422 690.243 833.236 689.427 833.236C688.611 833.236 687.867 833.422 687.195 833.794C686.535 834.166 686.013 834.694 685.629 835.378C685.245 836.05 685.053 836.83 685.053 837.718C685.053 838.618 685.245 839.41 685.629 840.094C686.025 840.766 686.553 841.288 687.213 841.66C687.885 842.02 688.623 842.2 689.427 842.2ZM701.071 844.27C700.327 844.27 699.589 844.198 698.857 844.054C698.137 843.922 697.543 843.742 697.075 843.514V841.552C697.675 841.84 698.305 842.056 698.965 842.2C699.625 842.344 700.273 842.416 700.909 842.416C701.713 842.416 702.325 842.266 702.745 841.966C703.165 841.666 703.375 841.252 703.375 840.724C703.375 840.352 703.279 840.046 703.087 839.806C702.895 839.554 702.613 839.338 702.241 839.158C701.869 838.966 701.299 838.72 700.531 838.42C699.355 837.94 698.503 837.406 697.975 836.818C697.447 836.23 697.183 835.498 697.183 834.622C697.183 833.938 697.369 833.332 697.741 832.804C698.113 832.276 698.635 831.868 699.307 831.58C699.979 831.292 700.753 831.148 701.629 831.148C702.349 831.148 702.985 831.208 703.537 831.328C704.101 831.436 704.653 831.61 705.193 831.85V833.758C704.149 833.254 703.093 833.002 702.025 833.002C701.257 833.002 700.663 833.146 700.243 833.434C699.823 833.71 699.613 834.106 699.613 834.622C699.613 834.994 699.709 835.3 699.901 835.54C700.093 835.768 700.345 835.966 700.657 836.134C700.981 836.29 701.557 836.542 702.385 836.89C703.225 837.238 703.885 837.58 704.365 837.916C704.857 838.252 705.223 838.648 705.464 839.104C705.715 839.548 705.841 840.094 705.841 840.742C705.841 841.858 705.439 842.728 704.635 843.352C703.831 843.964 702.643 844.27 701.071 844.27ZM707.648 831.418H709.934V844H707.648V831.418ZM715.174 833.308H711.376V831.418H721.258V833.308H717.46V844H715.174V833.308Z" fill="white"/>
</g>
<g filter="url(#filter1_d_102_85)">
<rect x="140" y="140" width="390" height="814" rx="40" fill="black"/>
<path d="M140 331H530V914C530 936.091 512.091 954 490 954H180C157.909 954 140 936.091 140 914V331Z" fill="url(#paint4_radial_102_85)" fill-opacity="0.5"/>
<path d="M140 331H530V914C530 936.091 512.091 954 490 954H180C157.909 954 140 936.091 140 914V331Z" fill="url(#paint5_radial_102_85)" fill-opacity="0.5"/>
<g clip-path="url(#clip1_102_85)">
<path d="M221.073 494.768H216V522.783H234.499V518.575H221.073V494.768Z" fill="white"/>
<path d="M252.46 504.227C250.683 503.328 248.711 502.888 246.721 502.946C243.311 502.946 240.688 503.867 238.852 505.709C237.016 507.551 236.098 510.054 236.098 513.22C236.098 516.43 237.137 518.929 239.215 520.719C241.293 522.508 244.118 523.402 247.69 523.402C249.11 523.4 250.528 523.278 251.927 523.038C253.122 522.861 254.293 522.554 255.42 522.121V518.229C254.336 518.64 253.212 518.938 252.067 519.116C250.824 519.324 249.567 519.43 248.307 519.431C243.703 519.431 241.227 518.002 240.88 515.145H257.224V512.819C257.252 511.056 256.836 509.314 256.013 507.755C255.206 506.25 253.969 505.022 252.46 504.227ZM240.892 511.684C240.89 511.02 241.032 510.364 241.308 509.762C241.584 509.159 241.987 508.623 242.49 508.192C243.678 507.283 245.151 506.828 246.643 506.911C248.153 506.812 249.65 507.242 250.88 508.126C251.397 508.554 251.812 509.093 252.093 509.704C252.374 510.314 252.514 510.981 252.502 511.653L240.892 511.684Z" fill="white"/>
<path d="M278.769 505.43C276.953 503.774 274.475 502.946 271.335 502.946C269.514 502.915 267.717 503.363 266.123 504.246C264.609 505.1 263.363 506.362 262.527 507.889C261.672 509.538 261.225 511.37 261.225 513.229C261.225 515.088 261.672 516.92 262.527 518.569C263.365 520.075 264.612 521.311 266.123 522.133C267.724 522.994 269.519 523.428 271.335 523.396C272.762 523.429 274.182 523.205 275.53 522.734C276.794 522.237 277.948 521.494 278.926 520.549V522.795H283.769V493.183H278.738L278.769 505.43ZM278.769 515.145C278.343 516.417 277.514 517.515 276.408 518.272C275.282 519.049 273.942 519.454 272.576 519.431C271.753 519.461 270.932 519.324 270.162 519.029C269.393 518.733 268.69 518.286 268.096 517.713C267.51 517.126 267.051 516.424 266.749 515.651C266.447 514.878 266.308 514.05 266.341 513.22C266.305 512.387 266.442 511.556 266.742 510.779C267.042 510.003 267.5 509.296 268.085 508.705C268.671 508.115 269.372 507.652 270.145 507.346C270.918 507.04 271.746 506.899 272.576 506.929C273.951 506.911 275.297 507.325 276.426 508.113C277.533 508.873 278.357 509.979 278.769 511.259V515.145Z" fill="white"/>
<path d="M306.294 505.788C305.314 504.847 304.16 504.106 302.898 503.608C301.55 503.137 300.129 502.913 298.703 502.946C296.886 502.914 295.092 503.349 293.491 504.209C291.978 505.03 290.731 506.266 289.895 507.773C289.034 509.421 288.585 511.253 288.585 513.114C288.585 514.974 289.034 516.806 289.895 518.454C290.752 519.992 292.026 521.255 293.569 522.097C295.187 522.977 297.002 523.427 298.842 523.402C300.212 523.417 301.575 523.212 302.88 522.795C304.078 522.408 305.181 521.773 306.118 520.931V522.145C306.118 524.092 305.604 525.562 304.575 526.554C303.546 527.545 301.867 528.037 299.538 528.029C297.125 528.071 294.729 527.607 292.504 526.669V530.676C293.526 531.129 294.599 531.453 295.7 531.642C296.966 531.879 298.251 531.999 299.538 532C303.481 532 306.403 531.097 308.304 529.292C310.204 527.487 311.157 524.93 311.161 521.623V503.547H306.288L306.294 505.788ZM306.136 515.09C305.724 516.37 304.9 517.476 303.794 518.235C302.665 519.022 301.318 519.433 299.944 519.413C299.117 519.442 298.292 519.301 297.522 518.998C296.752 518.695 296.051 518.237 295.464 517.652C294.88 517.057 294.423 516.348 294.121 515.569C293.819 514.79 293.679 513.958 293.709 513.123C293.677 512.294 293.816 511.467 294.118 510.695C294.42 509.923 294.879 509.222 295.464 508.636C296.057 508.062 296.76 507.613 297.529 507.317C298.299 507.021 299.12 506.883 299.944 506.911C301.311 506.891 302.65 507.298 303.776 508.077C304.883 508.832 305.712 509.931 306.136 511.204V515.09Z" fill="white"/>
<path d="M332.324 504.227C330.549 503.329 328.578 502.888 326.591 502.946C323.177 502.946 320.554 503.867 318.722 505.709C316.889 507.551 315.969 510.054 315.961 513.22C315.961 516.43 317 518.929 319.079 520.719C321.157 522.508 323.982 523.402 327.554 523.402C328.974 523.4 330.391 523.278 331.791 523.038C332.985 522.861 334.156 522.554 335.284 522.121V518.229C334.2 518.64 333.076 518.938 331.93 519.116C330.69 519.324 329.435 519.43 328.177 519.431C323.564 519.431 321.086 518.002 320.743 515.145H337.088V512.819C337.116 511.056 336.699 509.314 335.877 507.755C335.07 506.25 333.832 505.022 332.324 504.227ZM320.756 511.684C320.753 511.02 320.895 510.364 321.171 509.762C321.447 509.159 321.851 508.623 322.354 508.192C323.541 507.283 325.014 506.828 326.506 506.911C328.016 506.815 329.513 507.244 330.744 508.126C331.259 508.555 331.672 509.095 331.951 509.705C332.231 510.316 332.371 510.982 332.36 511.653L320.756 511.684Z" fill="white"/>
<path d="M346.755 506.632V503.547H341.912V522.783H346.949V511.119C347.235 510.474 347.645 509.893 348.157 509.409C348.668 508.924 349.27 508.546 349.927 508.296C351.535 507.659 353.254 507.351 354.982 507.391V503.547C353.318 503.52 351.662 503.777 350.085 504.306C348.765 504.724 347.603 505.535 346.755 506.632Z" fill="white"/>
<path d="M375.11 504.227C373.564 503.368 371.822 502.927 370.055 502.946C368.143 502.933 366.257 503.394 364.565 504.288C362.931 505.121 361.627 506.484 360.866 508.156V493.183H359.752V522.801H360.866V518.272C361.717 519.87 363.007 521.191 364.583 522.079C366.255 522.983 368.132 523.439 370.031 523.402C371.788 523.424 373.521 522.995 375.067 522.158C376.589 521.337 377.849 520.102 378.699 518.593C379.621 516.956 380.087 515.1 380.049 513.22C380.089 511.346 379.636 509.495 378.736 507.852C377.887 506.329 376.631 505.074 375.11 504.227ZM377.81 518.077C377.044 519.435 375.916 520.552 374.553 521.301C373.177 522.066 371.628 522.46 370.055 522.443C367.992 522.494 365.963 521.907 364.244 520.761C362.609 519.639 361.415 517.982 360.866 516.074V510.384C361.378 508.452 362.572 506.771 364.226 505.654C365.946 504.493 367.981 503.891 370.055 503.93C371.627 503.917 373.176 504.31 374.553 505.071C375.923 505.832 377.051 506.964 377.81 508.338C378.632 509.833 379.05 511.519 379.02 513.226C379.054 514.922 378.636 516.597 377.81 518.077Z" fill="white"/>
<path d="M395.667 502.946C394.594 502.951 393.524 503.058 392.471 503.268C391.515 503.442 390.578 503.71 389.675 504.07V505.071C391.578 504.297 393.613 503.901 395.667 503.906C398.119 503.906 399.905 504.416 401.001 505.43C402.096 506.444 402.659 507.992 402.659 510.081V513.323C400.207 511.955 397.431 511.277 394.626 511.362C389.566 511.362 387.035 513.386 387.035 517.434C386.988 518.282 387.147 519.128 387.5 519.901C387.852 520.673 388.386 521.348 389.057 521.866C390.401 522.89 392.205 523.404 394.469 523.408C398.279 523.408 401.049 522.18 402.78 519.723V522.807H403.779V510.117C403.779 505.341 401.075 502.95 395.667 502.946ZM402.659 518.332C401.975 519.65 400.889 520.713 399.56 521.368C398.08 522.11 396.443 522.481 394.79 522.449C392.526 522.449 390.837 522.018 389.735 521.15C389.184 520.709 388.745 520.142 388.457 519.497C388.168 518.851 388.038 518.146 388.076 517.44C388.076 515.732 388.583 514.456 389.596 513.615C390.607 512.777 392.284 512.352 394.626 512.352C396.066 512.333 397.503 512.488 398.906 512.813C400.215 513.155 401.476 513.661 402.659 514.319V518.332Z" fill="white"/>
<path d="M422.557 502.946C420.985 502.94 419.43 503.276 417.999 503.93C416.498 504.635 415.216 505.734 414.288 507.112V503.547H413.168V522.783H414.288V508.636C416.387 505.486 419.143 503.91 422.557 503.906C424.736 503.906 426.314 504.434 427.291 505.49C428.259 506.547 428.75 508.065 428.75 510.038V522.789H429.87V509.996C429.964 508.107 429.311 506.256 428.054 504.847C426.867 503.58 425.035 502.946 422.557 502.946Z" fill="white"/>
<path d="M441.771 513.165L452.122 503.547H450.524L440.372 513.044V493.165H439.259V522.783H440.372V513.287L451.402 522.783H453L441.771 513.165Z" fill="white"/>
<path d="M327.318 464.991L327.312 427L319.218 433.029L319.224 471.021L341.689 478.562L349.782 472.533L327.318 464.991Z" fill="white"/>
<path d="M347.04 461.124C347.875 458.762 346.574 456.102 344.122 454.821C343.938 454.73 343.748 454.651 343.553 454.584L336.083 451.894L335.986 459.927L343.202 462.356C343.202 462.356 346.15 463.571 347.04 461.124Z" fill="white"/>
<path d="M347.173 446.327C348.008 443.965 346.707 441.305 344.255 440.024C344.071 439.933 343.881 439.854 343.686 439.787L336.216 437.085L336.119 445.118L343.335 447.577C343.335 447.577 346.307 448.774 347.173 446.327Z" fill="white"/>
</g>
<path d="M274.591 653.428H278.287L282.179 667.26L286.015 653.428H288.759L292.595 667.26L296.487 653.428H300.183L294.611 673H291.307L287.387 659.392L283.467 673H280.163L274.591 653.428ZM308.441 673.42C305.94 673.42 303.961 672.795 302.505 671.544C301.049 670.293 300.321 668.548 300.321 666.308C300.321 664.105 300.965 662.36 302.253 661.072C303.541 659.784 305.38 659.14 307.769 659.14C309.337 659.14 310.672 659.439 311.773 660.036C312.893 660.633 313.733 661.455 314.293 662.5C314.853 663.527 315.133 664.703 315.133 666.028V667.652H303.681C303.924 669.649 305.66 670.648 308.889 670.648C309.748 670.648 310.625 670.573 311.521 670.424C312.417 670.275 313.201 670.069 313.873 669.808V672.524C313.239 672.785 312.417 673 311.409 673.168C310.42 673.336 309.431 673.42 308.441 673.42ZM311.801 665.244C311.764 664.18 311.381 663.359 310.653 662.78C309.944 662.201 308.964 661.912 307.713 661.912C306.481 661.912 305.511 662.211 304.801 662.808C304.092 663.405 303.719 664.217 303.681 665.244H311.801ZM317.944 652.308H321.472V673H317.944V652.308ZM332.142 673.42C330.574 673.42 329.193 673.14 327.998 672.58C326.822 672.02 325.908 671.208 325.254 670.144C324.601 669.08 324.274 667.801 324.274 666.308C324.274 664.815 324.601 663.536 325.254 662.472C325.926 661.389 326.85 660.568 328.026 660.008C329.221 659.429 330.612 659.14 332.198 659.14C334.289 659.14 335.96 659.551 337.21 660.372V663.2C335.997 662.341 334.448 661.912 332.562 661.912C331.125 661.912 329.977 662.276 329.118 663.004C328.278 663.713 327.858 664.815 327.858 666.308C327.858 667.783 328.278 668.875 329.118 669.584C329.977 670.293 331.106 670.648 332.506 670.648C334.392 670.648 336.016 670.2 337.378 669.304V672.104C336.706 672.552 335.941 672.879 335.082 673.084C334.242 673.308 333.262 673.42 332.142 673.42ZM347.072 673.42C345.504 673.42 344.123 673.14 342.928 672.58C341.752 672.001 340.837 671.18 340.184 670.116C339.531 669.033 339.204 667.755 339.204 666.28C339.204 664.843 339.521 663.592 340.156 662.528C340.809 661.445 341.733 660.615 342.928 660.036C344.123 659.439 345.504 659.14 347.072 659.14C348.64 659.14 350.012 659.439 351.188 660.036C352.383 660.615 353.307 661.445 353.96 662.528C354.613 663.592 354.94 664.843 354.94 666.28C354.94 667.755 354.613 669.033 353.96 670.116C353.307 671.18 352.383 672.001 351.188 672.58C350.012 673.14 348.64 673.42 347.072 673.42ZM347.072 670.648C348.36 670.648 349.387 670.247 350.152 669.444C350.917 668.623 351.3 667.568 351.3 666.28C351.3 664.917 350.917 663.853 350.152 663.088C349.405 662.304 348.379 661.912 347.072 661.912C345.765 661.912 344.729 662.304 343.964 663.088C343.217 663.853 342.844 664.917 342.844 666.28C342.844 667.568 343.227 668.623 343.992 669.444C344.757 670.247 345.784 670.648 347.072 670.648ZM357.729 659.56H361.033V661.324C361.63 660.615 362.33 660.073 363.133 659.7C363.935 659.327 364.747 659.14 365.569 659.14C366.614 659.14 367.454 659.317 368.089 659.672C368.723 660.008 369.199 660.521 369.517 661.212C370.114 660.54 370.833 660.027 371.673 659.672C372.531 659.317 373.381 659.14 374.221 659.14C375.901 659.14 377.105 659.56 377.833 660.4C378.561 661.24 378.925 662.472 378.925 664.096V673H375.537V664.572C375.537 663.62 375.341 662.939 374.949 662.528C374.575 662.117 373.969 661.912 373.129 661.912C372.531 661.912 371.981 662.033 371.477 662.276C370.991 662.5 370.543 662.892 370.133 663.452C370.17 664.049 370.189 664.535 370.189 664.908V673H366.773V664.516C366.773 663.545 366.614 662.873 366.297 662.5C365.979 662.108 365.401 661.912 364.561 661.912C363.291 661.912 362.153 662.631 361.145 664.068V673H357.729V659.56ZM389.707 673.42C387.205 673.42 385.227 672.795 383.771 671.544C382.315 670.293 381.587 668.548 381.587 666.308C381.587 664.105 382.231 662.36 383.519 661.072C384.807 659.784 386.645 659.14 389.035 659.14C390.603 659.14 391.937 659.439 393.039 660.036C394.159 660.633 394.999 661.455 395.559 662.5C396.119 663.527 396.399 664.703 396.399 666.028V667.652H384.947C385.189 669.649 386.925 670.648 390.155 670.648C391.013 670.648 391.891 670.573 392.787 670.424C393.683 670.275 394.467 670.069 395.139 669.808V672.524C394.504 672.785 393.683 673 392.675 673.168C391.685 673.336 390.696 673.42 389.707 673.42ZM393.067 665.244C393.029 664.18 392.647 663.359 391.919 662.78C391.209 662.201 390.229 661.912 388.979 661.912C387.747 661.912 386.776 662.211 386.067 662.808C385.357 663.405 384.984 664.217 384.947 665.244H393.067Z" fill="white"/>
</g>
<defs>
<filter id="filter0_d_102_85" x="437" y="96" width="670" height="1094" filterUnits="userSpaceOnUse" color-interpolation-filters="sRGB">
<feFlood flood-opacity="0" result="BackgroundImageFix"/>
<feColorMatrix in="SourceAlpha" type="matrix" values="0 0 0 0 0 0 0 0 0 0 0 0 0 0 0 0 0 0 127 0" result="hardAlpha"/>
<feOffset/>
<feGaussianBlur stdDeviation="70"/>
<feComposite in2="hardAlpha" operator="out"/>
<feColorMatrix type="matrix" values="0 0 0 0 0 0 0 0 0 0.82 0 0 0 0 1 0 0 0 0.5 0"/>
<feBlend mode="normal" in2="BackgroundImageFix" result="effect1_dropShadow_102_85"/>
<feBlend mode="normal" in="SourceGraphic" in2="effect1_dropShadow_102_85" result="shape"/>
</filter>
<filter id="filter1_d_102_85" x="0" y="0" width="670" height="1094" filterUnits="userSpaceOnUse" color-interpolation-filters="sRGB">
<feFlood flood-opacity="0" result="BackgroundImageFix"/>
<feColorMatrix in="SourceAlpha" type="matrix" values="0 0 0 0 0 0 0 0 0 0 0 0 0 0 0 0 0 0 127 0" result="hardAlpha"/>
<feOffset/>
<feGaussianBlur stdDeviation="70"/>
<feComposite in2="hardAlpha" operator="out"/>
<feColorMatrix type="matrix" values="0 0 0 0 0.68 0 0 0 0 0 0 0 0 0 1 0 0 0 0.5 0"/>
<feBlend mode="normal" in2="BackgroundImageFix" result="effect1_dropShadow_102_85"/>
<feBlend mode="normal" in="SourceGraphic" in2="effect1_dropShadow_102_85" result="shape"/>
</filter>
<linearGradient id="paint0_linear_102_85" x1="944" y1="331.857" x2="766.612" y2="636.217" gradientUnits="userSpaceOnUse">
<stop offset="0.114583" stop-color="#00D1FF"/>
<stop offset="0.510417" stop-color="white"/>
<stop offset="0.90625" stop-color="#AD00FF"/>
</linearGradient>
<linearGradient id="paint1_linear_102_85" x1="939.196" y1="781" x2="693.294" y2="921.515" gradientUnits="userSpaceOnUse">
<stop offset="0.114583" stop-color="#00D1FF"/>
<stop offset="0.510417" stop-color="white"/>
<stop offset="0.90625" stop-color="#AD00FF"/>
</linearGradient>
<linearGradient id="paint2_linear_102_85" x1="939.196" y1="677" x2="693.294" y2="817.515" gradientUnits="userSpaceOnUse">
<stop offset="0.114583" stop-color="#00D1FF"/>
<stop offset="0.510417" stop-color="white"/>
<stop offset="0.90625" stop-color="#AD00FF"/>
</linearGradient>
<linearGradient id="paint3_linear_102_85" x1="765.196" y1="677" x2="519.294" y2="817.515" gradientUnits="userSpaceOnUse">
<stop offset="0.114583" stop-color="#00D1FF"/>
<stop offset="0.510417" stop-color="white"/>
<stop offset="0.90625" stop-color="#AD00FF"/>
</linearGradient>
<radialGradient id="paint4_radial_102_85" cx="0" cy="0" r="1" gradientUnits="userSpaceOnUse" gradientTransform="translate(505.5 954) rotate(74.6714) scale(478.523 862.95)">
<stop stop-color="#AD00FF"/>
<stop offset="1" stop-opacity="0"/>
</radialGradient>
<radialGradient id="paint5_radial_102_85" cx="0" cy="0" r="1" gradientUnits="userSpaceOnUse" gradientTransform="translate(186.5 928.5) rotate(97.9463) scale(462.945 328.597)">
<stop stop-color="#00D1FF"/>
<stop offset="1" stop-opacity="0"/>
</radialGradient>
<clipPath id="clip0_102_85">
<rect width="25" height="42" fill="white" transform="translate(760 299)"/>
</clipPath>
<clipPath id="clip1_102_85">
<rect width="237" height="105" fill="white" transform="translate(216 427)"/>
</clipPath>
</defs>
</svg>
