<svg width="903" height="1051" viewBox="0 0 903 1051" fill="none" xmlns="http://www.w3.org/2000/svg">
<g filter="url(#filter0_d_213_141)">
<rect x="140.639" y="140" width="324.361" height="677" rx="40" fill="black"/>
<path d="M140.639 298.854H465V777C465 799.091 447.091 817 425 817H180.639C158.547 817 140.639 799.091 140.639 777V298.854Z" fill="url(#paint0_radial_213_141)" fill-opacity="0.5"/>
<path d="M140.639 298.854H465V777C465 799.091 447.091 817 425 817H180.639C158.547 817 140.639 799.091 140.639 777V298.854Z" fill="url(#paint1_radial_213_141)" fill-opacity="0.5"/>
<g clip-path="url(#clip0_213_141)">
<path d="M208.067 385.058H203.848V408.359H219.234V404.859H208.067V385.058Z" fill="white"/>
<path d="M234.171 392.926C232.694 392.178 231.053 391.812 229.399 391.861C226.562 391.861 224.381 392.627 222.854 394.158C221.326 395.69 220.563 397.772 220.563 400.405C220.563 403.075 221.427 405.154 223.156 406.642C224.884 408.13 227.234 408.874 230.204 408.874C231.385 408.872 232.564 408.77 233.728 408.571C234.722 408.424 235.696 408.168 236.633 407.808V404.571C235.732 404.913 234.797 405.161 233.844 405.309C232.811 405.482 231.765 405.57 230.718 405.571C226.888 405.571 224.829 404.383 224.54 402.006H238.134V400.072C238.157 398.605 237.811 397.157 237.127 395.86C236.455 394.609 235.426 393.587 234.171 392.926ZM224.55 399.128C224.548 398.576 224.666 398.03 224.896 397.529C225.125 397.027 225.461 396.582 225.879 396.224C226.867 395.467 228.092 395.089 229.333 395.158C230.589 395.076 231.834 395.433 232.857 396.168C233.288 396.524 233.632 396.973 233.866 397.481C234.1 397.989 234.216 398.543 234.207 399.102L224.55 399.128Z" fill="white"/>
<path d="M256.052 393.926C254.542 392.549 252.481 391.861 249.869 391.861C248.355 391.834 246.86 392.207 245.535 392.941C244.275 393.652 243.24 394.701 242.544 395.971C241.833 397.343 241.461 398.867 241.461 400.413C241.461 401.959 241.833 403.482 242.544 404.854C243.241 406.106 244.278 407.134 245.535 407.818C246.866 408.534 248.359 408.896 249.869 408.869C251.056 408.896 252.238 408.71 253.358 408.318C254.41 407.905 255.37 407.287 256.183 406.5V408.369H260.211V383.74H256.027L256.052 393.926ZM256.052 402.006C255.698 403.064 255.008 403.978 254.088 404.607C253.152 405.253 252.038 405.59 250.902 405.571C250.217 405.596 249.534 405.482 248.894 405.236C248.254 404.991 247.67 404.619 247.176 404.142C246.688 403.654 246.307 403.07 246.056 402.427C245.804 401.784 245.689 401.095 245.716 400.405C245.686 399.713 245.8 399.022 246.049 398.376C246.299 397.729 246.68 397.142 247.167 396.651C247.654 396.159 248.237 395.774 248.88 395.52C249.523 395.266 250.211 395.148 250.902 395.173C252.045 395.158 253.165 395.503 254.104 396.158C255.024 396.79 255.709 397.71 256.052 398.774V402.006Z" fill="white"/>
<path d="M278.945 394.224C278.13 393.441 277.17 392.825 276.12 392.411C274.999 392.02 273.818 391.833 272.631 391.861C271.121 391.834 269.628 392.196 268.296 392.911C267.038 393.593 266.001 394.622 265.306 395.875C264.59 397.246 264.216 398.77 264.216 400.317C264.216 401.864 264.59 403.388 265.306 404.758C266.019 406.038 267.078 407.088 268.362 407.788C269.707 408.521 271.217 408.894 272.747 408.874C273.886 408.886 275.02 408.716 276.105 408.369C277.101 408.047 278.019 407.519 278.799 406.819V407.829C278.799 409.448 278.371 410.67 277.515 411.495C276.659 412.32 275.263 412.729 273.326 412.722C271.319 412.756 269.326 412.371 267.476 411.591V414.924C268.325 415.3 269.218 415.57 270.134 415.727C271.187 415.924 272.255 416.023 273.326 416.025C276.605 416.025 279.035 415.274 280.616 413.772C282.197 412.271 282.989 410.145 282.992 407.394V392.361H278.94L278.945 394.224ZM278.814 401.961C278.471 403.025 277.786 403.945 276.865 404.576C275.926 405.23 274.806 405.573 273.663 405.556C272.975 405.58 272.29 405.463 271.649 405.211C271.008 404.959 270.426 404.578 269.938 404.092C269.452 403.596 269.072 403.007 268.821 402.359C268.569 401.711 268.453 401.019 268.478 400.324C268.451 399.635 268.567 398.948 268.818 398.305C269.07 397.663 269.451 397.08 269.938 396.593C270.431 396.115 271.015 395.742 271.655 395.496C272.295 395.25 272.978 395.135 273.663 395.158C274.8 395.141 275.914 395.48 276.85 396.128C277.771 396.756 278.461 397.67 278.814 398.729V401.961Z" fill="white"/>
<path d="M300.594 392.926C299.117 392.179 297.479 391.813 295.826 391.861C292.986 391.861 290.804 392.627 289.281 394.158C287.757 395.69 286.992 397.773 286.985 400.405C286.985 403.075 287.849 405.154 289.578 406.642C291.306 408.13 293.656 408.874 296.626 408.874C297.807 408.872 298.986 408.771 300.15 408.571C301.144 408.424 302.118 408.168 303.055 407.808V404.571C302.154 404.914 301.219 405.161 300.266 405.309C299.235 405.482 298.191 405.57 297.145 405.571C293.308 405.571 291.248 404.383 290.962 402.006H304.556V400.072C304.579 398.605 304.233 397.157 303.549 395.86C302.877 394.609 301.848 393.587 300.594 392.926ZM290.972 399.128C290.971 398.576 291.089 398.03 291.318 397.529C291.548 397.028 291.883 396.582 292.301 396.224C293.289 395.467 294.514 395.089 295.755 395.158C297.011 395.078 298.256 395.435 299.279 396.168C299.708 396.525 300.051 396.974 300.284 397.482C300.517 397.99 300.633 398.544 300.624 399.102L290.972 399.128Z" fill="white"/>
<path d="M312.596 394.926V392.361H308.568V408.359H312.757V398.658C312.995 398.122 313.337 397.638 313.762 397.235C314.187 396.832 314.687 396.518 315.234 396.31C316.572 395.78 318.001 395.524 319.438 395.557V392.361C318.055 392.338 316.677 392.551 315.365 392.992C314.267 393.339 313.301 394.014 312.596 394.926Z" fill="white"/>
<path d="M336.179 392.926C334.893 392.212 333.444 391.845 331.975 391.861C330.384 391.85 328.816 392.233 327.408 392.977C326.05 393.669 324.965 394.803 324.332 396.194V383.74H323.406V408.374H324.332V404.607C325.04 405.936 326.113 407.035 327.423 407.773C328.814 408.525 330.375 408.904 331.954 408.874C333.416 408.892 334.857 408.535 336.143 407.839C337.409 407.157 338.456 406.129 339.164 404.874C339.93 403.512 340.318 401.969 340.287 400.405C340.32 398.847 339.943 397.307 339.194 395.941C338.488 394.674 337.444 393.63 336.179 392.926ZM338.424 404.445C337.788 405.574 336.849 406.503 335.715 407.127C334.571 407.763 333.282 408.09 331.975 408.076C330.259 408.118 328.571 407.63 327.141 406.677C325.782 405.744 324.789 404.366 324.332 402.779V398.047C324.758 396.439 325.751 395.042 327.126 394.113C328.557 393.147 330.25 392.646 331.975 392.679C333.282 392.668 334.57 392.995 335.715 393.628C336.855 394.261 337.793 395.202 338.424 396.345C339.108 397.589 339.455 398.99 339.431 400.41C339.459 401.821 339.111 403.214 338.424 404.445Z" fill="white"/>
<path d="M353.276 391.861C352.384 391.864 351.493 391.954 350.618 392.128C349.823 392.273 349.043 392.496 348.292 392.795V393.628C349.875 392.984 351.568 392.655 353.276 392.659C355.315 392.659 356.801 393.083 357.712 393.926C358.623 394.769 359.091 396.057 359.091 397.794V400.491C357.052 399.353 354.743 398.79 352.41 398.86C348.201 398.86 346.097 400.543 346.097 403.91C346.058 404.615 346.19 405.319 346.483 405.962C346.776 406.604 347.221 407.165 347.778 407.596C348.896 408.448 350.396 408.876 352.279 408.879C355.448 408.879 357.752 407.857 359.192 405.814V408.379H360.023V397.825C360.023 393.852 357.774 391.864 353.276 391.861ZM359.091 404.657C358.522 405.753 357.619 406.637 356.514 407.182C355.283 407.799 353.922 408.107 352.546 408.081C350.663 408.081 349.259 407.722 348.342 407C347.884 406.634 347.519 406.162 347.279 405.626C347.039 405.089 346.931 404.502 346.963 403.915C346.963 402.494 347.384 401.434 348.227 400.733C349.067 400.037 350.462 399.683 352.41 399.683C353.608 399.667 354.803 399.796 355.97 400.067C357.059 400.351 358.107 400.772 359.091 401.319V404.657Z" fill="white"/>
<path d="M375.64 391.861C374.332 391.856 373.039 392.135 371.849 392.679C370.601 393.265 369.534 394.179 368.763 395.325V392.361H367.831V408.359H368.763V396.593C370.508 393.973 372.801 392.662 375.64 392.659C377.453 392.659 378.765 393.098 379.577 393.977C380.383 394.855 380.791 396.118 380.791 397.759V408.364H381.722V397.724C381.8 396.152 381.258 394.614 380.212 393.441C379.225 392.388 377.701 391.861 375.64 391.861Z" fill="white"/>
<path d="M391.62 400.36L400.229 392.361H398.9L390.457 400.259V383.725H389.531V408.359H390.457V400.461L399.63 408.359H400.959L391.62 400.36Z" fill="white"/>
<path d="M296.43 360.294L296.425 328.697L289.694 333.711L289.699 365.308L308.382 371.58L315.114 366.566L296.43 360.294Z" fill="white"/>
<path d="M312.833 357.077C313.528 355.113 312.445 352.901 310.406 351.835C310.253 351.759 310.095 351.693 309.933 351.638L303.72 349.401L303.64 356.082L309.641 358.102C309.641 358.102 312.093 359.112 312.833 357.077Z" fill="white"/>
<path d="M312.944 344.77C313.638 342.806 312.556 340.594 310.517 339.529C310.364 339.453 310.206 339.387 310.044 339.332L303.831 337.084L303.75 343.765L309.752 345.811C309.752 345.811 312.224 346.806 312.944 344.77Z" fill="white"/>
</g>
<path d="M242.326 518.771H246.022L249.914 532.603L253.75 518.771H256.494L260.33 532.603L264.222 518.771H267.918L262.346 538.343H259.042L255.122 524.735L251.202 538.343H247.898L242.326 518.771ZM276.176 538.763C273.675 538.763 271.696 538.137 270.24 536.887C268.784 535.636 268.056 533.891 268.056 531.651C268.056 529.448 268.7 527.703 269.988 526.415C271.276 525.127 273.115 524.483 275.504 524.483C277.072 524.483 278.407 524.781 279.508 525.379C280.628 525.976 281.468 526.797 282.028 527.843C282.588 528.869 282.868 530.045 282.868 531.371V532.995H271.416C271.659 534.992 273.395 535.991 276.624 535.991C277.483 535.991 278.36 535.916 279.256 535.767C280.152 535.617 280.936 535.412 281.608 535.151V537.867C280.974 538.128 280.152 538.343 279.144 538.511C278.155 538.679 277.166 538.763 276.176 538.763ZM279.536 530.587C279.499 529.523 279.116 528.701 278.388 528.123C277.679 527.544 276.699 527.255 275.448 527.255C274.216 527.255 273.246 527.553 272.536 528.151C271.827 528.748 271.454 529.56 271.416 530.587H279.536ZM285.679 517.651H289.207V538.343H285.679V517.651ZM299.877 538.763C298.309 538.763 296.928 538.483 295.733 537.923C294.557 537.363 293.643 536.551 292.989 535.487C292.336 534.423 292.009 533.144 292.009 531.651C292.009 530.157 292.336 528.879 292.989 527.815C293.661 526.732 294.585 525.911 295.761 525.351C296.956 524.772 298.347 524.483 299.933 524.483C302.024 524.483 303.695 524.893 304.945 525.715V528.543C303.732 527.684 302.183 527.255 300.297 527.255C298.86 527.255 297.712 527.619 296.853 528.347C296.013 529.056 295.593 530.157 295.593 531.651C295.593 533.125 296.013 534.217 296.853 534.927C297.712 535.636 298.841 535.991 300.241 535.991C302.127 535.991 303.751 535.543 305.113 534.647V537.447C304.441 537.895 303.676 538.221 302.817 538.427C301.977 538.651 300.997 538.763 299.877 538.763ZM314.807 538.763C313.239 538.763 311.858 538.483 310.663 537.923C309.487 537.344 308.573 536.523 307.919 535.459C307.266 534.376 306.939 533.097 306.939 531.623C306.939 530.185 307.257 528.935 307.891 527.871C308.545 526.788 309.469 525.957 310.663 525.379C311.858 524.781 313.239 524.483 314.807 524.483C316.375 524.483 317.747 524.781 318.923 525.379C320.118 525.957 321.042 526.788 321.695 527.871C322.349 528.935 322.675 530.185 322.675 531.623C322.675 533.097 322.349 534.376 321.695 535.459C321.042 536.523 320.118 537.344 318.923 537.923C317.747 538.483 316.375 538.763 314.807 538.763ZM314.807 535.991C316.095 535.991 317.122 535.589 317.887 534.787C318.653 533.965 319.035 532.911 319.035 531.623C319.035 530.26 318.653 529.196 317.887 528.431C317.141 527.647 316.114 527.255 314.807 527.255C313.501 527.255 312.465 527.647 311.699 528.431C310.953 529.196 310.579 530.26 310.579 531.623C310.579 532.911 310.962 533.965 311.727 534.787C312.493 535.589 313.519 535.991 314.807 535.991ZM325.464 524.903H328.768V526.667C329.365 525.957 330.065 525.416 330.868 525.043C331.671 524.669 332.483 524.483 333.304 524.483C334.349 524.483 335.189 524.66 335.824 525.015C336.459 525.351 336.935 525.864 337.252 526.555C337.849 525.883 338.568 525.369 339.408 525.015C340.267 524.66 341.116 524.483 341.956 524.483C343.636 524.483 344.84 524.903 345.568 525.743C346.296 526.583 346.66 527.815 346.66 529.439V538.343H343.272V529.915C343.272 528.963 343.076 528.281 342.684 527.871C342.311 527.46 341.704 527.255 340.864 527.255C340.267 527.255 339.716 527.376 339.212 527.619C338.727 527.843 338.279 528.235 337.868 528.795C337.905 529.392 337.924 529.877 337.924 530.251V538.343H334.508V529.859C334.508 528.888 334.349 528.216 334.032 527.843C333.715 527.451 333.136 527.255 332.296 527.255C331.027 527.255 329.888 527.973 328.88 529.411V538.343H325.464V524.903ZM357.442 538.763C354.941 538.763 352.962 538.137 351.506 536.887C350.05 535.636 349.322 533.891 349.322 531.651C349.322 529.448 349.966 527.703 351.254 526.415C352.542 525.127 354.381 524.483 356.77 524.483C358.338 524.483 359.673 524.781 360.774 525.379C361.894 525.976 362.734 526.797 363.294 527.843C363.854 528.869 364.134 530.045 364.134 531.371V532.995H352.682C352.925 534.992 354.661 535.991 357.89 535.991C358.749 535.991 359.626 535.916 360.522 535.767C361.418 535.617 362.202 535.412 362.874 535.151V537.867C362.239 538.128 361.418 538.343 360.41 538.511C359.421 538.679 358.431 538.763 357.442 538.763ZM360.802 530.587C360.765 529.523 360.382 528.701 359.654 528.123C358.945 527.544 357.965 527.255 356.714 527.255C355.482 527.255 354.511 527.553 353.802 528.151C353.093 528.748 352.719 529.56 352.682 530.587H360.802Z" fill="white"/>
</g>
<g filter="url(#filter1_d_213_141)">
<rect x="431" y="332" width="326" height="45" rx="22.5" fill="black" stroke="url(#paint2_linear_213_141)" stroke-width="3"/>
<rect x="598" y="338" width="152" height="32" rx="16" fill="white"/>
<path d="M651.21 360.21C650.631 360.21 650.057 360.154 649.488 360.042C648.928 359.939 648.466 359.799 648.102 359.622V358.096C648.569 358.32 649.059 358.488 649.572 358.6C650.085 358.712 650.589 358.768 651.084 358.768C651.709 358.768 652.185 358.651 652.512 358.418C652.839 358.185 653.002 357.863 653.002 357.452C653.002 357.163 652.927 356.925 652.778 356.738C652.629 356.542 652.409 356.374 652.12 356.234C651.831 356.085 651.387 355.893 650.79 355.66C649.875 355.287 649.213 354.871 648.802 354.414C648.391 353.957 648.186 353.387 648.186 352.706C648.186 352.174 648.331 351.703 648.62 351.292C648.909 350.881 649.315 350.564 649.838 350.34C650.361 350.116 650.963 350.004 651.644 350.004C652.204 350.004 652.699 350.051 653.128 350.144C653.567 350.228 653.996 350.363 654.416 350.55V352.034C653.604 351.642 652.783 351.446 651.952 351.446C651.355 351.446 650.893 351.558 650.566 351.782C650.239 351.997 650.076 352.305 650.076 352.706C650.076 352.995 650.151 353.233 650.3 353.42C650.449 353.597 650.645 353.751 650.888 353.882C651.14 354.003 651.588 354.199 652.232 354.47C652.885 354.741 653.399 355.007 653.772 355.268C654.155 355.529 654.439 355.837 654.626 356.192C654.822 356.537 654.92 356.962 654.92 357.466C654.92 358.334 654.607 359.011 653.982 359.496C653.357 359.972 652.433 360.21 651.21 360.21ZM659.336 350.214H661.058L664.964 360H663.158L662.262 357.746H658.118L657.236 360H655.416L659.336 350.214ZM661.772 356.276L660.19 352.118L658.608 356.276H661.772ZM664.194 350.214H666.084L668.968 357.62L671.866 350.214H673.742L669.836 360H668.114L664.194 350.214ZM675.138 350.214H676.916V360H675.138V350.214ZM678.597 350.214H680.277L684.855 357.032V350.214H686.633V360H684.953L680.375 353.168V360H678.597V350.214ZM693.274 360.21C692.247 360.21 691.337 360.005 690.544 359.594C689.75 359.174 689.134 358.581 688.696 357.816C688.257 357.041 688.038 356.141 688.038 355.114C688.038 354.087 688.257 353.191 688.696 352.426C689.134 351.651 689.75 351.054 690.544 350.634C691.337 350.214 692.247 350.004 693.274 350.004C693.974 350.004 694.599 350.079 695.15 350.228C695.7 350.377 696.2 350.615 696.648 350.942V352.636C696.237 352.281 695.766 352.025 695.234 351.866C694.702 351.707 694.1 351.628 693.428 351.628C692.756 351.628 692.144 351.773 691.594 352.062C691.052 352.342 690.623 352.748 690.306 353.28C689.988 353.803 689.83 354.414 689.83 355.114C689.83 355.823 689.979 356.444 690.278 356.976C690.576 357.499 690.992 357.905 691.524 358.194C692.056 358.474 692.662 358.614 693.344 358.614C694.062 358.614 694.655 358.493 695.122 358.25V356.052H693.47V354.638H696.9V359.202C696.032 359.874 694.823 360.21 693.274 360.21Z" fill="black"/>
<path d="M481.755 359.21C480.728 359.21 479.818 359.005 479.025 358.594C478.232 358.174 477.616 357.581 477.177 356.816C476.738 356.041 476.519 355.141 476.519 354.114C476.519 353.087 476.738 352.191 477.177 351.426C477.616 350.651 478.232 350.054 479.025 349.634C479.818 349.214 480.728 349.004 481.755 349.004C483.108 349.004 484.238 349.326 485.143 349.97V351.664C484.331 350.973 483.253 350.628 481.909 350.628C481.19 350.628 480.56 350.773 480.019 351.062C479.478 351.342 479.058 351.743 478.759 352.266C478.46 352.789 478.311 353.405 478.311 354.114C478.311 354.823 478.46 355.439 478.759 355.962C479.067 356.485 479.492 356.891 480.033 357.18C480.574 357.46 481.2 357.6 481.909 357.6C482.6 357.6 483.216 357.516 483.757 357.348C484.298 357.171 484.798 356.891 485.255 356.508V358.202C484.396 358.874 483.23 359.21 481.755 359.21ZM486.656 349.214H488.434V353.274H493.138V349.214H494.902V359H493.138V354.744H488.434V359H486.656V349.214ZM496.582 349.214H503.204V350.684H498.36V353.372H501.958V354.842H498.36V357.53H503.204V359H496.582V349.214ZM509.222 359.21C508.195 359.21 507.285 359.005 506.492 358.594C505.698 358.174 505.082 357.581 504.644 356.816C504.205 356.041 503.986 355.141 503.986 354.114C503.986 353.087 504.205 352.191 504.644 351.426C505.082 350.651 505.698 350.054 506.492 349.634C507.285 349.214 508.195 349.004 509.222 349.004C510.575 349.004 511.704 349.326 512.61 349.97V351.664C511.798 350.973 510.72 350.628 509.376 350.628C508.657 350.628 508.027 350.773 507.486 351.062C506.944 351.342 506.524 351.743 506.226 352.266C505.927 352.789 505.778 353.405 505.778 354.114C505.778 354.823 505.927 355.439 506.226 355.962C506.534 356.485 506.958 356.891 507.5 357.18C508.041 357.46 508.666 357.6 509.376 357.6C510.066 357.6 510.682 357.516 511.224 357.348C511.765 357.171 512.264 356.891 512.722 356.508V358.202C511.863 358.874 510.696 359.21 509.222 359.21ZM514.123 349.214H515.901V353.652L519.919 349.214H522.047L517.707 354.002L522.327 359H520.199L515.901 354.352V359H514.123V349.214ZM523.721 349.214H525.499V359H523.721V349.214ZM527.18 349.214H528.86L533.438 356.032V349.214H535.216V359H533.536L528.958 352.168V359H527.18V349.214ZM541.857 359.21C540.83 359.21 539.92 359.005 539.127 358.594C538.333 358.174 537.717 357.581 537.279 356.816C536.84 356.041 536.621 355.141 536.621 354.114C536.621 353.087 536.84 352.191 537.279 351.426C537.717 350.651 538.333 350.054 539.127 349.634C539.92 349.214 540.83 349.004 541.857 349.004C542.557 349.004 543.182 349.079 543.733 349.228C544.283 349.377 544.783 349.615 545.231 349.942V351.636C544.82 351.281 544.349 351.025 543.817 350.866C543.285 350.707 542.683 350.628 542.011 350.628C541.339 350.628 540.727 350.773 540.177 351.062C539.635 351.342 539.206 351.748 538.889 352.28C538.571 352.803 538.413 353.414 538.413 354.114C538.413 354.823 538.562 355.444 538.861 355.976C539.159 356.499 539.575 356.905 540.107 357.194C540.639 357.474 541.245 357.614 541.927 357.614C542.645 357.614 543.238 357.493 543.705 357.25V355.052H542.053V353.638H545.483V358.202C544.615 358.874 543.406 359.21 541.857 359.21Z" fill="white"/>
<rect x="431" y="673" width="326" height="63" rx="31.5" fill="black" stroke="white" stroke-width="3"/>
<path d="M568.04 711.27C566.984 711.27 566.078 711.006 565.322 710.478C564.566 709.95 563.984 709.194 563.576 708.21C563.18 707.226 562.982 706.062 562.982 704.718C562.982 703.374 563.18 702.21 563.576 701.226C563.972 700.242 564.548 699.486 565.304 698.958C566.06 698.418 566.972 698.148 568.04 698.148C569.108 698.148 570.02 698.418 570.776 698.958C571.532 699.486 572.108 700.242 572.504 701.226C572.9 702.21 573.098 703.374 573.098 704.718C573.098 706.062 572.894 707.226 572.486 708.21C572.09 709.194 571.514 709.95 570.758 710.478C570.002 711.006 569.096 711.27 568.04 711.27ZM568.04 710.082C568.796 710.082 569.45 709.866 570.002 709.434C570.566 708.99 570.998 708.366 571.298 707.562C571.61 706.746 571.766 705.798 571.766 704.718C571.766 703.638 571.616 702.696 571.316 701.892C571.028 701.088 570.602 700.464 570.038 700.02C569.474 699.576 568.808 699.354 568.04 699.354C567.272 699.354 566.606 699.576 566.042 700.02C565.478 700.464 565.046 701.088 564.746 701.892C564.458 702.696 564.314 703.638 564.314 704.718C564.314 705.798 564.464 706.746 564.764 707.562C565.076 708.366 565.508 708.99 566.06 709.434C566.624 709.866 567.284 710.082 568.04 710.082Z" fill="white" fill-opacity="0.5"/>
<path d="M584.642 710.21C583.56 710.21 582.617 709.935 581.814 709.384C581.021 708.833 580.461 708.068 580.134 707.088H578.986V705.744H579.854C579.836 705.613 579.826 705.403 579.826 705.114C579.826 704.834 579.836 704.624 579.854 704.484H578.986V703.14H580.134C580.461 702.16 581.021 701.395 581.814 700.844C582.617 700.284 583.56 700.004 584.642 700.004C585.249 700.004 585.776 700.074 586.224 700.214C586.682 700.345 587.097 700.55 587.47 700.83V702.524C587.088 702.207 586.682 701.978 586.252 701.838C585.832 701.698 585.347 701.628 584.796 701.628C583.462 701.628 582.533 702.132 582.01 703.14H584.18V704.484H581.646C581.628 704.624 581.618 704.834 581.618 705.114C581.618 705.273 581.628 705.483 581.646 705.744H584.18V707.088H582.01C582.262 707.583 582.622 707.961 583.088 708.222C583.555 708.474 584.124 708.6 584.796 708.6C585.394 708.6 585.902 708.535 586.322 708.404C586.742 708.264 587.162 708.012 587.582 707.648V709.342C587.228 709.659 586.817 709.883 586.35 710.014C585.884 710.145 585.314 710.21 584.642 710.21Z" fill="white"/>
<rect x="605" y="673" width="152" height="63" rx="31.5" stroke="url(#paint3_linear_213_141)" stroke-width="3"/>
<path d="M637.627 700.308H633.829V698.418H643.711V700.308H639.913V711H637.627V700.308ZM650.482 711.27C649.222 711.27 648.082 711 647.062 710.46C646.054 709.908 645.256 709.134 644.668 708.138C644.092 707.142 643.804 706.002 643.804 704.718C643.804 703.434 644.092 702.294 644.668 701.298C645.256 700.302 646.054 699.528 647.062 698.976C648.082 698.424 649.222 698.148 650.482 698.148C651.73 698.148 652.858 698.424 653.866 698.976C654.886 699.528 655.684 700.302 656.26 701.298C656.848 702.294 657.142 703.434 657.142 704.718C657.142 706.002 656.848 707.142 656.26 708.138C655.684 709.122 654.886 709.89 653.866 710.442C652.858 710.994 651.73 711.27 650.482 711.27ZM650.482 709.2C651.286 709.2 652.018 709.02 652.678 708.66C653.338 708.288 653.86 707.766 654.244 707.094C654.64 706.41 654.838 705.618 654.838 704.718C654.838 703.83 654.646 703.05 654.262 702.378C653.878 701.694 653.356 701.166 652.696 700.794C652.036 700.422 651.298 700.236 650.482 700.236C649.666 700.236 648.922 700.422 648.25 700.794C647.59 701.166 647.068 701.694 646.684 702.378C646.3 703.05 646.108 703.83 646.108 704.718C646.108 705.618 646.3 706.41 646.684 707.094C647.08 707.766 647.608 708.288 648.268 708.66C648.94 709.02 649.678 709.2 650.482 709.2ZM669.07 711.27C668.326 711.27 667.588 711.198 666.856 711.054C666.136 710.922 665.542 710.742 665.074 710.514V708.552C665.674 708.84 666.304 709.056 666.964 709.2C667.624 709.344 668.272 709.416 668.908 709.416C669.712 709.416 670.324 709.266 670.744 708.966C671.164 708.666 671.374 708.252 671.374 707.724C671.374 707.352 671.278 707.046 671.086 706.806C670.894 706.554 670.612 706.338 670.24 706.158C669.868 705.966 669.298 705.72 668.53 705.42C667.354 704.94 666.502 704.406 665.974 703.818C665.446 703.23 665.182 702.498 665.182 701.622C665.182 700.938 665.368 700.332 665.74 699.804C666.112 699.276 666.634 698.868 667.306 698.58C667.978 698.292 668.752 698.148 669.628 698.148C670.348 698.148 670.984 698.208 671.536 698.328C672.1 698.436 672.652 698.61 673.192 698.85V700.758C672.148 700.254 671.092 700.002 670.024 700.002C669.256 700.002 668.662 700.146 668.242 700.434C667.822 700.71 667.612 701.106 667.612 701.622C667.612 701.994 667.708 702.3 667.9 702.54C668.092 702.768 668.344 702.966 668.656 703.134C668.98 703.29 669.556 703.542 670.384 703.89C671.224 704.238 671.884 704.58 672.364 704.916C672.856 705.252 673.222 705.648 673.462 706.104C673.714 706.548 673.84 707.094 673.84 707.742C673.84 708.858 673.438 709.728 672.634 710.352C671.83 710.964 670.642 711.27 669.07 711.27ZM679.518 698.418H681.732L686.754 711H684.432L683.28 708.102H677.952L676.818 711H674.478L679.518 698.418ZM682.65 706.212L680.616 700.866L678.582 706.212H682.65ZM685.763 698.418H688.193L691.901 707.94L695.627 698.418H698.039L693.017 711H690.803L685.763 698.418ZM699.834 698.418H702.12V711H699.834V698.418ZM704.281 698.418H706.441L712.327 707.184V698.418H714.613V711H712.453L706.567 702.216V711H704.281V698.418ZM723.151 711.27C721.831 711.27 720.661 711.006 719.641 710.478C718.621 709.938 717.829 709.176 717.265 708.192C716.701 707.196 716.419 706.038 716.419 704.718C716.419 703.398 716.701 702.246 717.265 701.262C717.829 700.266 718.621 699.498 719.641 698.958C720.661 698.418 721.831 698.148 723.151 698.148C724.051 698.148 724.855 698.244 725.563 698.436C726.271 698.628 726.913 698.934 727.489 699.354V701.532C726.961 701.076 726.355 700.746 725.671 700.542C724.987 700.338 724.213 700.236 723.349 700.236C722.485 700.236 721.699 700.422 720.991 700.794C720.295 701.154 719.743 701.676 719.335 702.36C718.927 703.032 718.723 703.818 718.723 704.718C718.723 705.63 718.915 706.428 719.299 707.112C719.683 707.784 720.217 708.306 720.901 708.678C721.585 709.038 722.365 709.218 723.241 709.218C724.165 709.218 724.927 709.062 725.527 708.75V705.924H723.403V704.106H727.813V709.974C726.697 710.838 725.143 711.27 723.151 711.27Z" fill="white"/>
<rect x="605" y="451" width="152" height="189" rx="31" fill="black" stroke="white" stroke-width="3"/>
<path d="M721.04 493.27C719.984 493.27 719.078 493.006 718.322 492.478C717.566 491.95 716.984 491.194 716.576 490.21C716.18 489.226 715.982 488.062 715.982 486.718C715.982 485.374 716.18 484.21 716.576 483.226C716.972 482.242 717.548 481.486 718.304 480.958C719.06 480.418 719.972 480.148 721.04 480.148C722.108 480.148 723.02 480.418 723.776 480.958C724.532 481.486 725.108 482.242 725.504 483.226C725.9 484.21 726.098 485.374 726.098 486.718C726.098 488.062 725.894 489.226 725.486 490.21C725.09 491.194 724.514 491.95 723.758 492.478C723.002 493.006 722.096 493.27 721.04 493.27ZM721.04 492.082C721.796 492.082 722.45 491.866 723.002 491.434C723.566 490.99 723.998 490.366 724.298 489.562C724.61 488.746 724.766 487.798 724.766 486.718C724.766 485.638 724.616 484.696 724.316 483.892C724.028 483.088 723.602 482.464 723.038 482.02C722.474 481.576 721.808 481.354 721.04 481.354C720.272 481.354 719.606 481.576 719.042 482.02C718.478 482.464 718.046 483.088 717.746 483.892C717.458 484.696 717.314 485.638 717.314 486.718C717.314 487.798 717.464 488.746 717.764 489.562C718.076 490.366 718.508 490.99 719.06 491.434C719.624 491.866 720.284 492.082 721.04 492.082Z" fill="white" fill-opacity="0.5"/>
<path d="M737.642 492.21C736.56 492.21 735.617 491.935 734.814 491.384C734.021 490.833 733.461 490.068 733.134 489.088H731.986V487.744H732.854C732.836 487.613 732.826 487.403 732.826 487.114C732.826 486.834 732.836 486.624 732.854 486.484H731.986V485.14H733.134C733.461 484.16 734.021 483.395 734.814 482.844C735.617 482.284 736.56 482.004 737.642 482.004C738.249 482.004 738.776 482.074 739.224 482.214C739.682 482.345 740.097 482.55 740.47 482.83V484.524C740.088 484.207 739.682 483.978 739.252 483.838C738.832 483.698 738.347 483.628 737.796 483.628C736.462 483.628 735.533 484.132 735.01 485.14H737.18V486.484H734.646C734.628 486.624 734.618 486.834 734.618 487.114C734.618 487.273 734.628 487.483 734.646 487.744H737.18V489.088H735.01C735.262 489.583 735.622 489.961 736.088 490.222C736.555 490.474 737.124 490.6 737.796 490.6C738.394 490.6 738.902 490.535 739.322 490.404C739.742 490.264 740.162 490.012 740.582 489.648V491.342C740.228 491.659 739.817 491.883 739.35 492.014C738.884 492.145 738.314 492.21 737.642 492.21Z" fill="white"/>
<path d="M624 512.5H741" stroke="white" stroke-opacity="0.3"/>
<path d="M707.778 539.418H709.182V552H707.778V539.418ZM711.715 543.36H713.065V544.656C713.485 544.116 713.995 543.72 714.595 543.468C715.207 543.216 715.855 543.09 716.539 543.09C717.679 543.09 718.525 543.39 719.077 543.99C719.641 544.59 719.923 545.394 719.923 546.402V552H718.537V546.528C718.537 545.784 718.357 545.214 717.997 544.818C717.637 544.41 717.061 544.206 716.269 544.206C714.937 544.206 713.881 544.806 713.101 546.006V552H711.715V543.36ZM722.98 544.44H721.63V543.36H722.98V541.452C722.98 540.516 723.232 539.808 723.736 539.328C724.252 538.848 724.942 538.608 725.806 538.608C726.262 538.608 726.688 538.668 727.084 538.788V539.958C726.748 539.802 726.4 539.724 726.04 539.724C725.464 539.724 725.038 539.874 724.762 540.174C724.498 540.462 724.366 540.912 724.366 541.524V543.36H726.562V544.44H724.366V552H722.98V544.44ZM732.315 552.27C731.379 552.27 730.545 552.084 729.813 551.712C729.093 551.34 728.529 550.812 728.121 550.128C727.725 549.432 727.527 548.622 727.527 547.698C727.527 546.786 727.731 545.982 728.139 545.286C728.547 544.59 729.111 544.05 729.831 543.666C730.563 543.282 731.391 543.09 732.315 543.09C733.239 543.09 734.061 543.282 734.781 543.666C735.513 544.05 736.083 544.59 736.491 545.286C736.899 545.982 737.103 546.786 737.103 547.698C737.103 548.622 736.899 549.432 736.491 550.128C736.095 550.812 735.531 551.34 734.799 551.712C734.079 552.084 733.251 552.27 732.315 552.27ZM732.315 551.172C733.347 551.172 734.169 550.86 734.781 550.236C735.405 549.6 735.717 548.754 735.717 547.698C735.717 546.63 735.405 545.784 734.781 545.16C734.169 544.524 733.347 544.206 732.315 544.206C731.283 544.206 730.455 544.524 729.831 545.16C729.219 545.784 728.913 546.63 728.913 547.698C728.913 548.754 729.219 549.6 729.831 550.236C730.455 550.86 731.283 551.172 732.315 551.172Z" fill="white" fill-opacity="0.5"/>
<rect x="605" y="577" width="152" height="63" rx="31.5" stroke="url(#paint4_linear_213_141)" stroke-width="3"/>
<path d="M632.361 602.418H634.737L637.239 611.31L639.705 602.418H641.469L643.935 611.31L646.437 602.418H648.813L645.231 615H643.107L640.587 606.252L638.067 615H635.943L632.361 602.418ZM650.615 602.418H652.901V615H650.615V602.418ZM658.14 604.308H654.342V602.418H664.224V604.308H660.426V615H658.14V604.308ZM665.662 602.418H667.948V607.638H673.996V602.418H676.264V615H673.996V609.528H667.948V615H665.662V602.418ZM678.424 602.418H682.636C684.004 602.418 685.192 602.67 686.2 603.174C687.208 603.678 687.982 604.398 688.522 605.334C689.062 606.27 689.332 607.374 689.332 608.646C689.332 610.734 688.726 612.318 687.514 613.398C686.302 614.466 684.61 615 682.438 615H678.424V602.418ZM682.474 613.11C683.938 613.11 685.06 612.72 685.84 611.94C686.632 611.148 687.028 610.05 687.028 608.646C687.028 607.794 686.854 607.044 686.506 606.396C686.158 605.736 685.66 605.226 685.012 604.866C684.364 604.494 683.596 604.308 682.708 604.308H680.71V613.11H682.474ZM691.133 602.418H696.389C697.781 602.418 698.855 602.76 699.611 603.444C700.367 604.128 700.745 605.118 700.745 606.414C700.745 607.338 700.517 608.124 700.061 608.772C699.605 609.42 698.957 609.882 698.117 610.158L700.673 615H698.333L695.903 610.392H693.419V615H691.133V602.418ZM695.975 608.502C696.719 608.502 697.319 608.328 697.775 607.98C698.231 607.632 698.459 607.11 698.459 606.414C698.459 605.01 697.631 604.308 695.975 604.308H693.419V608.502H695.975ZM706.412 602.418H708.626L713.648 615H711.326L710.174 612.102H704.846L703.712 615H701.372L706.412 602.418ZM709.544 610.212L707.51 604.866L705.476 610.212H709.544ZM713.185 602.418H715.561L718.063 611.31L720.529 602.418H722.293L724.759 611.31L727.261 602.418H729.637L726.055 615H723.931L721.411 606.252L718.891 615H716.767L713.185 602.418Z" fill="white"/>
<rect x="431" y="414" width="152" height="189" rx="31" fill="black" stroke="white" stroke-width="3"/>
<path d="M547.04 456.27C545.984 456.27 545.078 456.006 544.322 455.478C543.566 454.95 542.984 454.194 542.576 453.21C542.18 452.226 541.982 451.062 541.982 449.718C541.982 448.374 542.18 447.21 542.576 446.226C542.972 445.242 543.548 444.486 544.304 443.958C545.06 443.418 545.972 443.148 547.04 443.148C548.108 443.148 549.02 443.418 549.776 443.958C550.532 444.486 551.108 445.242 551.504 446.226C551.9 447.21 552.098 448.374 552.098 449.718C552.098 451.062 551.894 452.226 551.486 453.21C551.09 454.194 550.514 454.95 549.758 455.478C549.002 456.006 548.096 456.27 547.04 456.27ZM547.04 455.082C547.796 455.082 548.45 454.866 549.002 454.434C549.566 453.99 549.998 453.366 550.298 452.562C550.61 451.746 550.766 450.798 550.766 449.718C550.766 448.638 550.616 447.696 550.316 446.892C550.028 446.088 549.602 445.464 549.038 445.02C548.474 444.576 547.808 444.354 547.04 444.354C546.272 444.354 545.606 444.576 545.042 445.02C544.478 445.464 544.046 446.088 543.746 446.892C543.458 447.696 543.314 448.638 543.314 449.718C543.314 450.798 543.464 451.746 543.764 452.562C544.076 453.366 544.508 453.99 545.06 454.434C545.624 454.866 546.284 455.082 547.04 455.082Z" fill="white" fill-opacity="0.5"/>
<path d="M563.642 455.21C562.56 455.21 561.617 454.935 560.814 454.384C560.021 453.833 559.461 453.068 559.134 452.088H557.986V450.744H558.854C558.836 450.613 558.826 450.403 558.826 450.114C558.826 449.834 558.836 449.624 558.854 449.484H557.986V448.14H559.134C559.461 447.16 560.021 446.395 560.814 445.844C561.617 445.284 562.56 445.004 563.642 445.004C564.249 445.004 564.776 445.074 565.224 445.214C565.682 445.345 566.097 445.55 566.47 445.83V447.524C566.088 447.207 565.682 446.978 565.252 446.838C564.832 446.698 564.347 446.628 563.796 446.628C562.462 446.628 561.533 447.132 561.01 448.14H563.18V449.484H560.646C560.628 449.624 560.618 449.834 560.618 450.114C560.618 450.273 560.628 450.483 560.646 450.744H563.18V452.088H561.01C561.262 452.583 561.622 452.961 562.088 453.222C562.555 453.474 563.124 453.6 563.796 453.6C564.394 453.6 564.902 453.535 565.322 453.404C565.742 453.264 566.162 453.012 566.582 452.648V454.342C566.228 454.659 565.817 454.883 565.35 455.014C564.884 455.145 564.314 455.21 563.642 455.21Z" fill="white"/>
<path d="M450 475.5H567" stroke="white" stroke-opacity="0.3"/>
<path d="M533.778 502.418H535.182V515H533.778V502.418ZM537.715 506.36H539.065V507.656C539.485 507.116 539.995 506.72 540.595 506.468C541.207 506.216 541.855 506.09 542.539 506.09C543.679 506.09 544.525 506.39 545.077 506.99C545.641 507.59 545.923 508.394 545.923 509.402V515H544.537V509.528C544.537 508.784 544.357 508.214 543.997 507.818C543.637 507.41 543.061 507.206 542.269 507.206C540.937 507.206 539.881 507.806 539.101 509.006V515H537.715V506.36ZM548.98 507.44H547.63V506.36H548.98V504.452C548.98 503.516 549.232 502.808 549.736 502.328C550.252 501.848 550.942 501.608 551.806 501.608C552.262 501.608 552.688 501.668 553.084 501.788V502.958C552.748 502.802 552.4 502.724 552.04 502.724C551.464 502.724 551.038 502.874 550.762 503.174C550.498 503.462 550.366 503.912 550.366 504.524V506.36H552.562V507.44H550.366V515H548.98V507.44ZM558.315 515.27C557.379 515.27 556.545 515.084 555.813 514.712C555.093 514.34 554.529 513.812 554.121 513.128C553.725 512.432 553.527 511.622 553.527 510.698C553.527 509.786 553.731 508.982 554.139 508.286C554.547 507.59 555.111 507.05 555.831 506.666C556.563 506.282 557.391 506.09 558.315 506.09C559.239 506.09 560.061 506.282 560.781 506.666C561.513 507.05 562.083 507.59 562.491 508.286C562.899 508.982 563.103 509.786 563.103 510.698C563.103 511.622 562.899 512.432 562.491 513.128C562.095 513.812 561.531 514.34 560.799 514.712C560.079 515.084 559.251 515.27 558.315 515.27ZM558.315 514.172C559.347 514.172 560.169 513.86 560.781 513.236C561.405 512.6 561.717 511.754 561.717 510.698C561.717 509.63 561.405 508.784 560.781 508.16C560.169 507.524 559.347 507.206 558.315 507.206C557.283 507.206 556.455 507.524 555.831 508.16C555.219 508.784 554.913 509.63 554.913 510.698C554.913 511.754 555.219 512.6 555.831 513.236C556.455 513.86 557.283 514.172 558.315 514.172Z" fill="white" fill-opacity="0.5"/>
<rect x="431" y="540" width="152" height="63" rx="31.5" stroke="url(#paint5_linear_213_141)" stroke-width="3"/>
<path d="M471.465 565.418H475.677C477.045 565.418 478.233 565.67 479.241 566.174C480.249 566.678 481.023 567.398 481.563 568.334C482.103 569.27 482.373 570.374 482.373 571.646C482.373 573.734 481.767 575.318 480.555 576.398C479.343 577.466 477.651 578 475.479 578H471.465V565.418ZM475.515 576.11C476.979 576.11 478.101 575.72 478.881 574.94C479.673 574.148 480.069 573.05 480.069 571.646C480.069 570.794 479.895 570.044 479.547 569.396C479.199 568.736 478.701 568.226 478.053 567.866C477.405 567.494 476.637 567.308 475.749 567.308H473.751V576.11H475.515ZM484.174 565.418H492.688V567.308H486.46V570.764H491.086V572.654H486.46V576.11H492.688V578H484.174V565.418ZM494.316 565.418H499.356C500.736 565.418 501.84 565.784 502.668 566.516C503.508 567.248 503.928 568.25 503.928 569.522C503.928 570.842 503.514 571.85 502.686 572.546C501.858 573.23 500.742 573.572 499.338 573.572H496.602V578H494.316V565.418ZM499.068 571.682C500.784 571.682 501.642 570.962 501.642 569.522C501.642 568.046 500.784 567.308 499.068 567.308H496.602V571.682H499.068ZM511.427 578.27C510.167 578.27 509.027 578 508.007 577.46C506.999 576.908 506.201 576.134 505.613 575.138C505.037 574.142 504.749 573.002 504.749 571.718C504.749 570.434 505.037 569.294 505.613 568.298C506.201 567.302 506.999 566.528 508.007 565.976C509.027 565.424 510.167 565.148 511.427 565.148C512.675 565.148 513.803 565.424 514.811 565.976C515.831 566.528 516.629 567.302 517.205 568.298C517.793 569.294 518.087 570.434 518.087 571.718C518.087 573.002 517.793 574.142 517.205 575.138C516.629 576.122 515.831 576.89 514.811 577.442C513.803 577.994 512.675 578.27 511.427 578.27ZM511.427 576.2C512.231 576.2 512.963 576.02 513.623 575.66C514.283 575.288 514.805 574.766 515.189 574.094C515.585 573.41 515.783 572.618 515.783 571.718C515.783 570.83 515.591 570.05 515.207 569.378C514.823 568.694 514.301 568.166 513.641 567.794C512.981 567.422 512.243 567.236 511.427 567.236C510.611 567.236 509.867 567.422 509.195 567.794C508.535 568.166 508.013 568.694 507.629 569.378C507.245 570.05 507.053 570.83 507.053 571.718C507.053 572.618 507.245 573.41 507.629 574.094C508.025 574.766 508.553 575.288 509.213 575.66C509.885 576.02 510.623 576.2 511.427 576.2ZM523.071 578.27C522.327 578.27 521.589 578.198 520.857 578.054C520.137 577.922 519.543 577.742 519.075 577.514V575.552C519.675 575.84 520.305 576.056 520.965 576.2C521.625 576.344 522.273 576.416 522.909 576.416C523.713 576.416 524.325 576.266 524.745 575.966C525.165 575.666 525.375 575.252 525.375 574.724C525.375 574.352 525.279 574.046 525.087 573.806C524.895 573.554 524.613 573.338 524.241 573.158C523.869 572.966 523.299 572.72 522.531 572.42C521.355 571.94 520.503 571.406 519.975 570.818C519.447 570.23 519.183 569.498 519.183 568.622C519.183 567.938 519.369 567.332 519.741 566.804C520.113 566.276 520.635 565.868 521.307 565.58C521.979 565.292 522.753 565.148 523.629 565.148C524.349 565.148 524.985 565.208 525.537 565.328C526.101 565.436 526.653 565.61 527.193 565.85V567.758C526.149 567.254 525.093 567.002 524.025 567.002C523.257 567.002 522.663 567.146 522.243 567.434C521.823 567.71 521.613 568.106 521.613 568.622C521.613 568.994 521.709 569.3 521.901 569.54C522.093 569.768 522.345 569.966 522.657 570.134C522.981 570.29 523.557 570.542 524.385 570.89C525.225 571.238 525.885 571.58 526.365 571.916C526.857 572.252 527.223 572.648 527.464 573.104C527.715 573.548 527.841 574.094 527.841 574.742C527.841 575.858 527.439 576.728 526.635 577.352C525.831 577.964 524.643 578.27 523.071 578.27ZM529.648 565.418H531.934V578H529.648V565.418ZM537.174 567.308H533.376V565.418H543.258V567.308H539.46V578H537.174V567.308Z" fill="white"/>
</g>
<defs>
<filter id="filter0_d_213_141" x="0.638794" y="0" width="604.361" height="957" filterUnits="userSpaceOnUse" color-interpolation-filters="sRGB">
<feFlood flood-opacity="0" result="BackgroundImageFix"/>
<feColorMatrix in="SourceAlpha" type="matrix" values="0 0 0 0 0 0 0 0 0 0 0 0 0 0 0 0 0 0 127 0" result="hardAlpha"/>
<feOffset/>
<feGaussianBlur stdDeviation="70"/>
<feComposite in2="hardAlpha" operator="out"/>
<feColorMatrix type="matrix" values="0 0 0 0 0.68 0 0 0 0 0 0 0 0 0 1 0 0 0 0.5 0"/>
<feBlend mode="normal" in2="BackgroundImageFix" result="effect1_dropShadow_213_141"/>
<feBlend mode="normal" in="SourceGraphic" in2="effect1_dropShadow_213_141" result="shape"/>
</filter>
<filter id="filter1_d_213_141" x="289.5" y="190.5" width="609" height="687" filterUnits="userSpaceOnUse" color-interpolation-filters="sRGB">
<feFlood flood-opacity="0" result="BackgroundImageFix"/>
<feColorMatrix in="SourceAlpha" type="matrix" values="0 0 0 0 0 0 0 0 0 0 0 0 0 0 0 0 0 0 127 0" result="hardAlpha"/>
<feOffset/>
<feGaussianBlur stdDeviation="70"/>
<feComposite in2="hardAlpha" operator="out"/>
<feColorMatrix type="matrix" values="0 0 0 0 0 0 0 0 0 0.82 0 0 0 0 1 0 0 0 0.5 0"/>
<feBlend mode="normal" in2="BackgroundImageFix" result="effect1_dropShadow_213_141"/>
<feBlend mode="normal" in="SourceGraphic" in2="effect1_dropShadow_213_141" result="shape"/>
</filter>
<radialGradient id="paint0_radial_213_141" cx="0" cy="0" r="1" gradientUnits="userSpaceOnUse" gradientTransform="translate(444.623 817) rotate(74.6714) scale(397.986 717.712)">
<stop stop-color="#AD00FF"/>
<stop offset="1" stop-opacity="0"/>
</radialGradient>
<radialGradient id="paint1_radial_213_141" cx="0" cy="0" r="1" gradientUnits="userSpaceOnUse" gradientTransform="translate(179.313 795.792) rotate(97.9463) scale(385.029 273.293)">
<stop stop-color="#00D1FF"/>
<stop offset="1" stop-opacity="0"/>
</radialGradient>
<linearGradient id="paint2_linear_213_141" x1="766" y1="239.857" x2="588.612" y2="544.217" gradientUnits="userSpaceOnUse">
<stop offset="0.114583" stop-color="#00D1FF"/>
<stop offset="0.510417" stop-color="white"/>
<stop offset="0.90625" stop-color="#AD00FF"/>
</linearGradient>
<linearGradient id="paint3_linear_213_141" x1="761.196" y1="544" x2="515.294" y2="684.515" gradientUnits="userSpaceOnUse">
<stop offset="0.114583" stop-color="#00D1FF"/>
<stop offset="0.510417" stop-color="white"/>
<stop offset="0.90625" stop-color="#AD00FF"/>
</linearGradient>
<linearGradient id="paint4_linear_213_141" x1="761.196" y1="448" x2="515.294" y2="588.515" gradientUnits="userSpaceOnUse">
<stop offset="0.114583" stop-color="#00D1FF"/>
<stop offset="0.510417" stop-color="white"/>
<stop offset="0.90625" stop-color="#AD00FF"/>
</linearGradient>
<linearGradient id="paint5_linear_213_141" x1="587.196" y1="411" x2="341.294" y2="551.515" gradientUnits="userSpaceOnUse">
<stop offset="0.114583" stop-color="#00D1FF"/>
<stop offset="0.510417" stop-color="white"/>
<stop offset="0.90625" stop-color="#AD00FF"/>
</linearGradient>
<clipPath id="clip0_213_141">
<rect width="197.112" height="87.328" fill="white" transform="translate(203.848 328.697)"/>
</clipPath>
</defs>
</svg>
