<svg width="1108" height="1193" viewBox="0 0 1108 1193" fill="none" xmlns="http://www.w3.org/2000/svg">
<g filter="url(#filter0_dd_102_85)">
<rect x="140" y="140" width="390" height="814" rx="40" fill="black"/>
<path d="M140 331H530V914C530 936.091 512.091 954 490 954H180C157.909 954 140 936.091 140 914V331Z" fill="url(#paint0_radial_102_85)" fill-opacity="0.5"/>
<path d="M140 331H530V914C530 936.091 512.091 954 490 954H180C157.909 954 140 936.091 140 914V331Z" fill="url(#paint1_radial_102_85)" fill-opacity="0.5"/>
<g clip-path="url(#clip0_102_85)">
<path d="M221.073 494.768H216V522.783H234.499V518.575H221.073V494.768Z" fill="white"/>
<path d="M252.46 504.227C250.683 503.328 248.711 502.888 246.722 502.946C243.311 502.946 240.688 503.867 238.852 505.709C237.016 507.551 236.098 510.054 236.098 513.22C236.098 516.43 237.137 518.929 239.215 520.719C241.294 522.508 244.119 523.402 247.69 523.402C249.11 523.4 250.528 523.278 251.928 523.038C253.122 522.861 254.293 522.553 255.42 522.121V518.229C254.336 518.64 253.212 518.938 252.067 519.116C250.824 519.324 249.567 519.43 248.308 519.431C243.703 519.431 241.227 518.002 240.88 515.145H257.224V512.819C257.252 511.056 256.836 509.314 256.014 507.755C255.206 506.25 253.969 505.022 252.46 504.227ZM240.892 511.684C240.89 511.02 241.032 510.364 241.308 509.761C241.584 509.159 241.987 508.623 242.49 508.192C243.678 507.283 245.151 506.828 246.643 506.911C248.153 506.812 249.65 507.242 250.88 508.126C251.398 508.553 251.812 509.093 252.093 509.704C252.374 510.314 252.514 510.981 252.503 511.653L240.892 511.684Z" fill="white"/>
<path d="M278.769 505.43C276.953 503.774 274.475 502.946 271.335 502.946C269.514 502.915 267.717 503.363 266.123 504.246C264.609 505.1 263.363 506.362 262.527 507.889C261.672 509.538 261.225 511.37 261.225 513.229C261.225 515.088 261.672 516.92 262.527 518.569C263.365 520.075 264.612 521.311 266.123 522.133C267.724 522.994 269.519 523.428 271.335 523.396C272.762 523.429 274.182 523.205 275.53 522.734C276.794 522.237 277.948 521.494 278.926 520.549V522.795H283.769V493.183H278.738L278.769 505.43ZM278.769 515.145C278.343 516.417 277.514 517.515 276.408 518.272C275.282 519.049 273.942 519.454 272.576 519.431C271.753 519.461 270.932 519.324 270.162 519.029C269.393 518.733 268.69 518.286 268.096 517.713C267.51 517.126 267.051 516.424 266.749 515.651C266.447 514.878 266.308 514.05 266.341 513.22C266.305 512.387 266.442 511.556 266.742 510.78C267.042 510.003 267.5 509.296 268.085 508.705C268.671 508.115 269.372 507.652 270.145 507.346C270.918 507.04 271.746 506.899 272.576 506.929C273.951 506.911 275.297 507.325 276.426 508.113C277.533 508.873 278.357 509.979 278.769 511.259V515.145Z" fill="white"/>
<path d="M306.294 505.788C305.314 504.847 304.16 504.106 302.898 503.608C301.55 503.137 300.129 502.913 298.703 502.946C296.886 502.914 295.092 503.349 293.491 504.209C291.978 505.029 290.73 506.266 289.895 507.773C289.034 509.421 288.584 511.253 288.584 513.114C288.584 514.974 289.034 516.806 289.895 518.454C290.752 519.992 292.026 521.255 293.569 522.097C295.186 522.977 297.002 523.427 298.842 523.402C300.211 523.417 301.574 523.212 302.88 522.795C304.077 522.408 305.181 521.773 306.118 520.931V522.145C306.118 524.092 305.604 525.562 304.574 526.554C303.545 527.545 301.867 528.037 299.538 528.029C297.125 528.071 294.729 527.607 292.504 526.669V530.676C293.526 531.129 294.599 531.453 295.7 531.642C296.966 531.879 298.25 531.998 299.538 532C303.481 532 306.403 531.097 308.303 529.292C310.204 527.487 311.157 524.93 311.161 521.623V503.547H306.288L306.294 505.788ZM306.136 515.09C305.724 516.37 304.9 517.476 303.794 518.235C302.664 519.022 301.318 519.433 299.944 519.413C299.117 519.442 298.292 519.301 297.522 518.998C296.751 518.695 296.051 518.237 295.464 517.652C294.88 517.057 294.423 516.348 294.121 515.569C293.819 514.79 293.679 513.958 293.708 513.123C293.677 512.294 293.816 511.467 294.118 510.695C294.42 509.923 294.879 509.222 295.464 508.636C296.057 508.062 296.76 507.613 297.529 507.317C298.299 507.021 299.12 506.883 299.944 506.911C301.311 506.891 302.65 507.298 303.775 508.077C304.882 508.832 305.712 509.931 306.136 511.204V515.09Z" fill="white"/>
<path d="M332.324 504.228C330.549 503.329 328.578 502.888 326.591 502.946C323.177 502.946 320.554 503.867 318.722 505.709C316.889 507.551 315.969 510.054 315.961 513.22C315.961 516.43 317 518.929 319.079 520.719C321.157 522.508 323.982 523.402 327.554 523.402C328.974 523.4 330.391 523.278 331.791 523.038C332.985 522.861 334.156 522.554 335.284 522.121V518.229C334.2 518.641 333.076 518.938 331.93 519.116C330.69 519.324 329.435 519.43 328.177 519.431C323.564 519.431 321.086 518.002 320.743 515.145H337.088V512.819C337.116 511.056 336.699 509.314 335.877 507.755C335.07 506.25 333.832 505.022 332.324 504.228ZM320.756 511.684C320.753 511.02 320.895 510.364 321.171 509.762C321.447 509.159 321.851 508.623 322.354 508.192C323.541 507.283 325.014 506.828 326.506 506.911C328.016 506.815 329.513 507.244 330.744 508.126C331.259 508.555 331.672 509.095 331.951 509.705C332.231 510.316 332.371 510.982 332.36 511.653L320.756 511.684Z" fill="white"/>
<path d="M346.755 506.632V503.548H341.913V522.783H346.949V511.119C347.235 510.475 347.646 509.893 348.157 509.409C348.668 508.924 349.27 508.546 349.927 508.296C351.535 507.659 353.254 507.351 354.982 507.391V503.548C353.319 503.52 351.663 503.777 350.085 504.306C348.765 504.724 347.603 505.535 346.755 506.632Z" fill="white"/>
<path d="M375.11 504.228C373.564 503.368 371.822 502.927 370.055 502.946C368.143 502.934 366.257 503.394 364.565 504.288C362.931 505.121 361.627 506.484 360.866 508.156V493.183H359.752V522.801H360.866V518.272C361.717 519.87 363.007 521.191 364.583 522.079C366.255 522.983 368.132 523.439 370.031 523.402C371.788 523.424 373.521 522.995 375.068 522.158C376.59 521.337 377.849 520.102 378.7 518.593C379.621 516.956 380.087 515.1 380.05 513.22C380.089 511.346 379.636 509.495 378.736 507.852C377.887 506.329 376.631 505.074 375.11 504.228ZM377.81 518.077C377.044 519.435 375.917 520.552 374.553 521.301C373.178 522.066 371.628 522.46 370.055 522.443C367.992 522.494 365.963 521.907 364.244 520.761C362.61 519.639 361.415 517.982 360.866 516.074V510.384C361.378 508.452 362.572 506.771 364.226 505.654C365.946 504.493 367.982 503.891 370.055 503.93C371.627 503.917 373.176 504.31 374.553 505.071C375.923 505.832 377.051 506.964 377.81 508.338C378.632 509.833 379.05 511.519 379.02 513.226C379.054 514.922 378.636 516.597 377.81 518.077Z" fill="white"/>
<path d="M395.667 502.946C394.594 502.95 393.524 503.058 392.471 503.268C391.515 503.442 390.578 503.71 389.675 504.07V505.071C391.578 504.297 393.613 503.901 395.667 503.906C398.119 503.906 399.905 504.416 401.001 505.43C402.096 506.444 402.659 507.992 402.659 510.081V513.323C400.207 511.955 397.431 511.277 394.626 511.362C389.566 511.362 387.035 513.386 387.035 517.434C386.988 518.282 387.147 519.128 387.5 519.901C387.852 520.673 388.386 521.348 389.057 521.866C390.401 522.89 392.205 523.404 394.469 523.408C398.279 523.408 401.049 522.18 402.78 519.723V522.807H403.779V510.117C403.779 505.341 401.075 502.95 395.667 502.946ZM402.659 518.332C401.975 519.65 400.889 520.713 399.56 521.368C398.08 522.11 396.443 522.481 394.79 522.449C392.526 522.449 390.837 522.018 389.735 521.15C389.184 520.709 388.745 520.142 388.457 519.497C388.168 518.851 388.038 518.146 388.076 517.44C388.076 515.732 388.583 514.456 389.596 513.614C390.607 512.777 392.284 512.352 394.626 512.352C396.066 512.333 397.503 512.488 398.906 512.813C400.215 513.155 401.476 513.661 402.659 514.319V518.332Z" fill="white"/>
<path d="M422.557 502.946C420.985 502.941 419.43 503.276 417.999 503.93C416.498 504.635 415.215 505.734 414.288 507.112V503.547H413.168V522.783H414.288V508.636C416.386 505.486 419.143 503.91 422.557 503.906C424.736 503.906 426.314 504.434 427.291 505.49C428.259 506.547 428.75 508.065 428.75 510.038V522.789H429.87V509.996C429.964 508.107 429.311 506.256 428.053 504.847C426.867 503.58 425.035 502.946 422.557 502.946Z" fill="white"/>
<path d="M441.771 513.165L452.122 503.547H450.524L440.372 513.044V493.165H439.259V522.783H440.372V513.287L451.402 522.783H453L441.771 513.165Z" fill="white"/>
<path d="M327.318 464.991L327.312 427L319.218 433.029L319.224 471.021L341.689 478.562L349.782 472.533L327.318 464.991Z" fill="white"/>
<path d="M347.04 461.124C347.875 458.762 346.574 456.102 344.122 454.821C343.938 454.73 343.748 454.651 343.553 454.584L336.083 451.894L335.986 459.927L343.202 462.356C343.202 462.356 346.15 463.571 347.04 461.124Z" fill="white"/>
<path d="M347.173 446.327C348.008 443.965 346.707 441.305 344.255 440.024C344.071 439.933 343.881 439.854 343.686 439.787L336.216 437.085L336.119 445.118L343.335 447.577C343.335 447.577 346.307 448.774 347.173 446.327Z" fill="white"/>
</g>
<path d="M274.591 653.428H278.287L282.179 667.26L286.015 653.428H288.759L292.595 667.26L296.487 653.428H300.183L294.611 673H291.307L287.387 659.392L283.467 673H280.163L274.591 653.428ZM308.441 673.42C305.94 673.42 303.961 672.795 302.505 671.544C301.049 670.293 300.321 668.548 300.321 666.308C300.321 664.105 300.965 662.36 302.253 661.072C303.541 659.784 305.38 659.14 307.769 659.14C309.337 659.14 310.672 659.439 311.773 660.036C312.893 660.633 313.733 661.455 314.293 662.5C314.853 663.527 315.133 664.703 315.133 666.028V667.652H303.681C303.924 669.649 305.66 670.648 308.889 670.648C309.748 670.648 310.625 670.573 311.521 670.424C312.417 670.275 313.201 670.069 313.873 669.808V672.524C313.239 672.785 312.417 673 311.409 673.168C310.42 673.336 309.431 673.42 308.441 673.42ZM311.801 665.244C311.764 664.18 311.381 663.359 310.653 662.78C309.944 662.201 308.964 661.912 307.713 661.912C306.481 661.912 305.511 662.211 304.801 662.808C304.092 663.405 303.719 664.217 303.681 665.244H311.801ZM317.944 652.308H321.472V673H317.944V652.308ZM332.142 673.42C330.574 673.42 329.193 673.14 327.998 672.58C326.822 672.02 325.908 671.208 325.254 670.144C324.601 669.08 324.274 667.801 324.274 666.308C324.274 664.815 324.601 663.536 325.254 662.472C325.926 661.389 326.85 660.568 328.026 660.008C329.221 659.429 330.612 659.14 332.198 659.14C334.289 659.14 335.96 659.551 337.21 660.372V663.2C335.997 662.341 334.448 661.912 332.562 661.912C331.125 661.912 329.977 662.276 329.118 663.004C328.278 663.713 327.858 664.815 327.858 666.308C327.858 667.783 328.278 668.875 329.118 669.584C329.977 670.293 331.106 670.648 332.506 670.648C334.392 670.648 336.016 670.2 337.378 669.304V672.104C336.706 672.552 335.941 672.879 335.082 673.084C334.242 673.308 333.262 673.42 332.142 673.42ZM347.072 673.42C345.504 673.42 344.123 673.14 342.928 672.58C341.752 672.001 340.837 671.18 340.184 670.116C339.531 669.033 339.204 667.755 339.204 666.28C339.204 664.843 339.521 663.592 340.156 662.528C340.809 661.445 341.733 660.615 342.928 660.036C344.123 659.439 345.504 659.14 347.072 659.14C348.64 659.14 350.012 659.439 351.188 660.036C352.383 660.615 353.307 661.445 353.96 662.528C354.613 663.592 354.94 664.843 354.94 666.28C354.94 667.755 354.613 669.033 353.96 670.116C353.307 671.18 352.383 672.001 351.188 672.58C350.012 673.14 348.64 673.42 347.072 673.42ZM347.072 670.648C348.36 670.648 349.387 670.247 350.152 669.444C350.917 668.623 351.3 667.568 351.3 666.28C351.3 664.917 350.917 663.853 350.152 663.088C349.405 662.304 348.379 661.912 347.072 661.912C345.765 661.912 344.729 662.304 343.964 663.088C343.217 663.853 342.844 664.917 342.844 666.28C342.844 667.568 343.227 668.623 343.992 669.444C344.757 670.247 345.784 670.648 347.072 670.648ZM357.729 659.56H361.033V661.324C361.63 660.615 362.33 660.073 363.133 659.7C363.935 659.327 364.747 659.14 365.569 659.14C366.614 659.14 367.454 659.317 368.089 659.672C368.723 660.008 369.199 660.521 369.517 661.212C370.114 660.54 370.833 660.027 371.673 659.672C372.531 659.317 373.381 659.14 374.221 659.14C375.901 659.14 377.105 659.56 377.833 660.4C378.561 661.24 378.925 662.472 378.925 664.096V673H375.537V664.572C375.537 663.62 375.341 662.939 374.949 662.528C374.575 662.117 373.969 661.912 373.129 661.912C372.531 661.912 371.981 662.033 371.477 662.276C370.991 662.5 370.543 662.892 370.133 663.452C370.17 664.049 370.189 664.535 370.189 664.908V673H366.773V664.516C366.773 663.545 366.614 662.873 366.297 662.5C365.979 662.108 365.401 661.912 364.561 661.912C363.291 661.912 362.153 662.631 361.145 664.068V673H357.729V659.56ZM389.707 673.42C387.205 673.42 385.227 672.795 383.771 671.544C382.315 670.293 381.587 668.548 381.587 666.308C381.587 664.105 382.231 662.36 383.519 661.072C384.807 659.784 386.645 659.14 389.035 659.14C390.603 659.14 391.937 659.439 393.039 660.036C394.159 660.633 394.999 661.455 395.559 662.5C396.119 663.527 396.399 664.703 396.399 666.028V667.652H384.947C385.189 669.649 386.925 670.648 390.155 670.648C391.013 670.648 391.891 670.573 392.787 670.424C393.683 670.275 394.467 670.069 395.139 669.808V672.524C394.504 672.785 393.683 673 392.675 673.168C391.685 673.336 390.696 673.42 389.707 673.42ZM393.067 665.244C393.029 664.18 392.647 663.359 391.919 662.78C391.209 662.201 390.229 661.912 388.979 661.912C387.747 661.912 386.776 662.211 386.067 662.808C385.357 663.405 384.984 664.217 384.947 665.244H393.067Z" fill="white"/>
</g>
<g filter="url(#filter1_dd_102_85)">
<rect x="578" y="239" width="390" height="814" rx="40" fill="black"/>
<g clip-path="url(#clip1_102_85)">
<path d="M767.625 370.946L767.62 340L761 344.911L761.005 375.857L779.38 382L786 377.089L767.625 370.946Z" fill="white"/>
<path d="M783.777 367.796C784.46 365.872 783.396 363.705 781.39 362.662C781.239 362.587 781.084 362.523 780.925 362.469L774.795 360.278L774.716 366.811L780.618 368.79C780.618 368.79 783.049 369.789 783.777 367.796Z" fill="white"/>
<path d="M783.866 355.743C784.549 353.819 783.485 351.652 781.479 350.609C781.328 350.535 781.173 350.471 781.014 350.416L774.904 348.215L774.824 354.758L780.722 356.761C780.722 356.761 783.158 357.736 783.866 355.743Z" fill="white"/>
</g>
<rect x="610" y="831" width="326" height="63" rx="31.5" stroke="url(#paint2_linear_102_85)" stroke-width="3"/>
<path d="M700.111 869.27C698.791 869.27 697.621 869.006 696.601 868.478C695.581 867.938 694.789 867.176 694.225 866.192C693.661 865.196 693.379 864.038 693.379 862.718C693.379 861.398 693.661 860.246 694.225 859.262C694.789 858.266 695.581 857.498 696.601 856.958C697.621 856.418 698.791 856.148 700.111 856.148C701.851 856.148 703.303 856.562 704.467 857.39V859.568C703.423 858.68 702.037 858.236 700.309 858.236C699.385 858.236 698.575 858.422 697.879 858.794C697.183 859.154 696.643 859.67 696.259 860.342C695.875 861.014 695.683 861.806 695.683 862.718C695.683 863.63 695.875 864.422 696.259 865.094C696.655 865.766 697.201 866.288 697.897 866.66C698.593 867.02 699.397 867.2 700.309 867.2C701.197 867.2 701.989 867.092 702.685 866.876C703.381 866.648 704.023 866.288 704.611 865.796V867.974C703.507 868.838 702.007 869.27 700.111 869.27ZM706.413 856.418H711.669C713.061 856.418 714.135 856.76 714.891 857.444C715.647 858.128 716.025 859.118 716.025 860.414C716.025 861.338 715.797 862.124 715.341 862.772C714.885 863.42 714.237 863.882 713.397 864.158L715.953 869H713.613L711.183 864.392H708.699V869H706.413V856.418ZM711.255 862.502C711.999 862.502 712.599 862.328 713.055 861.98C713.511 861.632 713.739 861.11 713.739 860.414C713.739 859.01 712.911 858.308 711.255 858.308H708.699V862.502H711.255ZM717.821 856.418H726.335V858.308H720.107V861.764H724.733V863.654H720.107V867.11H726.335V869H717.821V856.418ZM732.644 856.418H734.858L739.88 869H737.558L736.406 866.102H731.078L729.944 869H727.604L732.644 856.418ZM735.776 864.212L733.742 858.866L731.708 864.212H735.776ZM742.503 858.308H738.705V856.418H748.587V858.308H744.789V869H742.503V858.308ZM750.024 856.418H758.538V858.308H752.31V861.764H756.936V863.654H752.31V867.11H758.538V869H750.024V856.418ZM771.333 856.418H773.547L778.569 869H776.247L775.095 866.102H769.767L768.633 869H766.293L771.333 856.418ZM774.465 864.212L772.431 858.866L770.397 864.212H774.465ZM785.752 869.27C784.432 869.27 783.262 869.006 782.242 868.478C781.222 867.938 780.43 867.176 779.866 866.192C779.302 865.196 779.02 864.038 779.02 862.718C779.02 861.398 779.302 860.246 779.866 859.262C780.43 858.266 781.222 857.498 782.242 856.958C783.262 856.418 784.432 856.148 785.752 856.148C787.492 856.148 788.944 856.562 790.108 857.39V859.568C789.064 858.68 787.678 858.236 785.95 858.236C785.026 858.236 784.216 858.422 783.52 858.794C782.824 859.154 782.284 859.67 781.9 860.342C781.516 861.014 781.324 861.806 781.324 862.718C781.324 863.63 781.516 864.422 781.9 865.094C782.296 865.766 782.842 866.288 783.538 866.66C784.234 867.02 785.038 867.2 785.95 867.2C786.838 867.2 787.63 867.092 788.326 866.876C789.022 866.648 789.664 866.288 790.252 865.796V867.974C789.148 868.838 787.648 869.27 785.752 869.27ZM797.969 869.27C796.649 869.27 795.479 869.006 794.459 868.478C793.439 867.938 792.647 867.176 792.083 866.192C791.519 865.196 791.237 864.038 791.237 862.718C791.237 861.398 791.519 860.246 792.083 859.262C792.647 858.266 793.439 857.498 794.459 856.958C795.479 856.418 796.649 856.148 797.969 856.148C799.709 856.148 801.161 856.562 802.325 857.39V859.568C801.281 858.68 799.895 858.236 798.167 858.236C797.243 858.236 796.433 858.422 795.737 858.794C795.041 859.154 794.501 859.67 794.117 860.342C793.733 861.014 793.541 861.806 793.541 862.718C793.541 863.63 793.733 864.422 794.117 865.094C794.513 865.766 795.059 866.288 795.755 866.66C796.451 867.02 797.255 867.2 798.167 867.2C799.055 867.2 799.847 867.092 800.543 866.876C801.239 866.648 801.881 866.288 802.469 865.796V867.974C801.365 868.838 799.865 869.27 797.969 869.27ZM810.131 869.27C808.871 869.27 807.731 869 806.711 868.46C805.703 867.908 804.905 867.134 804.317 866.138C803.741 865.142 803.453 864.002 803.453 862.718C803.453 861.434 803.741 860.294 804.317 859.298C804.905 858.302 805.703 857.528 806.711 856.976C807.731 856.424 808.871 856.148 810.131 856.148C811.379 856.148 812.507 856.424 813.515 856.976C814.535 857.528 815.333 858.302 815.909 859.298C816.497 860.294 816.791 861.434 816.791 862.718C816.791 864.002 816.497 865.142 815.909 866.138C815.333 867.122 814.535 867.89 813.515 868.442C812.507 868.994 811.379 869.27 810.131 869.27ZM810.131 867.2C810.935 867.2 811.667 867.02 812.327 866.66C812.987 866.288 813.509 865.766 813.893 865.094C814.289 864.41 814.487 863.618 814.487 862.718C814.487 861.83 814.295 861.05 813.911 860.378C813.527 859.694 813.005 859.166 812.345 858.794C811.685 858.422 810.947 858.236 810.131 858.236C809.315 858.236 808.571 858.422 807.899 858.794C807.239 859.166 806.717 859.694 806.333 860.378C805.949 861.05 805.757 861.83 805.757 862.718C805.757 863.618 805.949 864.41 806.333 865.094C806.729 865.766 807.257 866.288 807.917 866.66C808.589 867.02 809.327 867.2 810.131 867.2ZM823.889 869.27C822.113 869.27 820.769 868.808 819.857 867.884C818.957 866.948 818.507 865.688 818.507 864.104V856.418H820.793V864.14C820.793 865.136 821.069 865.898 821.621 866.426C822.185 866.942 822.941 867.2 823.889 867.2C824.825 867.2 825.569 866.942 826.121 866.426C826.685 865.898 826.967 865.136 826.967 864.14V856.418H829.253V864.104C829.253 865.688 828.803 866.948 827.903 867.884C827.003 868.808 825.665 869.27 823.889 869.27ZM831.323 856.418H833.483L839.369 865.184V856.418H841.655V869H839.495L833.609 860.216V869H831.323V856.418ZM846.899 858.308H843.101V856.418H852.983V858.308H849.185V869H846.899V858.308Z" fill="white"/>
<rect x="610" y="552" width="326" height="63" rx="31.5" stroke="white" stroke-width="3"/>
<path d="M651.26 576.418H659.36V577.606H652.664V582.106H657.686V583.294H652.664V587.812H659.36V589H651.26V576.418ZM661.526 580.36H662.858V581.71C663.686 580.63 664.712 580.09 665.936 580.09C666.656 580.09 667.214 580.216 667.61 580.468C668.018 580.72 668.312 581.098 668.492 581.602C668.876 581.086 669.35 580.708 669.914 580.468C670.49 580.216 671.078 580.09 671.678 580.09C672.71 580.09 673.46 580.354 673.928 580.882C674.396 581.41 674.63 582.19 674.63 583.222V589H673.262V583.384C673.262 582.58 673.118 582.016 672.83 581.692C672.554 581.368 672.056 581.206 671.336 581.206C670.304 581.206 669.452 581.668 668.78 582.592C668.816 582.76 668.834 583.036 668.834 583.42V589H667.484V583.42C667.484 582.616 667.352 582.046 667.088 581.71C666.824 581.374 666.332 581.206 665.612 581.206C664.58 581.206 663.674 581.782 662.894 582.934V589H661.526V580.36ZM679.825 589.27C678.781 589.27 677.953 589.012 677.341 588.496C676.741 587.968 676.441 587.248 676.441 586.336C676.441 585.388 676.735 584.662 677.323 584.158C677.911 583.642 678.763 583.384 679.879 583.384C681.127 583.384 682.201 583.642 683.101 584.158V583.51C683.101 582.73 682.879 582.154 682.435 581.782C681.991 581.398 681.289 581.206 680.329 581.206C679.309 581.206 678.367 581.398 677.503 581.782V580.612C677.863 580.456 678.319 580.33 678.871 580.234C679.423 580.138 679.951 580.09 680.455 580.09C681.823 580.09 682.837 580.402 683.497 581.026C684.157 581.638 684.487 582.49 684.487 583.582V589H683.191V587.884C682.435 588.808 681.313 589.27 679.825 589.27ZM680.167 588.136C680.815 588.136 681.397 588.01 681.913 587.758C682.441 587.494 682.837 587.128 683.101 586.66V585.274C682.633 584.998 682.165 584.8 681.697 584.68C681.241 584.548 680.725 584.482 680.149 584.482C679.333 584.482 678.739 584.638 678.367 584.95C678.007 585.25 677.827 585.712 677.827 586.336C677.827 587.536 678.607 588.136 680.167 588.136ZM687.772 578.488C687.532 578.488 687.328 578.404 687.16 578.236C686.992 578.068 686.908 577.864 686.908 577.624C686.908 577.384 686.992 577.18 687.16 577.012C687.328 576.844 687.532 576.76 687.772 576.76C688.012 576.76 688.216 576.844 688.384 577.012C688.564 577.18 688.654 577.384 688.654 577.624C688.654 577.864 688.564 578.068 688.384 578.236C688.216 578.404 688.012 578.488 687.772 578.488ZM687.088 580.36H688.474V589H687.088V580.36ZM691.18 575.698H692.566V589H691.18V575.698Z" fill="white" fill-opacity="0.5"/>
<rect x="610" y="459" width="326" height="63" rx="31.5" stroke="white" stroke-width="3"/>
<path d="M656.192 496.27C654.536 496.27 653.282 495.85 652.43 495.01C651.59 494.17 651.17 493 651.17 491.5V483.418H652.574V491.608C652.574 492.748 652.892 493.6 653.528 494.164C654.164 494.728 655.052 495.01 656.192 495.01C657.332 495.01 658.22 494.728 658.856 494.164C659.492 493.6 659.81 492.748 659.81 491.608V483.418H661.214V491.5C661.214 493 660.788 494.17 659.936 495.01C659.096 495.85 657.848 496.27 656.192 496.27ZM666.026 496.27C665.462 496.27 664.856 496.186 664.208 496.018C663.56 495.862 663.056 495.664 662.696 495.424V494.254C663.152 494.53 663.674 494.752 664.262 494.92C664.862 495.088 665.438 495.172 665.99 495.172C666.734 495.172 667.268 495.07 667.592 494.866C667.928 494.65 668.096 494.332 668.096 493.912C668.096 493.588 668.024 493.336 667.88 493.156C667.736 492.964 667.496 492.796 667.16 492.652C666.824 492.508 666.302 492.34 665.594 492.148C664.898 491.956 664.34 491.758 663.92 491.554C663.512 491.338 663.2 491.068 662.984 490.744C662.768 490.42 662.66 490.006 662.66 489.502C662.66 488.722 662.972 488.128 663.596 487.72C664.232 487.3 665.072 487.09 666.116 487.09C666.68 487.09 667.208 487.144 667.7 487.252C668.204 487.348 668.624 487.486 668.96 487.666V488.836C668.612 488.644 668.192 488.494 667.7 488.386C667.208 488.266 666.698 488.206 666.17 488.206C665.474 488.206 664.946 488.308 664.586 488.512C664.226 488.716 664.046 489.046 664.046 489.502C664.046 489.814 664.106 490.054 664.226 490.222C664.358 490.39 664.592 490.546 664.928 490.69C665.276 490.822 665.828 490.99 666.584 491.194C667.664 491.494 668.414 491.848 668.834 492.256C669.266 492.652 669.482 493.204 669.482 493.912C669.482 494.644 669.194 495.22 668.618 495.64C668.054 496.06 667.19 496.27 666.026 496.27ZM676.277 496.27C674.705 496.27 673.475 495.868 672.587 495.064C671.711 494.26 671.273 493.138 671.273 491.698C671.273 490.282 671.669 489.16 672.461 488.332C673.253 487.504 674.381 487.09 675.845 487.09C676.829 487.09 677.663 487.282 678.347 487.666C679.031 488.038 679.547 488.554 679.895 489.214C680.243 489.874 680.417 490.624 680.417 491.464V492.22H672.569C672.617 493.204 672.977 493.942 673.649 494.434C674.333 494.926 675.257 495.172 676.421 495.172C676.985 495.172 677.537 495.124 678.077 495.028C678.629 494.92 679.121 494.776 679.553 494.596V495.766C679.193 495.91 678.701 496.03 678.077 496.126C677.465 496.222 676.865 496.27 676.277 496.27ZM679.121 491.23C679.097 490.294 678.809 489.556 678.257 489.016C677.705 488.476 676.895 488.206 675.827 488.206C674.783 488.206 673.985 488.488 673.433 489.052C672.881 489.604 672.593 490.33 672.569 491.23H679.121ZM682.584 487.36H683.934V489.052C684.63 487.924 685.932 487.36 687.84 487.36V488.476C685.752 488.476 684.462 489.166 683.97 490.546V496H682.584V487.36ZM689.633 487.36H690.983V488.656C691.403 488.116 691.913 487.72 692.513 487.468C693.125 487.216 693.773 487.09 694.457 487.09C695.597 487.09 696.443 487.39 696.995 487.99C697.559 488.59 697.841 489.394 697.841 490.402V496H696.455V490.528C696.455 489.784 696.275 489.214 695.915 488.818C695.555 488.41 694.979 488.206 694.187 488.206C692.855 488.206 691.799 488.806 691.019 490.006V496H689.633V487.36ZM703.028 496.27C701.984 496.27 701.156 496.012 700.544 495.496C699.944 494.968 699.644 494.248 699.644 493.336C699.644 492.388 699.938 491.662 700.526 491.158C701.114 490.642 701.966 490.384 703.082 490.384C704.33 490.384 705.404 490.642 706.304 491.158V490.51C706.304 489.73 706.082 489.154 705.638 488.782C705.194 488.398 704.492 488.206 703.532 488.206C702.512 488.206 701.57 488.398 700.706 488.782V487.612C701.066 487.456 701.522 487.33 702.074 487.234C702.626 487.138 703.154 487.09 703.658 487.09C705.026 487.09 706.04 487.402 706.7 488.026C707.36 488.638 707.69 489.49 707.69 490.582V496H706.394V494.884C705.638 495.808 704.516 496.27 703.028 496.27ZM703.37 495.136C704.018 495.136 704.6 495.01 705.116 494.758C705.644 494.494 706.04 494.128 706.304 493.66V492.274C705.836 491.998 705.368 491.8 704.9 491.68C704.444 491.548 703.928 491.482 703.352 491.482C702.536 491.482 701.942 491.638 701.57 491.95C701.21 492.25 701.03 492.712 701.03 493.336C701.03 494.536 701.81 495.136 703.37 495.136ZM710.112 487.36H711.444V488.71C712.272 487.63 713.298 487.09 714.522 487.09C715.242 487.09 715.8 487.216 716.196 487.468C716.604 487.72 716.898 488.098 717.078 488.602C717.462 488.086 717.936 487.708 718.5 487.468C719.076 487.216 719.664 487.09 720.264 487.09C721.296 487.09 722.046 487.354 722.514 487.882C722.982 488.41 723.216 489.19 723.216 490.222V496H721.848V490.384C721.848 489.58 721.704 489.016 721.416 488.692C721.14 488.368 720.642 488.206 719.922 488.206C718.89 488.206 718.038 488.668 717.366 489.592C717.402 489.76 717.42 490.036 717.42 490.42V496H716.07V490.42C716.07 489.616 715.938 489.046 715.674 488.71C715.41 488.374 714.918 488.206 714.198 488.206C713.166 488.206 712.26 488.782 711.48 489.934V496H710.112V487.36ZM730.295 496.27C728.723 496.27 727.493 495.868 726.605 495.064C725.729 494.26 725.291 493.138 725.291 491.698C725.291 490.282 725.687 489.16 726.479 488.332C727.271 487.504 728.399 487.09 729.863 487.09C730.847 487.09 731.681 487.282 732.365 487.666C733.049 488.038 733.565 488.554 733.913 489.214C734.261 489.874 734.435 490.624 734.435 491.464V492.22H726.587C726.635 493.204 726.995 493.942 727.667 494.434C728.351 494.926 729.275 495.172 730.439 495.172C731.003 495.172 731.555 495.124 732.095 495.028C732.647 494.92 733.139 494.776 733.571 494.596V495.766C733.211 495.91 732.719 496.03 732.095 496.126C731.483 496.222 730.883 496.27 730.295 496.27ZM733.139 491.23C733.115 490.294 732.827 489.556 732.275 489.016C731.723 488.476 730.913 488.206 729.845 488.206C728.801 488.206 728.003 488.488 727.451 489.052C726.899 489.604 726.611 490.33 726.587 491.23H733.139Z" fill="white" fill-opacity="0.5"/>
<rect x="610" y="645" width="326" height="63" rx="31.5" stroke="white" stroke-width="3"/>
<path d="M651.26 669.418H655.922C657.242 669.418 658.268 669.73 659 670.354C659.744 670.978 660.116 671.902 660.116 673.126C660.116 674.362 659.75 675.286 659.018 675.898C658.286 676.51 657.254 676.816 655.922 676.816H652.664V682H651.26V669.418ZM655.814 675.628C656.714 675.628 657.422 675.448 657.938 675.088C658.454 674.716 658.712 674.062 658.712 673.126C658.712 672.178 658.454 671.524 657.938 671.164C657.422 670.792 656.714 670.606 655.814 670.606H652.664V675.628H655.814ZM663.952 682.27C662.908 682.27 662.08 682.012 661.468 681.496C660.868 680.968 660.568 680.248 660.568 679.336C660.568 678.388 660.862 677.662 661.45 677.158C662.038 676.642 662.89 676.384 664.006 676.384C665.254 676.384 666.328 676.642 667.228 677.158V676.51C667.228 675.73 667.006 675.154 666.562 674.782C666.118 674.398 665.416 674.206 664.456 674.206C663.436 674.206 662.494 674.398 661.63 674.782V673.612C661.99 673.456 662.446 673.33 662.998 673.234C663.55 673.138 664.078 673.09 664.582 673.09C665.95 673.09 666.964 673.402 667.624 674.026C668.284 674.638 668.614 675.49 668.614 676.582V682H667.318V680.884C666.562 681.808 665.44 682.27 663.952 682.27ZM664.294 681.136C664.942 681.136 665.524 681.01 666.04 680.758C666.568 680.494 666.964 680.128 667.228 679.66V678.274C666.76 677.998 666.292 677.8 665.824 677.68C665.368 677.548 664.852 677.482 664.276 677.482C663.46 677.482 662.866 677.638 662.494 677.95C662.134 678.25 661.954 678.712 661.954 679.336C661.954 680.536 662.734 681.136 664.294 681.136ZM673.778 682.27C673.214 682.27 672.608 682.186 671.96 682.018C671.312 681.862 670.808 681.664 670.448 681.424V680.254C670.904 680.53 671.426 680.752 672.014 680.92C672.614 681.088 673.19 681.172 673.742 681.172C674.486 681.172 675.02 681.07 675.344 680.866C675.68 680.65 675.848 680.332 675.848 679.912C675.848 679.588 675.776 679.336 675.632 679.156C675.488 678.964 675.248 678.796 674.912 678.652C674.576 678.508 674.054 678.34 673.346 678.148C672.65 677.956 672.092 677.758 671.672 677.554C671.264 677.338 670.952 677.068 670.736 676.744C670.52 676.42 670.412 676.006 670.412 675.502C670.412 674.722 670.724 674.128 671.348 673.72C671.984 673.3 672.824 673.09 673.868 673.09C674.432 673.09 674.96 673.144 675.452 673.252C675.956 673.348 676.376 673.486 676.712 673.666V674.836C676.364 674.644 675.944 674.494 675.452 674.386C674.96 674.266 674.45 674.206 673.922 674.206C673.226 674.206 672.698 674.308 672.338 674.512C671.978 674.716 671.798 675.046 671.798 675.502C671.798 675.814 671.858 676.054 671.978 676.222C672.11 676.39 672.344 676.546 672.68 676.69C673.028 676.822 673.58 676.99 674.336 677.194C675.416 677.494 676.166 677.848 676.586 678.256C677.018 678.652 677.234 679.204 677.234 679.912C677.234 680.644 676.946 681.22 676.37 681.64C675.806 682.06 674.942 682.27 673.778 682.27ZM681.934 682.27C681.37 682.27 680.764 682.186 680.116 682.018C679.468 681.862 678.964 681.664 678.604 681.424V680.254C679.06 680.53 679.582 680.752 680.17 680.92C680.77 681.088 681.346 681.172 681.898 681.172C682.642 681.172 683.176 681.07 683.5 680.866C683.836 680.65 684.004 680.332 684.004 679.912C684.004 679.588 683.932 679.336 683.788 679.156C683.644 678.964 683.404 678.796 683.068 678.652C682.732 678.508 682.21 678.34 681.502 678.148C680.806 677.956 680.248 677.758 679.828 677.554C679.42 677.338 679.108 677.068 678.892 676.744C678.676 676.42 678.568 676.006 678.568 675.502C678.568 674.722 678.88 674.128 679.504 673.72C680.14 673.3 680.98 673.09 682.024 673.09C682.588 673.09 683.116 673.144 683.608 673.252C684.112 673.348 684.532 673.486 684.868 673.666V674.836C684.52 674.644 684.1 674.494 683.608 674.386C683.116 674.266 682.606 674.206 682.078 674.206C681.382 674.206 680.854 674.308 680.494 674.512C680.134 674.716 679.954 675.046 679.954 675.502C679.954 675.814 680.014 676.054 680.134 676.222C680.266 676.39 680.5 676.546 680.836 676.69C681.184 676.822 681.736 676.99 682.492 677.194C683.572 677.494 684.322 677.848 684.742 678.256C685.174 678.652 685.39 679.204 685.39 679.912C685.39 680.644 685.102 681.22 684.526 681.64C683.962 682.06 683.098 682.27 681.934 682.27ZM686.373 673.36H687.813L689.955 680.326L692.061 673.36H693.375L695.499 680.326L697.623 673.36H699.081L696.309 682H694.887L692.727 674.962L690.567 682H689.127L686.373 673.36ZM704.485 682.27C703.549 682.27 702.715 682.084 701.983 681.712C701.263 681.34 700.699 680.812 700.291 680.128C699.895 679.432 699.697 678.622 699.697 677.698C699.697 676.786 699.901 675.982 700.309 675.286C700.717 674.59 701.281 674.05 702.001 673.666C702.733 673.282 703.561 673.09 704.485 673.09C705.409 673.09 706.231 673.282 706.951 673.666C707.683 674.05 708.253 674.59 708.661 675.286C709.069 675.982 709.273 676.786 709.273 677.698C709.273 678.622 709.069 679.432 708.661 680.128C708.265 680.812 707.701 681.34 706.969 681.712C706.249 682.084 705.421 682.27 704.485 682.27ZM704.485 681.172C705.517 681.172 706.339 680.86 706.951 680.236C707.575 679.6 707.887 678.754 707.887 677.698C707.887 676.63 707.575 675.784 706.951 675.16C706.339 674.524 705.517 674.206 704.485 674.206C703.453 674.206 702.625 674.524 702.001 675.16C701.389 675.784 701.083 676.63 701.083 677.698C701.083 678.754 701.389 679.6 702.001 680.236C702.625 680.86 703.453 681.172 704.485 681.172ZM711.43 673.36H712.78V675.052C713.476 673.924 714.778 673.36 716.686 673.36V674.476C714.598 674.476 713.308 675.166 712.816 676.546V682H711.43V673.36ZM722.373 682.27C721.521 682.27 720.753 682.084 720.069 681.712C719.385 681.34 718.845 680.806 718.449 680.11C718.053 679.414 717.855 678.61 717.855 677.698C717.855 676.798 718.047 676 718.431 675.304C718.827 674.596 719.367 674.05 720.051 673.666C720.747 673.282 721.521 673.09 722.373 673.09C723.201 673.09 723.933 673.24 724.569 673.54C725.217 673.828 725.733 674.254 726.117 674.818V668.698H727.503V682H726.153V680.488C725.697 681.088 725.157 681.538 724.533 681.838C723.921 682.126 723.201 682.27 722.373 682.27ZM722.661 681.172C723.489 681.172 724.209 680.962 724.821 680.542C725.445 680.11 725.877 679.522 726.117 678.778V676.618C725.889 675.874 725.463 675.286 724.839 674.854C724.227 674.422 723.501 674.206 722.661 674.206C722.025 674.206 721.443 674.356 720.915 674.656C720.399 674.944 719.991 675.352 719.691 675.88C719.391 676.408 719.241 677.014 719.241 677.698C719.241 678.382 719.391 678.988 719.691 679.516C719.991 680.044 720.399 680.452 720.915 680.74C721.443 681.028 722.025 681.172 722.661 681.172Z" fill="white" fill-opacity="0.5"/>
<circle cx="641.5" cy="769.5" r="31.5" stroke="white" stroke-opacity="0.3" stroke-width="3"/>
<path d="M641.008 776.27C640.324 776.258 639.658 776.192 639.01 776.072C638.362 775.952 637.828 775.796 637.408 775.604V774.308C638.512 774.8 639.712 775.046 641.008 775.046V770.132C640.972 770.132 640.942 770.12 640.918 770.096C639.718 769.616 638.854 769.094 638.326 768.53C637.798 767.966 637.534 767.252 637.534 766.388C637.534 765.512 637.846 764.786 638.47 764.21C639.106 763.622 639.952 763.28 641.008 763.184V761.564H642.25V763.166C643.258 763.214 644.182 763.424 645.022 763.796V765.056C644.098 764.66 643.174 764.444 642.25 764.408V769.25C643.054 769.574 643.684 769.88 644.14 770.168C644.608 770.444 644.968 770.804 645.22 771.248C645.472 771.68 645.598 772.238 645.598 772.922C645.598 773.846 645.316 774.59 644.752 775.154C644.188 775.718 643.354 776.066 642.25 776.198V777.854H641.008V776.27ZM641.008 764.444C640.312 764.54 639.784 764.756 639.424 765.092C639.076 765.428 638.902 765.86 638.902 766.388C638.902 766.904 639.064 767.342 639.388 767.702C639.712 768.062 640.252 768.41 641.008 768.746V764.444ZM642.25 774.956C643.57 774.728 644.23 774.05 644.23 772.922C644.23 772.358 644.08 771.92 643.78 771.608C643.492 771.296 642.982 770.978 642.25 770.654V774.956Z" fill="white" fill-opacity="0.3"/>
<circle cx="729.5" cy="769.5" r="31.5" stroke="white" stroke-width="3"/>
<path d="M731.037 776.27C729.705 776.27 728.565 775.898 727.617 775.154C726.669 774.41 726.009 773.378 725.637 772.058H724.107V770.978H725.421C725.361 770.534 725.331 770.114 725.331 769.718C725.331 769.238 725.355 768.824 725.403 768.476H724.107V767.396H725.619C725.991 766.076 726.651 765.038 727.599 764.282C728.559 763.526 729.705 763.148 731.037 763.148C731.829 763.148 732.525 763.244 733.125 763.436C733.737 763.616 734.301 763.916 734.817 764.336V765.704C734.301 765.248 733.743 764.924 733.143 764.732C732.555 764.528 731.889 764.426 731.145 764.426C730.125 764.426 729.267 764.684 728.571 765.2C727.875 765.716 727.371 766.448 727.059 767.396H730.353V768.476H726.807C726.759 768.824 726.735 769.238 726.735 769.718C726.735 770.114 726.765 770.534 726.825 770.978H730.353V772.058H727.077C727.389 773.006 727.887 773.738 728.571 774.254C729.267 774.758 730.125 775.01 731.145 775.01C731.925 775.01 732.609 774.914 733.197 774.722C733.797 774.53 734.361 774.188 734.889 773.696V775.082C734.385 775.526 733.827 775.832 733.215 776C732.603 776.18 731.877 776.27 731.037 776.27Z" fill="white"/>
<circle cx="817.5" cy="769.5" r="31.5" stroke="white" stroke-opacity="0.3" stroke-width="3"/>
<path d="M813.988 774.92H815.464V769.664H814.114V768.584H815.464V766.262C815.464 765.266 815.776 764.498 816.4 763.958C817.036 763.418 817.822 763.148 818.758 763.148C819.202 763.148 819.634 763.208 820.054 763.328V764.462C819.79 764.342 819.46 764.282 819.064 764.282C818.344 764.282 817.804 764.45 817.444 764.786C817.096 765.11 816.922 765.608 816.922 766.28V768.584H820.27V769.664H816.922V774.92H821.008V776H813.988V774.92Z" fill="white" fill-opacity="0.3"/>
<circle cx="905.5" cy="769.5" r="31.5" stroke="white" stroke-opacity="0.3" stroke-width="3"/>
<path d="M904.794 773.93H902.274V772.958H904.794V771.464H902.274V770.51H904.362L900.222 763.418H901.716L905.496 769.952L909.294 763.418H910.77L906.612 770.51H908.736V771.464H906.198V772.958H908.736V773.93H906.198V776H904.794V773.93Z" fill="white" fill-opacity="0.3"/>
<line x1="752" y1="982.5" x2="794" y2="982.5" stroke="white"/>
<path d="M752.539 968.214H754.317V976.53H759.021V978H752.539V968.214ZM763.234 978.21C762.45 978.21 761.76 978.07 761.162 977.79C760.574 977.501 760.117 977.09 759.79 976.558C759.464 976.017 759.3 975.377 759.3 974.64C759.3 973.921 759.459 973.296 759.776 972.764C760.103 972.223 760.565 971.807 761.162 971.518C761.76 971.219 762.45 971.07 763.234 971.07C764.018 971.07 764.704 971.219 765.292 971.518C765.89 971.807 766.352 972.223 766.678 972.764C767.005 973.296 767.168 973.921 767.168 974.64C767.168 975.377 767.005 976.017 766.678 976.558C766.352 977.09 765.89 977.501 765.292 977.79C764.704 978.07 764.018 978.21 763.234 978.21ZM763.234 976.824C763.878 976.824 764.392 976.623 764.774 976.222C765.157 975.811 765.348 975.284 765.348 974.64C765.348 973.959 765.157 973.427 764.774 973.044C764.401 972.652 763.888 972.456 763.234 972.456C762.581 972.456 762.063 972.652 761.68 973.044C761.307 973.427 761.12 973.959 761.12 974.64C761.12 975.284 761.312 975.811 761.694 976.222C762.077 976.623 762.59 976.824 763.234 976.824ZM772.119 981.22C771.671 981.22 771.223 981.178 770.775 981.094C770.327 981.01 769.953 980.898 769.655 980.758V979.358C770.383 979.675 771.204 979.834 772.119 979.834C772.94 979.834 773.528 979.661 773.883 979.316C774.247 978.971 774.429 978.457 774.429 977.776V977.342C774.111 977.631 773.733 977.851 773.295 978C772.856 978.14 772.385 978.21 771.881 978.21C771.199 978.21 770.583 978.061 770.033 977.762C769.482 977.454 769.053 977.029 768.745 976.488C768.437 975.947 768.283 975.326 768.283 974.626C768.283 973.917 768.432 973.296 768.731 972.764C769.039 972.223 769.459 971.807 769.991 971.518C770.532 971.219 771.143 971.07 771.825 971.07C772.394 971.07 772.884 971.149 773.295 971.308C773.705 971.457 774.102 971.709 774.485 972.064V971.28H776.193V977.594C776.193 978.751 775.857 979.643 775.185 980.268C774.522 980.903 773.5 981.22 772.119 981.22ZM772.259 976.824C772.763 976.824 773.211 976.689 773.603 976.418C774.004 976.138 774.279 975.769 774.429 975.312V973.954C774.27 973.497 773.995 973.133 773.603 972.862C773.211 972.591 772.763 972.456 772.259 972.456C771.624 972.456 771.101 972.657 770.691 973.058C770.28 973.459 770.075 973.982 770.075 974.626C770.075 975.27 770.28 975.797 770.691 976.208C771.101 976.619 771.624 976.824 772.259 976.824ZM783.912 970.104C783.632 970.104 783.394 970.011 783.198 969.824C783.011 969.637 782.918 969.404 782.918 969.124C782.918 968.844 783.011 968.611 783.198 968.424C783.394 968.228 783.632 968.13 783.912 968.13C784.192 968.13 784.43 968.228 784.626 968.424C784.822 968.611 784.92 968.844 784.92 969.124C784.92 969.404 784.822 969.637 784.626 969.824C784.43 970.011 784.192 970.104 783.912 970.104ZM783.016 971.28H784.808V978H783.016V971.28ZM786.596 971.28H788.304V972.19C788.621 971.807 788.999 971.527 789.438 971.35C789.877 971.163 790.339 971.07 790.824 971.07C791.729 971.07 792.406 971.317 792.854 971.812C793.302 972.297 793.526 972.946 793.526 973.758V978H791.762V973.926C791.762 972.946 791.305 972.456 790.39 972.456C789.989 972.456 789.611 972.554 789.256 972.75C788.901 972.937 788.603 973.221 788.36 973.604V978H786.596V971.28Z" fill="white"/>
</g>
<defs>
<filter id="filter0_dd_102_85" x="0" y="0" width="670" height="1094" filterUnits="userSpaceOnUse" color-interpolation-filters="sRGB">
<feFlood flood-opacity="0" result="BackgroundImageFix"/>
<feColorMatrix in="SourceAlpha" type="matrix" values="0 0 0 0 0 0 0 0 0 0 0 0 0 0 0 0 0 0 127 0" result="hardAlpha"/>
<feOffset/>
<feGaussianBlur stdDeviation="70"/>
<feComposite in2="hardAlpha" operator="out"/>
<feColorMatrix type="matrix" values="0 0 0 0 0.68 0 0 0 0 0 0 0 0 0 1 0 0 0 0.5 0"/>
<feBlend mode="normal" in2="BackgroundImageFix" result="effect1_dropShadow_102_85"/>
<feColorMatrix in="SourceAlpha" type="matrix" values="0 0 0 0 0 0 0 0 0 0 0 0 0 0 0 0 0 0 127 0" result="hardAlpha"/>
<feOffset dx="10" dy="10"/>
<feGaussianBlur stdDeviation="7.5"/>
<feComposite in2="hardAlpha" operator="out"/>
<feColorMatrix type="matrix" values="0 0 0 0 0 0 0 0 0 0 0 0 0 0 0 0 0 0 0.5 0"/>
<feBlend mode="normal" in2="effect1_dropShadow_102_85" result="effect2_dropShadow_102_85"/>
<feBlend mode="normal" in="SourceGraphic" in2="effect2_dropShadow_102_85" result="shape"/>
</filter>
<filter id="filter1_dd_102_85" x="438" y="99" width="670" height="1094" filterUnits="userSpaceOnUse" color-interpolation-filters="sRGB">
<feFlood flood-opacity="0" result="BackgroundImageFix"/>
<feColorMatrix in="SourceAlpha" type="matrix" values="0 0 0 0 0 0 0 0 0 0 0 0 0 0 0 0 0 0 127 0" result="hardAlpha"/>
<feOffset/>
<feGaussianBlur stdDeviation="70"/>
<feComposite in2="hardAlpha" operator="out"/>
<feColorMatrix type="matrix" values="0 0 0 0 0 0 0 0 0 0.82 0 0 0 0 1 0 0 0 0.5 0"/>
<feBlend mode="normal" in2="BackgroundImageFix" result="effect1_dropShadow_102_85"/>
<feColorMatrix in="SourceAlpha" type="matrix" values="0 0 0 0 0 0 0 0 0 0 0 0 0 0 0 0 0 0 127 0" result="hardAlpha"/>
<feOffset dx="10" dy="10"/>
<feGaussianBlur stdDeviation="7.5"/>
<feComposite in2="hardAlpha" operator="out"/>
<feColorMatrix type="matrix" values="0 0 0 0 0 0 0 0 0 0 0 0 0 0 0 0 0 0 0.5 0"/>
<feBlend mode="normal" in2="effect1_dropShadow_102_85" result="effect2_dropShadow_102_85"/>
<feBlend mode="normal" in="SourceGraphic" in2="effect2_dropShadow_102_85" result="shape"/>
</filter>
<radialGradient id="paint0_radial_102_85" cx="0" cy="0" r="1" gradientUnits="userSpaceOnUse" gradientTransform="translate(505.5 954) rotate(74.6714) scale(478.523 862.95)">
<stop stop-color="#AD00FF"/>
<stop offset="1" stop-opacity="0"/>
</radialGradient>
<radialGradient id="paint1_radial_102_85" cx="0" cy="0" r="1" gradientUnits="userSpaceOnUse" gradientTransform="translate(186.5 928.5) rotate(97.9463) scale(462.945 328.597)">
<stop stop-color="#00D1FF"/>
<stop offset="1" stop-opacity="0"/>
</radialGradient>
<linearGradient id="paint2_linear_102_85" x1="945" y1="702" x2="665.382" y2="1044.69" gradientUnits="userSpaceOnUse">
<stop offset="0.114583" stop-color="#00D1FF"/>
<stop offset="0.510417" stop-color="white"/>
<stop offset="0.90625" stop-color="#AD00FF"/>
</linearGradient>
<clipPath id="clip0_102_85">
<rect width="237" height="105" fill="white" transform="translate(216 427)"/>
</clipPath>
<clipPath id="clip1_102_85">
<rect width="25" height="42" fill="white" transform="translate(761 340)"/>
</clipPath>
</defs>
</svg>
