<svg width="1109" height="1193" viewBox="0 0 1109 1193" fill="none" xmlns="http://www.w3.org/2000/svg">
<g filter="url(#filter0_dd_221_126)">
<rect x="140" y="140" width="390" height="814" rx="40" fill="black"/>
<g clip-path="url(#clip0_221_126)">
<path d="M329.625 233.946L329.62 203L323 207.911L323.005 238.857L341.38 245L348 240.089L329.625 233.946Z" fill="white"/>
<path d="M345.777 230.796C346.46 228.872 345.396 226.705 343.39 225.662C343.239 225.587 343.084 225.523 342.925 225.469L336.795 223.278L336.716 229.811L342.618 231.79C342.618 231.79 345.049 232.789 345.777 230.796Z" fill="white"/>
<path d="M345.866 218.743C346.549 216.819 345.485 214.652 343.479 213.609C343.328 213.535 343.173 213.471 343.014 213.416L336.904 211.215L336.825 217.758L342.722 219.761C342.722 219.761 345.158 220.736 345.866 218.743Z" fill="white"/>
</g>
<path d="M259.789 283.428H263.345V291.548H272.753V283.428H276.281V303H272.753V294.488H263.345V303H259.789V283.428ZM287.201 303.42C284.7 303.42 282.721 302.795 281.265 301.544C279.809 300.293 279.081 298.548 279.081 296.308C279.081 294.105 279.725 292.36 281.013 291.072C282.301 289.784 284.14 289.14 286.529 289.14C288.097 289.14 289.432 289.439 290.533 290.036C291.653 290.633 292.493 291.455 293.053 292.5C293.613 293.527 293.893 294.703 293.893 296.028V297.652H282.441C282.684 299.649 284.42 300.648 287.649 300.648C288.508 300.648 289.385 300.573 290.281 300.424C291.177 300.275 291.961 300.069 292.633 299.808V302.524C291.998 302.785 291.177 303 290.169 303.168C289.18 303.336 288.19 303.42 287.201 303.42ZM290.561 295.244C290.524 294.18 290.141 293.359 289.413 292.78C288.704 292.201 287.724 291.912 286.473 291.912C285.241 291.912 284.27 292.211 283.561 292.808C282.852 293.405 282.478 294.217 282.441 295.244H290.561ZM296.703 282.308H300.231V303H296.703V282.308ZM303.594 282.308H307.122V303H303.594V282.308ZM317.793 303.42C316.225 303.42 314.843 303.14 313.649 302.58C312.473 302.001 311.558 301.18 310.905 300.116C310.251 299.033 309.925 297.755 309.925 296.28C309.925 294.843 310.242 293.592 310.877 292.528C311.53 291.445 312.454 290.615 313.649 290.036C314.843 289.439 316.225 289.14 317.793 289.14C319.361 289.14 320.733 289.439 321.909 290.036C323.103 290.615 324.027 291.445 324.681 292.528C325.334 293.592 325.661 294.843 325.661 296.28C325.661 297.755 325.334 299.033 324.681 300.116C324.027 301.18 323.103 302.001 321.909 302.58C320.733 303.14 319.361 303.42 317.793 303.42ZM317.793 300.648C319.081 300.648 320.107 300.247 320.873 299.444C321.638 298.623 322.021 297.568 322.021 296.28C322.021 294.917 321.638 293.853 320.873 293.088C320.126 292.304 319.099 291.912 317.793 291.912C316.486 291.912 315.45 292.304 314.685 293.088C313.938 293.853 313.565 294.917 313.565 296.28C313.565 297.568 313.947 298.623 314.713 299.444C315.478 300.247 316.505 300.648 317.793 300.648ZM344.195 303.42C343.038 303.42 341.89 303.308 340.751 303.084C339.631 302.879 338.707 302.599 337.979 302.244V299.192C338.913 299.64 339.893 299.976 340.919 300.2C341.946 300.424 342.954 300.536 343.943 300.536C345.194 300.536 346.146 300.303 346.799 299.836C347.453 299.369 347.779 298.725 347.779 297.904C347.779 297.325 347.63 296.849 347.331 296.476C347.033 296.084 346.594 295.748 346.015 295.468C345.437 295.169 344.55 294.787 343.355 294.32C341.526 293.573 340.201 292.743 339.379 291.828C338.558 290.913 338.147 289.775 338.147 288.412C338.147 287.348 338.437 286.405 339.015 285.584C339.594 284.763 340.406 284.128 341.451 283.68C342.497 283.232 343.701 283.008 345.063 283.008C346.183 283.008 347.173 283.101 348.031 283.288C348.909 283.456 349.767 283.727 350.607 284.1V287.068C348.983 286.284 347.341 285.892 345.679 285.892C344.485 285.892 343.561 286.116 342.907 286.564C342.254 286.993 341.927 287.609 341.927 288.412C341.927 288.991 342.077 289.467 342.375 289.84C342.674 290.195 343.066 290.503 343.551 290.764C344.055 291.007 344.951 291.399 346.239 291.94C347.546 292.481 348.573 293.013 349.319 293.536C350.085 294.059 350.654 294.675 351.027 295.384C351.419 296.075 351.615 296.924 351.615 297.932C351.615 299.668 350.99 301.021 349.739 301.992C348.489 302.944 346.641 303.42 344.195 303.42ZM358.944 303.42C357.339 303.42 356.023 303 354.996 302.16C353.969 301.301 353.456 300.153 353.456 298.716C353.456 297.223 353.941 296.056 354.912 295.216C355.883 294.376 357.245 293.956 359 293.956C360.699 293.956 362.164 294.301 363.396 294.992V294.628C363.396 293.676 363.097 292.985 362.5 292.556C361.921 292.127 360.979 291.912 359.672 291.912C358.851 291.912 358.039 291.996 357.236 292.164C356.433 292.313 355.724 292.528 355.108 292.808V290.036C355.668 289.775 356.415 289.56 357.348 289.392C358.3 289.224 359.215 289.14 360.092 289.14C362.425 289.14 364.152 289.644 365.272 290.652C366.392 291.641 366.952 293.023 366.952 294.796V303H363.62V301.684C363.041 302.244 362.379 302.673 361.632 302.972C360.904 303.271 360.008 303.42 358.944 303.42ZM359.812 300.844C360.596 300.844 361.305 300.695 361.94 300.396C362.575 300.079 363.06 299.649 363.396 299.108V297.624C362.369 296.896 361.193 296.532 359.868 296.532C357.983 296.532 357.04 297.26 357.04 298.716C357.04 299.425 357.273 299.957 357.74 300.312C358.225 300.667 358.916 300.844 359.812 300.844ZM370.176 289.56H373.592V291.716C374.133 290.988 374.899 290.447 375.888 290.092C376.896 289.737 378.044 289.56 379.332 289.56V292.248C377.969 292.248 376.784 292.463 375.776 292.892C374.787 293.303 374.096 293.956 373.704 294.852V303H370.176V289.56ZM385.249 303.42C383.643 303.42 382.327 303 381.301 302.16C380.274 301.301 379.761 300.153 379.761 298.716C379.761 297.223 380.246 296.056 381.217 295.216C382.187 294.376 383.55 293.956 385.305 293.956C387.003 293.956 388.469 294.301 389.701 294.992V294.628C389.701 293.676 389.402 292.985 388.805 292.556C388.226 292.127 387.283 291.912 385.977 291.912C385.155 291.912 384.343 291.996 383.541 292.164C382.738 292.313 382.029 292.528 381.413 292.808V290.036C381.973 289.775 382.719 289.56 383.653 289.392C384.605 289.224 385.519 289.14 386.397 289.14C388.73 289.14 390.457 289.644 391.577 290.652C392.697 291.641 393.257 293.023 393.257 294.796V303H389.925V301.684C389.346 302.244 388.683 302.673 387.937 302.972C387.209 303.271 386.313 303.42 385.249 303.42ZM386.117 300.844C386.901 300.844 387.61 300.695 388.245 300.396C388.879 300.079 389.365 299.649 389.701 299.108V297.624C388.674 296.896 387.498 296.532 386.173 296.532C384.287 296.532 383.345 297.26 383.345 298.716C383.345 299.425 383.578 299.957 384.045 300.312C384.53 300.667 385.221 300.844 386.117 300.844ZM396.481 282.308H400.009V291.268C401.278 289.849 402.921 289.14 404.937 289.14C406.747 289.14 408.101 289.635 408.997 290.624C409.893 291.595 410.341 292.892 410.341 294.516V303H406.813V294.852C406.813 292.892 405.898 291.912 404.069 291.912C403.266 291.912 402.51 292.108 401.801 292.5C401.091 292.873 400.494 293.443 400.009 294.208V303H396.481V282.308Z" fill="white"/>
<path d="M253.595 420.8L241.755 429.36V419.92L255.195 410.08H263.675V466H253.595V420.8ZM295.757 467.2C290.85 467.2 286.583 466.027 282.957 463.68C279.33 461.333 276.53 457.973 274.557 453.6C272.637 449.227 271.677 444.053 271.677 438.08C271.677 432.107 272.637 426.933 274.557 422.56C276.477 418.133 279.223 414.747 282.797 412.4C286.423 410.053 290.743 408.88 295.757 408.88C300.717 408.88 305.01 410.053 308.637 412.4C312.263 414.747 315.037 418.133 316.957 422.56C318.877 426.933 319.837 432.107 319.837 438.08C319.837 444.053 318.877 449.227 316.957 453.6C315.037 457.973 312.263 461.333 308.637 463.68C305.01 466.027 300.717 467.2 295.757 467.2ZM295.757 458.08C300.183 458.08 303.597 456.32 305.997 452.8C308.45 449.227 309.677 444.347 309.677 438.16C309.677 431.973 308.477 427.093 306.077 423.52C303.677 419.947 300.263 418.16 295.837 418.16C291.41 418.16 287.97 419.947 285.517 423.52C283.117 427.093 281.917 431.973 281.917 438.16C281.917 444.347 283.117 449.227 285.517 452.8C287.97 456.32 291.383 458.08 295.757 458.08ZM350.288 467.2C345.381 467.2 341.114 466.027 337.488 463.68C333.861 461.333 331.061 457.973 329.088 453.6C327.168 449.227 326.208 444.053 326.208 438.08C326.208 432.107 327.168 426.933 329.088 422.56C331.008 418.133 333.754 414.747 337.328 412.4C340.954 410.053 345.274 408.88 350.288 408.88C355.248 408.88 359.541 410.053 363.168 412.4C366.794 414.747 369.568 418.133 371.488 422.56C373.408 426.933 374.368 432.107 374.368 438.08C374.368 444.053 373.408 449.227 371.488 453.6C369.568 457.973 366.794 461.333 363.168 463.68C359.541 466.027 355.248 467.2 350.288 467.2ZM350.288 458.08C354.714 458.08 358.128 456.32 360.528 452.8C362.981 449.227 364.208 444.347 364.208 438.16C364.208 431.973 363.008 427.093 360.608 423.52C358.208 419.947 354.794 418.16 350.368 418.16C345.941 418.16 342.501 419.947 340.048 423.52C337.648 427.093 336.448 431.973 336.448 438.16C336.448 444.347 337.648 449.227 340.048 452.8C342.501 456.32 345.914 458.08 350.288 458.08ZM412.259 467.2C406.072 467.2 400.686 465.627 396.099 462.48C391.566 459.333 388.366 454.96 386.499 449.36H379.939V441.68H384.899C384.792 440.933 384.739 439.733 384.739 438.08C384.739 436.48 384.792 435.28 384.899 434.48H379.939V426.8H386.499C388.366 421.2 391.566 416.827 396.099 413.68C400.686 410.48 406.072 408.88 412.259 408.88C415.726 408.88 418.739 409.28 421.299 410.08C423.912 410.827 426.286 412 428.419 413.6V423.28C426.232 421.467 423.912 420.16 421.459 419.36C419.059 418.56 416.286 418.16 413.139 418.16C405.512 418.16 400.206 421.04 397.219 426.8H409.619V434.48H395.139C395.032 435.28 394.979 436.48 394.979 438.08C394.979 438.987 395.032 440.187 395.139 441.68H409.619V449.36H397.219C398.659 452.187 400.712 454.347 403.379 455.84C406.046 457.28 409.299 458 413.139 458C416.552 458 419.459 457.627 421.859 456.88C424.259 456.08 426.659 454.64 429.059 452.56V462.24C427.032 464.053 424.686 465.333 422.019 466.08C419.352 466.827 416.099 467.2 412.259 467.2Z" fill="white"/>
<path d="M253.595 420.8H254.595V418.843L253.009 419.99L253.595 420.8ZM241.755 429.36H240.755V431.317L242.341 430.17L241.755 429.36ZM241.755 419.92L241.164 419.113L240.755 419.413V419.92H241.755ZM255.195 410.08V409.08H254.868L254.604 409.273L255.195 410.08ZM263.675 410.08H264.675V409.08H263.675V410.08ZM263.675 466V467H264.675V466H263.675ZM253.595 466H252.595V467H253.595V466ZM253.009 419.99L241.169 428.55L242.341 430.17L254.181 421.61L253.009 419.99ZM242.755 429.36V419.92H240.755V429.36H242.755ZM242.345 420.727L255.785 410.887L254.604 409.273L241.164 419.113L242.345 420.727ZM255.195 411.08H263.675V409.08H255.195V411.08ZM262.675 410.08V466H264.675V410.08H262.675ZM263.675 465H253.595V467H263.675V465ZM254.595 466V420.8H252.595V466H254.595ZM282.957 463.68L282.413 464.52L282.413 464.52L282.957 463.68ZM274.557 453.6L273.641 454.002L273.645 454.011L274.557 453.6ZM274.557 422.56L275.472 422.962L275.474 422.958L274.557 422.56ZM282.797 412.4L282.253 411.56L282.248 411.564L282.797 412.4ZM308.637 412.4L308.093 413.24L308.093 413.24L308.637 412.4ZM316.957 422.56L316.039 422.958L316.041 422.962L316.957 422.56ZM316.957 453.6L316.041 453.198L316.041 453.198L316.957 453.6ZM308.637 463.68L309.18 464.52L309.18 464.52L308.637 463.68ZM305.997 452.8L305.172 452.234L305.17 452.237L305.997 452.8ZM306.077 423.52L305.246 424.078L305.246 424.078L306.077 423.52ZM285.517 423.52L284.692 422.954L284.686 422.962L285.517 423.52ZM285.517 452.8L284.686 453.358L284.691 453.365L284.696 453.372L285.517 452.8ZM295.757 466.2C291.016 466.2 286.943 465.069 283.5 462.84L282.413 464.52C286.223 466.985 290.684 468.2 295.757 468.2V466.2ZM283.5 462.84C280.052 460.61 277.371 457.407 275.468 453.189L273.645 454.011C275.688 458.54 278.608 462.057 282.413 464.52L283.5 462.84ZM275.472 453.198C273.62 448.979 272.677 443.949 272.677 438.08H270.677C270.677 444.158 271.653 449.474 273.641 454.002L275.472 453.198ZM272.677 438.08C272.677 432.211 273.62 427.181 275.472 422.962L273.641 422.158C271.653 426.686 270.677 432.002 270.677 438.08H272.677ZM275.474 422.958C277.327 418.686 279.955 415.462 283.345 413.236L282.248 411.564C278.491 414.031 275.626 417.58 273.639 422.162L275.474 422.958ZM283.34 413.24C286.78 411.014 290.904 409.88 295.757 409.88V407.88C290.582 407.88 286.066 409.093 282.253 411.56L283.34 413.24ZM295.757 409.88C300.553 409.88 304.651 411.012 308.093 413.24L309.18 411.56C305.368 409.094 300.88 407.88 295.757 407.88V409.88ZM308.093 413.24C311.535 415.467 314.188 418.69 316.039 422.958L317.874 422.162C315.885 417.576 312.991 414.026 309.18 411.56L308.093 413.24ZM316.041 422.962C317.893 427.181 318.837 432.211 318.837 438.08H320.837C320.837 432.002 319.86 426.686 317.872 422.158L316.041 422.962ZM318.837 438.08C318.837 443.949 317.893 448.979 316.041 453.198L317.872 454.002C319.86 449.474 320.837 444.158 320.837 438.08H318.837ZM316.041 453.198C314.191 457.412 311.539 460.611 308.093 462.84L309.18 464.52C312.988 462.056 315.882 458.535 317.872 454.002L316.041 453.198ZM308.093 462.84C304.651 465.068 300.553 466.2 295.757 466.2V468.2C300.88 468.2 305.368 466.986 309.18 464.52L308.093 462.84ZM295.757 459.08C300.498 459.08 304.228 457.169 306.823 453.363L305.17 452.237C302.965 455.471 299.868 457.08 295.757 457.08V459.08ZM306.821 453.366C309.428 449.569 310.677 444.466 310.677 438.16H308.677C308.677 444.227 307.472 448.884 305.172 452.234L306.821 453.366ZM310.677 438.16C310.677 431.858 309.456 426.758 306.907 422.962L305.246 424.078C307.497 427.429 308.677 432.089 308.677 438.16H310.677ZM306.907 422.962C304.315 419.103 300.585 417.16 295.837 417.16V419.16C299.941 419.16 303.038 420.79 305.246 424.078L306.907 422.962ZM295.837 417.16C291.089 417.16 287.337 419.102 284.692 422.954L286.341 424.086C288.603 420.791 291.731 419.16 295.837 419.16V417.16ZM284.686 422.962C282.137 426.758 280.917 431.858 280.917 438.16H282.917C282.917 432.089 284.096 427.429 286.347 424.078L284.686 422.962ZM280.917 438.16C280.917 444.462 282.137 449.562 284.686 453.358L286.347 452.242C284.096 448.891 282.917 444.231 282.917 438.16H280.917ZM284.696 453.372C287.341 457.166 291.064 459.08 295.757 459.08V457.08C291.703 457.08 288.599 455.474 286.337 452.228L284.696 453.372ZM337.488 463.68L336.945 464.52L336.945 464.52L337.488 463.68ZM329.088 453.6L328.172 454.002L328.176 454.011L329.088 453.6ZM329.088 422.56L330.003 422.962L330.005 422.958L329.088 422.56ZM337.328 412.4L336.785 411.56L336.779 411.564L337.328 412.4ZM363.168 412.4L362.625 413.24L362.625 413.24L363.168 412.4ZM371.488 422.56L370.57 422.958L370.572 422.962L371.488 422.56ZM371.488 453.6L370.572 453.198L370.572 453.198L371.488 453.6ZM363.168 463.68L363.711 464.52L363.711 464.52L363.168 463.68ZM360.528 452.8L359.703 452.234L359.702 452.237L360.528 452.8ZM360.608 423.52L359.778 424.078L359.778 424.078L360.608 423.52ZM340.048 423.52L339.223 422.954L339.218 422.962L340.048 423.52ZM340.048 452.8L339.218 453.358L339.222 453.365L339.227 453.372L340.048 452.8ZM350.288 466.2C345.547 466.2 341.475 465.069 338.031 462.84L336.945 464.52C340.754 466.985 345.215 468.2 350.288 468.2V466.2ZM338.031 462.84C334.583 460.61 331.903 457.407 329.999 453.189L328.176 454.011C330.22 458.54 333.139 462.057 336.945 464.52L338.031 462.84ZM330.003 453.198C328.151 448.979 327.208 443.949 327.208 438.08H325.208C325.208 444.158 326.184 449.474 328.172 454.002L330.003 453.198ZM327.208 438.08C327.208 432.211 328.151 427.181 330.003 422.962L328.172 422.158C326.184 426.686 325.208 432.002 325.208 438.08H327.208ZM330.005 422.958C331.858 418.686 334.487 415.462 337.877 413.236L336.779 411.564C333.022 414.031 330.158 417.58 328.17 422.162L330.005 422.958ZM337.871 413.24C341.311 411.014 345.436 409.88 350.288 409.88V407.88C345.113 407.88 340.598 409.093 336.785 411.56L337.871 413.24ZM350.288 409.88C355.084 409.88 359.183 411.012 362.625 413.24L363.711 411.56C359.9 409.094 355.411 407.88 350.288 407.88V409.88ZM362.625 413.24C366.067 415.467 368.719 418.69 370.57 422.958L372.405 422.162C370.416 417.576 367.522 414.026 363.711 411.56L362.625 413.24ZM370.572 422.962C372.424 427.181 373.368 432.211 373.368 438.08H375.368C375.368 432.002 374.391 426.686 372.403 422.158L370.572 422.962ZM373.368 438.08C373.368 443.949 372.424 448.979 370.572 453.198L372.403 454.002C374.391 449.474 375.368 444.158 375.368 438.08H373.368ZM370.572 453.198C368.722 457.412 366.07 460.611 362.625 462.84L363.711 464.52C367.519 462.056 370.413 458.535 372.403 454.002L370.572 453.198ZM362.625 462.84C359.183 465.068 355.084 466.2 350.288 466.2V468.2C355.411 468.2 359.9 466.986 363.711 464.52L362.625 462.84ZM350.288 459.08C355.03 459.08 358.759 457.169 361.354 453.363L359.702 452.237C357.496 455.471 354.399 457.08 350.288 457.08V459.08ZM361.352 453.366C363.959 449.569 365.208 444.466 365.208 438.16H363.208C363.208 444.227 362.003 448.884 359.703 452.234L361.352 453.366ZM365.208 438.16C365.208 431.858 363.987 426.758 361.438 422.962L359.778 424.078C362.028 427.429 363.208 432.089 363.208 438.16H365.208ZM361.438 422.962C358.846 419.103 355.116 417.16 350.368 417.16V419.16C354.473 419.16 357.57 420.79 359.778 424.078L361.438 422.962ZM350.368 417.16C345.62 417.16 341.868 419.102 339.223 422.954L340.872 424.086C343.134 420.791 346.262 419.16 350.368 419.16V417.16ZM339.218 422.962C336.668 426.758 335.448 431.858 335.448 438.16H337.448C337.448 432.089 338.627 427.429 340.878 424.078L339.218 422.962ZM335.448 438.16C335.448 444.462 336.668 449.562 339.218 453.358L340.878 452.242C338.627 448.891 337.448 444.231 337.448 438.16H335.448ZM339.227 453.372C341.872 457.166 345.595 459.08 350.288 459.08V457.08C346.234 457.08 343.13 455.474 340.868 452.228L339.227 453.372ZM396.099 462.48L395.529 463.302L395.533 463.305L396.099 462.48ZM386.499 449.36L387.448 449.044L387.22 448.36H386.499V449.36ZM379.939 449.36H378.939V450.36H379.939V449.36ZM379.939 441.68V440.68H378.939V441.68H379.939ZM384.899 441.68V442.68H386.052L385.889 441.539L384.899 441.68ZM384.899 434.48L385.89 434.612L386.041 433.48H384.899V434.48ZM379.939 434.48H378.939V435.48H379.939V434.48ZM379.939 426.8V425.8H378.939V426.8H379.939ZM386.499 426.8V427.8H387.22L387.448 427.116L386.499 426.8ZM396.099 413.68L396.669 414.501L396.671 414.5L396.099 413.68ZM421.299 410.08L421.001 411.034L421.013 411.038L421.024 411.042L421.299 410.08ZM428.419 413.6H429.419V413.1L429.019 412.8L428.419 413.6ZM428.419 423.28L427.781 424.05L429.419 425.408V423.28H428.419ZM421.459 419.36L421.143 420.309L421.149 420.311L421.459 419.36ZM397.219 426.8L396.331 426.34L395.574 427.8H397.219V426.8ZM409.619 426.8H410.619V425.8H409.619V426.8ZM409.619 434.48V435.48H410.619V434.48H409.619ZM395.139 434.48V433.48H394.264L394.148 434.348L395.139 434.48ZM395.139 441.68L394.142 441.751L394.208 442.68H395.139V441.68ZM409.619 441.68H410.619V440.68H409.619V441.68ZM409.619 449.36V450.36H410.619V449.36H409.619ZM397.219 449.36V448.36H395.587L396.328 449.814L397.219 449.36ZM403.379 455.84L402.89 456.713L402.897 456.716L402.904 456.72L403.379 455.84ZM421.859 456.88L422.156 457.835L422.166 457.832L422.175 457.829L421.859 456.88ZM429.059 452.56H430.059V450.37L428.404 451.804L429.059 452.56ZM429.059 462.24L429.726 462.985L430.059 462.687V462.24H429.059ZM422.019 466.08L422.289 467.043L422.289 467.043L422.019 466.08ZM412.259 466.2C406.251 466.2 401.066 464.675 396.665 461.655L395.533 463.305C400.305 466.578 405.894 468.2 412.259 468.2V466.2ZM396.669 461.659C392.326 458.644 389.251 454.454 387.448 449.044L385.55 449.676C387.48 455.466 390.805 460.023 395.529 463.301L396.669 461.659ZM386.499 448.36H379.939V450.36H386.499V448.36ZM380.939 449.36V441.68H378.939V449.36H380.939ZM379.939 442.68H384.899V440.68H379.939V442.68ZM385.889 441.539C385.793 440.867 385.739 439.728 385.739 438.08H383.739C383.739 439.739 383.792 440.999 383.909 441.821L385.889 441.539ZM385.739 438.08C385.739 436.49 385.793 435.344 385.89 434.612L383.908 434.348C383.792 435.216 383.739 436.47 383.739 438.08H385.739ZM384.899 433.48H379.939V435.48H384.899V433.48ZM380.939 434.48V426.8H378.939V434.48H380.939ZM379.939 427.8H386.499V425.8H379.939V427.8ZM387.448 427.116C389.251 421.706 392.326 417.516 396.669 414.501L395.529 412.859C390.805 416.137 387.48 420.694 385.55 426.484L387.448 427.116ZM396.671 414.5C401.072 411.43 406.254 409.88 412.259 409.88V407.88C405.89 407.88 400.299 409.53 395.527 412.86L396.671 414.5ZM412.259 409.88C415.653 409.88 418.561 410.272 421.001 411.034L421.597 409.126C418.917 408.288 415.799 407.88 412.259 407.88V409.88ZM421.024 411.042C423.523 411.755 425.785 412.875 427.819 414.4L429.019 412.8C426.786 411.125 424.302 409.898 421.574 409.118L421.024 411.042ZM427.419 413.6V423.28H429.419V413.6H427.419ZM429.057 422.51C426.783 420.625 424.354 419.252 421.769 418.409L421.149 420.311C423.471 421.068 425.681 422.309 427.781 424.05L429.057 422.51ZM421.775 418.411C419.252 417.57 416.368 417.16 413.139 417.16V419.16C416.203 419.16 418.866 419.55 421.143 420.309L421.775 418.411ZM413.139 417.16C409.202 417.16 405.795 417.903 402.962 419.441C400.12 420.984 397.909 423.296 396.331 426.34L398.107 427.26C399.515 424.544 401.452 422.536 403.916 421.199C406.389 419.857 409.449 419.16 413.139 419.16V417.16ZM397.219 427.8H409.619V425.8H397.219V427.8ZM408.619 426.8V434.48H410.619V426.8H408.619ZM409.619 433.48H395.139V435.48H409.619V433.48ZM394.148 434.348C394.032 435.216 393.979 436.47 393.979 438.08H395.979C395.979 436.49 396.033 435.344 396.13 434.612L394.148 434.348ZM393.979 438.08C393.979 439.021 394.034 440.247 394.142 441.751L396.137 441.609C396.031 440.126 395.979 438.953 395.979 438.08H393.979ZM395.139 442.68H409.619V440.68H395.139V442.68ZM408.619 441.68V449.36H410.619V441.68H408.619ZM409.619 448.36H397.219V450.36H409.619V448.36ZM396.328 449.814C397.854 452.81 400.044 455.119 402.89 456.713L403.868 454.967C401.38 453.575 399.464 451.564 398.11 448.906L396.328 449.814ZM402.904 456.72C405.75 458.257 409.177 459 413.139 459V457C409.422 457 406.341 456.303 403.854 454.96L402.904 456.72ZM413.139 459C416.62 459 419.632 458.62 422.156 457.835L421.562 455.925C419.286 456.633 416.485 457 413.139 457V459ZM422.175 457.829C424.727 456.978 427.239 455.46 429.714 453.316L428.404 451.804C426.079 453.82 423.791 455.182 421.543 455.931L422.175 457.829ZM428.059 452.56V462.24H430.059V452.56H428.059ZM428.392 461.495C426.482 463.204 424.272 464.411 421.749 465.117L422.289 467.043C425.1 466.256 427.583 464.902 429.726 462.985L428.392 461.495ZM421.749 465.117C419.197 465.832 416.04 466.2 412.259 466.2V468.2C416.158 468.2 419.508 467.822 422.289 467.043L421.749 465.117Z" fill="black"/>
<line x1="140" y1="511.5" x2="530" y2="511.5" stroke="white"/>
<rect x="246" y="496" width="178" height="32" rx="16" fill="white"/>
<path d="M281.981 508.684H279.027V507.214H286.713V508.684H283.759V517H281.981V508.684ZM291.98 517.21C291 517.21 290.113 517 289.32 516.58C288.536 516.151 287.915 515.549 287.458 514.774C287.01 513.999 286.786 513.113 286.786 512.114C286.786 511.115 287.01 510.229 287.458 509.454C287.915 508.679 288.536 508.077 289.32 507.648C290.113 507.219 291 507.004 291.98 507.004C292.95 507.004 293.828 507.219 294.612 507.648C295.405 508.077 296.026 508.679 296.474 509.454C296.931 510.229 297.16 511.115 297.16 512.114C297.16 513.113 296.931 513.999 296.474 514.774C296.026 515.539 295.405 516.137 294.612 516.566C293.828 516.995 292.95 517.21 291.98 517.21ZM291.98 515.6C292.605 515.6 293.174 515.46 293.688 515.18C294.201 514.891 294.607 514.485 294.906 513.962C295.214 513.43 295.368 512.814 295.368 512.114C295.368 511.423 295.218 510.817 294.92 510.294C294.621 509.762 294.215 509.351 293.702 509.062C293.188 508.773 292.614 508.628 291.98 508.628C291.345 508.628 290.766 508.773 290.244 509.062C289.73 509.351 289.324 509.762 289.026 510.294C288.727 510.817 288.578 511.423 288.578 512.114C288.578 512.814 288.727 513.43 289.026 513.962C289.334 514.485 289.744 514.891 290.258 515.18C290.78 515.46 291.354 515.6 291.98 515.6ZM300.192 508.684H297.238V507.214H304.924V508.684H301.97V517H300.192V508.684ZM307.932 507.214H309.654L313.56 517H311.754L310.858 514.746H306.714L305.832 517H304.012L307.932 507.214ZM310.368 513.276L308.786 509.118L307.204 513.276H310.368ZM314.956 507.214H316.734V515.53H321.438V517H314.956V507.214ZM327.603 507.214H332.251C333.147 507.214 333.842 507.438 334.337 507.886C334.841 508.334 335.093 508.987 335.093 509.846C335.093 510.303 334.981 510.719 334.757 511.092C334.542 511.456 334.253 511.736 333.889 511.932C334.906 512.268 335.415 513.019 335.415 514.186C335.415 514.765 335.284 515.269 335.023 515.698C334.761 516.118 334.407 516.44 333.959 516.664C333.52 516.888 333.03 517 332.489 517H327.603V507.214ZM331.971 511.288C332.372 511.288 332.694 511.181 332.937 510.966C333.179 510.742 333.301 510.406 333.301 509.958C333.301 509.445 333.179 509.095 332.937 508.908C332.703 508.712 332.353 508.614 331.887 508.614H329.367V511.288H331.971ZM332.083 515.6C332.577 515.6 332.955 515.497 333.217 515.292C333.487 515.087 333.623 514.723 333.623 514.2C333.623 513.677 333.483 513.299 333.203 513.066C332.923 512.833 332.517 512.716 331.985 512.716H329.367V515.6H332.083ZM339.542 507.214H341.264L345.17 517H343.364L342.468 514.746H338.324L337.442 517H335.622L339.542 507.214ZM341.978 513.276L340.396 509.118L338.814 513.276H341.978ZM346.566 507.214H348.344V515.53H353.048V517H346.566V507.214ZM357.602 507.214H359.324L363.23 517H361.424L360.528 514.746H356.384L355.502 517H353.682L357.602 507.214ZM360.038 513.276L358.456 509.118L356.874 513.276H360.038ZM364.626 507.214H366.306L370.884 514.032V507.214H372.662V517H370.982L366.404 510.168V517H364.626V507.214ZM379.303 517.21C378.276 517.21 377.366 517.005 376.573 516.594C375.78 516.174 375.164 515.581 374.725 514.816C374.286 514.041 374.067 513.141 374.067 512.114C374.067 511.087 374.286 510.191 374.725 509.426C375.164 508.651 375.78 508.054 376.573 507.634C377.366 507.214 378.276 507.004 379.303 507.004C380.656 507.004 381.786 507.326 382.691 507.97V509.664C381.879 508.973 380.801 508.628 379.457 508.628C378.738 508.628 378.108 508.773 377.567 509.062C377.026 509.342 376.606 509.743 376.307 510.266C376.008 510.789 375.859 511.405 375.859 512.114C375.859 512.823 376.008 513.439 376.307 513.962C376.615 514.485 377.04 514.891 377.581 515.18C378.122 515.46 378.748 515.6 379.457 515.6C380.148 515.6 380.764 515.516 381.305 515.348C381.846 515.171 382.346 514.891 382.803 514.508V516.202C381.944 516.874 380.778 517.21 379.303 517.21ZM384.204 507.214H390.826V508.684H385.982V511.372H389.58V512.842H385.982V515.53H390.826V517H384.204V507.214Z" fill="black"/>
<rect x="339" y="334" width="152" height="32" rx="16" fill="white"/>
<rect x="172" y="328" width="326" height="45" rx="22.5" stroke="url(#paint0_linear_221_126)" stroke-width="3"/>
<path d="M392.21 356.21C391.631 356.21 391.057 356.154 390.488 356.042C389.928 355.939 389.466 355.799 389.102 355.622V354.096C389.569 354.32 390.059 354.488 390.572 354.6C391.085 354.712 391.589 354.768 392.084 354.768C392.709 354.768 393.185 354.651 393.512 354.418C393.839 354.185 394.002 353.863 394.002 353.452C394.002 353.163 393.927 352.925 393.778 352.738C393.629 352.542 393.409 352.374 393.12 352.234C392.831 352.085 392.387 351.893 391.79 351.66C390.875 351.287 390.213 350.871 389.802 350.414C389.391 349.957 389.186 349.387 389.186 348.706C389.186 348.174 389.331 347.703 389.62 347.292C389.909 346.881 390.315 346.564 390.838 346.34C391.361 346.116 391.963 346.004 392.644 346.004C393.204 346.004 393.699 346.051 394.128 346.144C394.567 346.228 394.996 346.363 395.416 346.55V348.034C394.604 347.642 393.783 347.446 392.952 347.446C392.355 347.446 391.893 347.558 391.566 347.782C391.239 347.997 391.076 348.305 391.076 348.706C391.076 348.995 391.151 349.233 391.3 349.42C391.449 349.597 391.645 349.751 391.888 349.882C392.14 350.003 392.588 350.199 393.232 350.47C393.885 350.741 394.399 351.007 394.772 351.268C395.155 351.529 395.439 351.837 395.626 352.192C395.822 352.537 395.92 352.962 395.92 353.466C395.92 354.334 395.607 355.011 394.982 355.496C394.357 355.972 393.433 356.21 392.21 356.21ZM400.336 346.214H402.058L405.964 356H404.158L403.262 353.746H399.118L398.236 356H396.416L400.336 346.214ZM402.772 352.276L401.19 348.118L399.608 352.276H402.772ZM405.194 346.214H407.084L409.968 353.62L412.866 346.214H414.742L410.836 356H409.114L405.194 346.214ZM416.138 346.214H417.916V356H416.138V346.214ZM419.597 346.214H421.277L425.855 353.032V346.214H427.633V356H425.953L421.375 349.168V356H419.597V346.214ZM434.274 356.21C433.247 356.21 432.337 356.005 431.544 355.594C430.75 355.174 430.134 354.581 429.696 353.816C429.257 353.041 429.038 352.141 429.038 351.114C429.038 350.087 429.257 349.191 429.696 348.426C430.134 347.651 430.75 347.054 431.544 346.634C432.337 346.214 433.247 346.004 434.274 346.004C434.974 346.004 435.599 346.079 436.15 346.228C436.7 346.377 437.2 346.615 437.648 346.942V348.636C437.237 348.281 436.766 348.025 436.234 347.866C435.702 347.707 435.1 347.628 434.428 347.628C433.756 347.628 433.144 347.773 432.594 348.062C432.052 348.342 431.623 348.748 431.306 349.28C430.988 349.803 430.83 350.414 430.83 351.114C430.83 351.823 430.979 352.444 431.278 352.976C431.576 353.499 431.992 353.905 432.524 354.194C433.056 354.474 433.662 354.614 434.344 354.614C435.062 354.614 435.655 354.493 436.122 354.25V352.052H434.47V350.638H437.9V355.202C437.032 355.874 435.823 356.21 434.274 356.21Z" fill="black"/>
<path d="M222.755 355.21C221.728 355.21 220.818 355.005 220.025 354.594C219.232 354.174 218.616 353.581 218.177 352.816C217.738 352.041 217.519 351.141 217.519 350.114C217.519 349.087 217.738 348.191 218.177 347.426C218.616 346.651 219.232 346.054 220.025 345.634C220.818 345.214 221.728 345.004 222.755 345.004C224.108 345.004 225.238 345.326 226.143 345.97V347.664C225.331 346.973 224.253 346.628 222.909 346.628C222.19 346.628 221.56 346.773 221.019 347.062C220.478 347.342 220.058 347.743 219.759 348.266C219.46 348.789 219.311 349.405 219.311 350.114C219.311 350.823 219.46 351.439 219.759 351.962C220.067 352.485 220.492 352.891 221.033 353.18C221.574 353.46 222.2 353.6 222.909 353.6C223.6 353.6 224.216 353.516 224.757 353.348C225.298 353.171 225.798 352.891 226.255 352.508V354.202C225.396 354.874 224.23 355.21 222.755 355.21ZM227.656 345.214H229.434V349.274H234.138V345.214H235.902V355H234.138V350.744H229.434V355H227.656V345.214ZM237.582 345.214H244.204V346.684H239.36V349.372H242.958V350.842H239.36V353.53H244.204V355H237.582V345.214ZM250.222 355.21C249.195 355.21 248.285 355.005 247.492 354.594C246.698 354.174 246.082 353.581 245.644 352.816C245.205 352.041 244.986 351.141 244.986 350.114C244.986 349.087 245.205 348.191 245.644 347.426C246.082 346.651 246.698 346.054 247.492 345.634C248.285 345.214 249.195 345.004 250.222 345.004C251.575 345.004 252.704 345.326 253.61 345.97V347.664C252.798 346.973 251.72 346.628 250.376 346.628C249.657 346.628 249.027 346.773 248.486 347.062C247.944 347.342 247.524 347.743 247.226 348.266C246.927 348.789 246.778 349.405 246.778 350.114C246.778 350.823 246.927 351.439 247.226 351.962C247.534 352.485 247.958 352.891 248.5 353.18C249.041 353.46 249.666 353.6 250.376 353.6C251.066 353.6 251.682 353.516 252.224 353.348C252.765 353.171 253.264 352.891 253.722 352.508V354.202C252.863 354.874 251.696 355.21 250.222 355.21ZM255.123 345.214H256.901V349.652L260.919 345.214H263.047L258.707 350.002L263.327 355H261.199L256.901 350.352V355H255.123V345.214ZM264.721 345.214H266.499V355H264.721V345.214ZM268.18 345.214H269.86L274.438 352.032V345.214H276.216V355H274.536L269.958 348.168V355H268.18V345.214ZM282.857 355.21C281.83 355.21 280.92 355.005 280.127 354.594C279.333 354.174 278.717 353.581 278.279 352.816C277.84 352.041 277.621 351.141 277.621 350.114C277.621 349.087 277.84 348.191 278.279 347.426C278.717 346.651 279.333 346.054 280.127 345.634C280.92 345.214 281.83 345.004 282.857 345.004C283.557 345.004 284.182 345.079 284.733 345.228C285.283 345.377 285.783 345.615 286.231 345.942V347.636C285.82 347.281 285.349 347.025 284.817 346.866C284.285 346.707 283.683 346.628 283.011 346.628C282.339 346.628 281.727 346.773 281.177 347.062C280.635 347.342 280.206 347.748 279.889 348.28C279.571 348.803 279.413 349.414 279.413 350.114C279.413 350.823 279.562 351.444 279.861 351.976C280.159 352.499 280.575 352.905 281.107 353.194C281.639 353.474 282.245 353.614 282.927 353.614C283.645 353.614 284.238 353.493 284.705 353.25V351.052H283.053V349.638H286.483V354.202C285.615 354.874 284.406 355.21 282.857 355.21Z" fill="white"/>
<rect x="172" y="814" width="326" height="63" rx="31.5" stroke="white" stroke-width="3"/>
<path d="M309.04 852.27C307.984 852.27 307.078 852.006 306.322 851.478C305.566 850.95 304.984 850.194 304.576 849.21C304.18 848.226 303.982 847.062 303.982 845.718C303.982 844.374 304.18 843.21 304.576 842.226C304.972 841.242 305.548 840.486 306.304 839.958C307.06 839.418 307.972 839.148 309.04 839.148C310.108 839.148 311.02 839.418 311.776 839.958C312.532 840.486 313.108 841.242 313.504 842.226C313.9 843.21 314.098 844.374 314.098 845.718C314.098 847.062 313.894 848.226 313.486 849.21C313.09 850.194 312.514 850.95 311.758 851.478C311.002 852.006 310.096 852.27 309.04 852.27ZM309.04 851.082C309.796 851.082 310.45 850.866 311.002 850.434C311.566 849.99 311.998 849.366 312.298 848.562C312.61 847.746 312.766 846.798 312.766 845.718C312.766 844.638 312.616 843.696 312.316 842.892C312.028 842.088 311.602 841.464 311.038 841.02C310.474 840.576 309.808 840.354 309.04 840.354C308.272 840.354 307.606 840.576 307.042 841.02C306.478 841.464 306.046 842.088 305.746 842.892C305.458 843.696 305.314 844.638 305.314 845.718C305.314 846.798 305.464 847.746 305.764 848.562C306.076 849.366 306.508 849.99 307.06 850.434C307.624 850.866 308.284 851.082 309.04 851.082Z" fill="white" fill-opacity="0.5"/>
<path d="M325.642 851.21C324.56 851.21 323.617 850.935 322.814 850.384C322.021 849.833 321.461 849.068 321.134 848.088H319.986V846.744H320.854C320.836 846.613 320.826 846.403 320.826 846.114C320.826 845.834 320.836 845.624 320.854 845.484H319.986V844.14H321.134C321.461 843.16 322.021 842.395 322.814 841.844C323.617 841.284 324.56 841.004 325.642 841.004C326.249 841.004 326.776 841.074 327.224 841.214C327.682 841.345 328.097 841.55 328.47 841.83V843.524C328.088 843.207 327.682 842.978 327.252 842.838C326.832 842.698 326.347 842.628 325.796 842.628C324.462 842.628 323.533 843.132 323.01 844.14H325.18V845.484H322.646C322.628 845.624 322.618 845.834 322.618 846.114C322.618 846.273 322.628 846.483 322.646 846.744H325.18V848.088H323.01C323.262 848.583 323.622 848.961 324.088 849.222C324.555 849.474 325.124 849.6 325.796 849.6C326.394 849.6 326.902 849.535 327.322 849.404C327.742 849.264 328.162 849.012 328.582 848.648V850.342C328.228 850.659 327.817 850.883 327.35 851.014C326.884 851.145 326.314 851.21 325.642 851.21Z" fill="white"/>
<rect x="346" y="814" width="152" height="63" rx="31.5" stroke="url(#paint1_linear_221_126)" stroke-width="3"/>
<path d="M378.627 841.308H374.829V839.418H384.711V841.308H380.913V852H378.627V841.308ZM391.482 852.27C390.222 852.27 389.082 852 388.062 851.46C387.054 850.908 386.256 850.134 385.668 849.138C385.092 848.142 384.804 847.002 384.804 845.718C384.804 844.434 385.092 843.294 385.668 842.298C386.256 841.302 387.054 840.528 388.062 839.976C389.082 839.424 390.222 839.148 391.482 839.148C392.73 839.148 393.858 839.424 394.866 839.976C395.886 840.528 396.684 841.302 397.26 842.298C397.848 843.294 398.142 844.434 398.142 845.718C398.142 847.002 397.848 848.142 397.26 849.138C396.684 850.122 395.886 850.89 394.866 851.442C393.858 851.994 392.73 852.27 391.482 852.27ZM391.482 850.2C392.286 850.2 393.018 850.02 393.678 849.66C394.338 849.288 394.86 848.766 395.244 848.094C395.64 847.41 395.838 846.618 395.838 845.718C395.838 844.83 395.646 844.05 395.262 843.378C394.878 842.694 394.356 842.166 393.696 841.794C393.036 841.422 392.298 841.236 391.482 841.236C390.666 841.236 389.922 841.422 389.25 841.794C388.59 842.166 388.068 842.694 387.684 843.378C387.3 844.05 387.108 844.83 387.108 845.718C387.108 846.618 387.3 847.41 387.684 848.094C388.08 848.766 388.608 849.288 389.268 849.66C389.94 850.02 390.678 850.2 391.482 850.2ZM410.069 852.27C409.325 852.27 408.587 852.198 407.855 852.054C407.135 851.922 406.541 851.742 406.073 851.514V849.552C406.673 849.84 407.303 850.056 407.963 850.2C408.623 850.344 409.271 850.416 409.907 850.416C410.711 850.416 411.323 850.266 411.743 849.966C412.163 849.666 412.373 849.252 412.373 848.724C412.373 848.352 412.277 848.046 412.085 847.806C411.893 847.554 411.611 847.338 411.239 847.158C410.867 846.966 410.297 846.72 409.529 846.42C408.353 845.94 407.501 845.406 406.973 844.818C406.445 844.23 406.181 843.498 406.181 842.622C406.181 841.938 406.367 841.332 406.739 840.804C407.111 840.276 407.633 839.868 408.305 839.58C408.977 839.292 409.751 839.148 410.627 839.148C411.347 839.148 411.983 839.208 412.535 839.328C413.099 839.436 413.651 839.61 414.191 839.85V841.758C413.147 841.254 412.091 841.002 411.023 841.002C410.255 841.002 409.661 841.146 409.241 841.434C408.821 841.71 408.611 842.106 408.611 842.622C408.611 842.994 408.707 843.3 408.899 843.54C409.091 843.768 409.343 843.966 409.655 844.134C409.979 844.29 410.555 844.542 411.383 844.89C412.223 845.238 412.883 845.58 413.363 845.916C413.855 846.252 414.221 846.648 414.461 847.104C414.713 847.548 414.839 848.094 414.839 848.742C414.839 849.858 414.437 850.728 413.633 851.352C412.829 851.964 411.641 852.27 410.069 852.27ZM420.518 839.418H422.732L427.754 852H425.432L424.28 849.102H418.952L417.818 852H415.478L420.518 839.418ZM423.65 847.212L421.616 841.866L419.582 847.212H423.65ZM426.763 839.418H429.193L432.901 848.94L436.627 839.418H439.039L434.017 852H431.803L426.763 839.418ZM440.834 839.418H443.12V852H440.834V839.418ZM445.281 839.418H447.441L453.327 848.184V839.418H455.613V852H453.453L447.567 843.216V852H445.281V839.418ZM464.151 852.27C462.831 852.27 461.661 852.006 460.641 851.478C459.621 850.938 458.829 850.176 458.265 849.192C457.701 848.196 457.419 847.038 457.419 845.718C457.419 844.398 457.701 843.246 458.265 842.262C458.829 841.266 459.621 840.498 460.641 839.958C461.661 839.418 462.831 839.148 464.151 839.148C465.051 839.148 465.855 839.244 466.563 839.436C467.271 839.628 467.913 839.934 468.489 840.354V842.532C467.961 842.076 467.355 841.746 466.671 841.542C465.987 841.338 465.213 841.236 464.349 841.236C463.485 841.236 462.699 841.422 461.991 841.794C461.295 842.154 460.743 842.676 460.335 843.36C459.927 844.032 459.723 844.818 459.723 845.718C459.723 846.63 459.915 847.428 460.299 848.112C460.683 848.784 461.217 849.306 461.901 849.678C462.585 850.038 463.365 850.218 464.241 850.218C465.165 850.218 465.927 850.062 466.527 849.75V846.924H464.403V845.106H468.813V850.974C467.697 851.838 466.143 852.27 464.151 852.27Z" fill="white"/>
<rect x="346" y="584" width="152" height="189" rx="31" stroke="white" stroke-width="3"/>
<path d="M462.04 626.27C460.984 626.27 460.078 626.006 459.322 625.478C458.566 624.95 457.984 624.194 457.576 623.21C457.18 622.226 456.982 621.062 456.982 619.718C456.982 618.374 457.18 617.21 457.576 616.226C457.972 615.242 458.548 614.486 459.304 613.958C460.06 613.418 460.972 613.148 462.04 613.148C463.108 613.148 464.02 613.418 464.776 613.958C465.532 614.486 466.108 615.242 466.504 616.226C466.9 617.21 467.098 618.374 467.098 619.718C467.098 621.062 466.894 622.226 466.486 623.21C466.09 624.194 465.514 624.95 464.758 625.478C464.002 626.006 463.096 626.27 462.04 626.27ZM462.04 625.082C462.796 625.082 463.45 624.866 464.002 624.434C464.566 623.99 464.998 623.366 465.298 622.562C465.61 621.746 465.766 620.798 465.766 619.718C465.766 618.638 465.616 617.696 465.316 616.892C465.028 616.088 464.602 615.464 464.038 615.02C463.474 614.576 462.808 614.354 462.04 614.354C461.272 614.354 460.606 614.576 460.042 615.02C459.478 615.464 459.046 616.088 458.746 616.892C458.458 617.696 458.314 618.638 458.314 619.718C458.314 620.798 458.464 621.746 458.764 622.562C459.076 623.366 459.508 623.99 460.06 624.434C460.624 624.866 461.284 625.082 462.04 625.082Z" fill="white" fill-opacity="0.5"/>
<path d="M478.642 625.21C477.56 625.21 476.617 624.935 475.814 624.384C475.021 623.833 474.461 623.068 474.134 622.088H472.986V620.744H473.854C473.836 620.613 473.826 620.403 473.826 620.114C473.826 619.834 473.836 619.624 473.854 619.484H472.986V618.14H474.134C474.461 617.16 475.021 616.395 475.814 615.844C476.617 615.284 477.56 615.004 478.642 615.004C479.249 615.004 479.776 615.074 480.224 615.214C480.682 615.345 481.097 615.55 481.47 615.83V617.524C481.088 617.207 480.682 616.978 480.252 616.838C479.832 616.698 479.347 616.628 478.796 616.628C477.462 616.628 476.533 617.132 476.01 618.14H478.18V619.484H475.646C475.628 619.624 475.618 619.834 475.618 620.114C475.618 620.273 475.628 620.483 475.646 620.744H478.18V622.088H476.01C476.262 622.583 476.622 622.961 477.088 623.222C477.555 623.474 478.124 623.6 478.796 623.6C479.394 623.6 479.902 623.535 480.322 623.404C480.742 623.264 481.162 623.012 481.582 622.648V624.342C481.228 624.659 480.817 624.883 480.35 625.014C479.884 625.145 479.314 625.21 478.642 625.21Z" fill="white"/>
<path d="M365 645.5H482" stroke="white" stroke-opacity="0.3"/>
<path d="M448.778 672.418H450.182V685H448.778V672.418ZM452.715 676.36H454.065V677.656C454.485 677.116 454.995 676.72 455.595 676.468C456.207 676.216 456.855 676.09 457.539 676.09C458.679 676.09 459.525 676.39 460.077 676.99C460.641 677.59 460.923 678.394 460.923 679.402V685H459.537V679.528C459.537 678.784 459.357 678.214 458.997 677.818C458.637 677.41 458.061 677.206 457.269 677.206C455.937 677.206 454.881 677.806 454.101 679.006V685H452.715V676.36ZM463.98 677.44H462.63V676.36H463.98V674.452C463.98 673.516 464.232 672.808 464.736 672.328C465.252 671.848 465.942 671.608 466.806 671.608C467.262 671.608 467.688 671.668 468.084 671.788V672.958C467.748 672.802 467.4 672.724 467.04 672.724C466.464 672.724 466.038 672.874 465.762 673.174C465.498 673.462 465.366 673.912 465.366 674.524V676.36H467.562V677.44H465.366V685H463.98V677.44ZM473.315 685.27C472.379 685.27 471.545 685.084 470.813 684.712C470.093 684.34 469.529 683.812 469.121 683.128C468.725 682.432 468.527 681.622 468.527 680.698C468.527 679.786 468.731 678.982 469.139 678.286C469.547 677.59 470.111 677.05 470.831 676.666C471.563 676.282 472.391 676.09 473.315 676.09C474.239 676.09 475.061 676.282 475.781 676.666C476.513 677.05 477.083 677.59 477.491 678.286C477.899 678.982 478.103 679.786 478.103 680.698C478.103 681.622 477.899 682.432 477.491 683.128C477.095 683.812 476.531 684.34 475.799 684.712C475.079 685.084 474.251 685.27 473.315 685.27ZM473.315 684.172C474.347 684.172 475.169 683.86 475.781 683.236C476.405 682.6 476.717 681.754 476.717 680.698C476.717 679.63 476.405 678.784 475.781 678.16C475.169 677.524 474.347 677.206 473.315 677.206C472.283 677.206 471.455 677.524 470.831 678.16C470.219 678.784 469.913 679.63 469.913 680.698C469.913 681.754 470.219 682.6 470.831 683.236C471.455 683.86 472.283 684.172 473.315 684.172Z" fill="white" fill-opacity="0.5"/>
<rect x="172" y="584" width="152" height="189" rx="31" stroke="white" stroke-width="3"/>
<path d="M288.04 626.27C286.984 626.27 286.078 626.006 285.322 625.478C284.566 624.95 283.984 624.194 283.576 623.21C283.18 622.226 282.982 621.062 282.982 619.718C282.982 618.374 283.18 617.21 283.576 616.226C283.972 615.242 284.548 614.486 285.304 613.958C286.06 613.418 286.972 613.148 288.04 613.148C289.108 613.148 290.02 613.418 290.776 613.958C291.532 614.486 292.108 615.242 292.504 616.226C292.9 617.21 293.098 618.374 293.098 619.718C293.098 621.062 292.894 622.226 292.486 623.21C292.09 624.194 291.514 624.95 290.758 625.478C290.002 626.006 289.096 626.27 288.04 626.27ZM288.04 625.082C288.796 625.082 289.45 624.866 290.002 624.434C290.566 623.99 290.998 623.366 291.298 622.562C291.61 621.746 291.766 620.798 291.766 619.718C291.766 618.638 291.616 617.696 291.316 616.892C291.028 616.088 290.602 615.464 290.038 615.02C289.474 614.576 288.808 614.354 288.04 614.354C287.272 614.354 286.606 614.576 286.042 615.02C285.478 615.464 285.046 616.088 284.746 616.892C284.458 617.696 284.314 618.638 284.314 619.718C284.314 620.798 284.464 621.746 284.764 622.562C285.076 623.366 285.508 623.99 286.06 624.434C286.624 624.866 287.284 625.082 288.04 625.082Z" fill="white" fill-opacity="0.5"/>
<path d="M304.642 625.21C303.56 625.21 302.617 624.935 301.814 624.384C301.021 623.833 300.461 623.068 300.134 622.088H298.986V620.744H299.854C299.836 620.613 299.826 620.403 299.826 620.114C299.826 619.834 299.836 619.624 299.854 619.484H298.986V618.14H300.134C300.461 617.16 301.021 616.395 301.814 615.844C302.617 615.284 303.56 615.004 304.642 615.004C305.249 615.004 305.776 615.074 306.224 615.214C306.682 615.345 307.097 615.55 307.47 615.83V617.524C307.088 617.207 306.682 616.978 306.252 616.838C305.832 616.698 305.347 616.628 304.796 616.628C303.462 616.628 302.533 617.132 302.01 618.14H304.18V619.484H301.646C301.628 619.624 301.618 619.834 301.618 620.114C301.618 620.273 301.628 620.483 301.646 620.744H304.18V622.088H302.01C302.262 622.583 302.622 622.961 303.088 623.222C303.555 623.474 304.124 623.6 304.796 623.6C305.394 623.6 305.902 623.535 306.322 623.404C306.742 623.264 307.162 623.012 307.582 622.648V624.342C307.228 624.659 306.817 624.883 306.35 625.014C305.884 625.145 305.314 625.21 304.642 625.21Z" fill="white"/>
<path d="M191 645.5H308" stroke="white" stroke-opacity="0.3"/>
<path d="M274.778 672.418H276.182V685H274.778V672.418ZM278.715 676.36H280.065V677.656C280.485 677.116 280.995 676.72 281.595 676.468C282.207 676.216 282.855 676.09 283.539 676.09C284.679 676.09 285.525 676.39 286.077 676.99C286.641 677.59 286.923 678.394 286.923 679.402V685H285.537V679.528C285.537 678.784 285.357 678.214 284.997 677.818C284.637 677.41 284.061 677.206 283.269 677.206C281.937 677.206 280.881 677.806 280.101 679.006V685H278.715V676.36ZM289.98 677.44H288.63V676.36H289.98V674.452C289.98 673.516 290.232 672.808 290.736 672.328C291.252 671.848 291.942 671.608 292.806 671.608C293.262 671.608 293.688 671.668 294.084 671.788V672.958C293.748 672.802 293.4 672.724 293.04 672.724C292.464 672.724 292.038 672.874 291.762 673.174C291.498 673.462 291.366 673.912 291.366 674.524V676.36H293.562V677.44H291.366V685H289.98V677.44ZM299.315 685.27C298.379 685.27 297.545 685.084 296.813 684.712C296.093 684.34 295.529 683.812 295.121 683.128C294.725 682.432 294.527 681.622 294.527 680.698C294.527 679.786 294.731 678.982 295.139 678.286C295.547 677.59 296.111 677.05 296.831 676.666C297.563 676.282 298.391 676.09 299.315 676.09C300.239 676.09 301.061 676.282 301.781 676.666C302.513 677.05 303.083 677.59 303.491 678.286C303.899 678.982 304.103 679.786 304.103 680.698C304.103 681.622 303.899 682.432 303.491 683.128C303.095 683.812 302.531 684.34 301.799 684.712C301.079 685.084 300.251 685.27 299.315 685.27ZM299.315 684.172C300.347 684.172 301.169 683.86 301.781 683.236C302.405 682.6 302.717 681.754 302.717 680.698C302.717 679.63 302.405 678.784 301.781 678.16C301.169 677.524 300.347 677.206 299.315 677.206C298.283 677.206 297.455 677.524 296.831 678.16C296.219 678.784 295.913 679.63 295.913 680.698C295.913 681.754 296.219 682.6 296.831 683.236C297.455 683.86 298.283 684.172 299.315 684.172Z" fill="white" fill-opacity="0.5"/>
<rect x="346" y="710" width="152" height="63" rx="31.5" stroke="url(#paint2_linear_221_126)" stroke-width="3"/>
<path d="M373.361 735.418H375.737L378.239 744.31L380.705 735.418H382.469L384.935 744.31L387.437 735.418H389.813L386.231 748H384.107L381.587 739.252L379.067 748H376.943L373.361 735.418ZM391.615 735.418H393.901V748H391.615V735.418ZM399.14 737.308H395.342V735.418H405.224V737.308H401.426V748H399.14V737.308ZM406.662 735.418H408.948V740.638H414.996V735.418H417.264V748H414.996V742.528H408.948V748H406.662V735.418ZM419.424 735.418H423.636C425.004 735.418 426.192 735.67 427.2 736.174C428.208 736.678 428.982 737.398 429.522 738.334C430.062 739.27 430.332 740.374 430.332 741.646C430.332 743.734 429.726 745.318 428.514 746.398C427.302 747.466 425.61 748 423.438 748H419.424V735.418ZM423.474 746.11C424.938 746.11 426.06 745.72 426.84 744.94C427.632 744.148 428.028 743.05 428.028 741.646C428.028 740.794 427.854 740.044 427.506 739.396C427.158 738.736 426.66 738.226 426.012 737.866C425.364 737.494 424.596 737.308 423.708 737.308H421.71V746.11H423.474ZM432.133 735.418H437.389C438.781 735.418 439.855 735.76 440.611 736.444C441.367 737.128 441.745 738.118 441.745 739.414C441.745 740.338 441.517 741.124 441.061 741.772C440.605 742.42 439.957 742.882 439.117 743.158L441.673 748H439.333L436.903 743.392H434.419V748H432.133V735.418ZM436.975 741.502C437.719 741.502 438.319 741.328 438.775 740.98C439.231 740.632 439.459 740.11 439.459 739.414C439.459 738.01 438.631 737.308 436.975 737.308H434.419V741.502H436.975ZM447.412 735.418H449.626L454.648 748H452.326L451.174 745.102H445.846L444.712 748H442.372L447.412 735.418ZM450.544 743.212L448.51 737.866L446.476 743.212H450.544ZM454.185 735.418H456.561L459.063 744.31L461.529 735.418H463.293L465.759 744.31L468.261 735.418H470.637L467.055 748H464.931L462.411 739.252L459.891 748H457.767L454.185 735.418Z" fill="white"/>
<rect x="172" y="710" width="152" height="63" rx="31.5" stroke="url(#paint3_linear_221_126)" stroke-width="3"/>
<path d="M212.465 735.418H216.677C218.045 735.418 219.233 735.67 220.241 736.174C221.249 736.678 222.023 737.398 222.563 738.334C223.103 739.27 223.373 740.374 223.373 741.646C223.373 743.734 222.767 745.318 221.555 746.398C220.343 747.466 218.651 748 216.479 748H212.465V735.418ZM216.515 746.11C217.979 746.11 219.101 745.72 219.881 744.94C220.673 744.148 221.069 743.05 221.069 741.646C221.069 740.794 220.895 740.044 220.547 739.396C220.199 738.736 219.701 738.226 219.053 737.866C218.405 737.494 217.637 737.308 216.749 737.308H214.751V746.11H216.515ZM225.174 735.418H233.688V737.308H227.46V740.764H232.086V742.654H227.46V746.11H233.688V748H225.174V735.418ZM235.316 735.418H240.356C241.736 735.418 242.84 735.784 243.668 736.516C244.508 737.248 244.928 738.25 244.928 739.522C244.928 740.842 244.514 741.85 243.686 742.546C242.858 743.23 241.742 743.572 240.338 743.572H237.602V748H235.316V735.418ZM240.068 741.682C241.784 741.682 242.642 740.962 242.642 739.522C242.642 738.046 241.784 737.308 240.068 737.308H237.602V741.682H240.068ZM252.427 748.27C251.167 748.27 250.027 748 249.007 747.46C247.999 746.908 247.201 746.134 246.613 745.138C246.037 744.142 245.749 743.002 245.749 741.718C245.749 740.434 246.037 739.294 246.613 738.298C247.201 737.302 247.999 736.528 249.007 735.976C250.027 735.424 251.167 735.148 252.427 735.148C253.675 735.148 254.803 735.424 255.811 735.976C256.831 736.528 257.629 737.302 258.205 738.298C258.793 739.294 259.087 740.434 259.087 741.718C259.087 743.002 258.793 744.142 258.205 745.138C257.629 746.122 256.831 746.89 255.811 747.442C254.803 747.994 253.675 748.27 252.427 748.27ZM252.427 746.2C253.231 746.2 253.963 746.02 254.623 745.66C255.283 745.288 255.805 744.766 256.189 744.094C256.585 743.41 256.783 742.618 256.783 741.718C256.783 740.83 256.591 740.05 256.207 739.378C255.823 738.694 255.301 738.166 254.641 737.794C253.981 737.422 253.243 737.236 252.427 737.236C251.611 737.236 250.867 737.422 250.195 737.794C249.535 738.166 249.013 738.694 248.629 739.378C248.245 740.05 248.053 740.83 248.053 741.718C248.053 742.618 248.245 743.41 248.629 744.094C249.025 744.766 249.553 745.288 250.213 745.66C250.885 746.02 251.623 746.2 252.427 746.2ZM264.071 748.27C263.327 748.27 262.589 748.198 261.857 748.054C261.137 747.922 260.543 747.742 260.075 747.514V745.552C260.675 745.84 261.305 746.056 261.965 746.2C262.625 746.344 263.273 746.416 263.909 746.416C264.713 746.416 265.325 746.266 265.745 745.966C266.165 745.666 266.375 745.252 266.375 744.724C266.375 744.352 266.279 744.046 266.087 743.806C265.895 743.554 265.613 743.338 265.241 743.158C264.869 742.966 264.299 742.72 263.531 742.42C262.355 741.94 261.503 741.406 260.975 740.818C260.447 740.23 260.183 739.498 260.183 738.622C260.183 737.938 260.369 737.332 260.741 736.804C261.113 736.276 261.635 735.868 262.307 735.58C262.979 735.292 263.753 735.148 264.629 735.148C265.349 735.148 265.985 735.208 266.537 735.328C267.101 735.436 267.653 735.61 268.193 735.85V737.758C267.149 737.254 266.093 737.002 265.025 737.002C264.257 737.002 263.663 737.146 263.243 737.434C262.823 737.71 262.613 738.106 262.613 738.622C262.613 738.994 262.709 739.3 262.901 739.54C263.093 739.768 263.345 739.966 263.657 740.134C263.981 740.29 264.557 740.542 265.385 740.89C266.225 741.238 266.885 741.58 267.365 741.916C267.857 742.252 268.223 742.648 268.464 743.104C268.715 743.548 268.841 744.094 268.841 744.742C268.841 745.858 268.439 746.728 267.635 747.352C266.831 747.964 265.643 748.27 264.071 748.27ZM270.648 735.418H272.934V748H270.648V735.418ZM278.174 737.308H274.376V735.418H284.258V737.308H280.46V748H278.174V737.308Z" fill="white"/>
</g>
<g filter="url(#filter1_dd_221_126)">
<rect x="579" y="239" width="390" height="814" rx="40" fill="black"/>
<g clip-path="url(#clip1_221_126)">
<path d="M660.073 513.768H655V541.783H673.499V537.575H660.073V513.768Z" fill="white"/>
<path d="M691.46 523.227C689.683 522.328 687.711 521.888 685.721 521.946C682.311 521.946 679.688 522.867 677.852 524.709C676.016 526.551 675.098 529.054 675.098 532.22C675.098 535.43 676.137 537.929 678.215 539.719C680.294 541.508 683.118 542.402 686.69 542.402C688.11 542.4 689.528 542.278 690.927 542.038C692.122 541.861 693.293 541.553 694.42 541.121V537.229C693.336 537.64 692.212 537.938 691.067 538.116C689.824 538.324 688.567 538.43 687.307 538.431C682.703 538.431 680.227 537.002 679.88 534.145H696.224V531.819C696.252 530.056 695.836 528.314 695.014 526.755C694.206 525.25 692.969 524.022 691.46 523.227ZM679.892 530.684C679.89 530.02 680.032 529.364 680.308 528.761C680.584 528.159 680.987 527.623 681.49 527.192C682.678 526.283 684.151 525.828 685.643 525.911C687.153 525.812 688.65 526.242 689.88 527.126C690.398 527.553 690.812 528.093 691.093 528.704C691.374 529.314 691.514 529.981 691.503 530.653L679.892 530.684Z" fill="white"/>
<path d="M717.769 524.43C715.953 522.774 713.475 521.946 710.335 521.946C708.514 521.915 706.717 522.363 705.123 523.246C703.609 524.1 702.363 525.362 701.527 526.889C700.672 528.538 700.225 530.37 700.225 532.229C700.225 534.088 700.672 535.92 701.527 537.569C702.365 539.075 703.612 540.311 705.123 541.133C706.724 541.994 708.519 542.428 710.335 542.396C711.761 542.429 713.182 542.205 714.53 541.734C715.794 541.237 716.948 540.494 717.926 539.549V541.795H722.769V512.183H717.738L717.769 524.43ZM717.769 534.145C717.343 535.417 716.514 536.515 715.408 537.272C714.282 538.049 712.942 538.454 711.576 538.431C710.752 538.461 709.932 538.324 709.162 538.029C708.392 537.733 707.69 537.286 707.096 536.713C706.51 536.126 706.051 535.424 705.749 534.651C705.447 533.878 705.308 533.05 705.341 532.22C705.305 531.387 705.442 530.556 705.742 529.78C706.042 529.003 706.5 528.296 707.085 527.705C707.671 527.115 708.372 526.652 709.145 526.346C709.918 526.04 710.746 525.899 711.576 525.929C712.951 525.911 714.297 526.325 715.426 527.113C716.532 527.873 717.356 528.979 717.769 530.259V534.145Z" fill="white"/>
<path d="M745.294 524.788C744.314 523.847 743.16 523.106 741.898 522.608C740.55 522.137 739.129 521.913 737.703 521.946C735.886 521.914 734.092 522.349 732.491 523.209C730.978 524.029 729.731 525.266 728.895 526.773C728.034 528.421 727.585 530.253 727.585 532.114C727.585 533.974 728.034 535.806 728.895 537.454C729.752 538.992 731.026 540.255 732.569 541.097C734.187 541.977 736.002 542.427 737.842 542.402C739.212 542.417 740.575 542.212 741.88 541.795C743.078 541.408 744.181 540.773 745.118 539.931V541.145C745.118 543.092 744.604 544.562 743.575 545.554C742.546 546.545 740.867 547.037 738.538 547.029C736.125 547.071 733.729 546.607 731.504 545.669V549.676C732.526 550.129 733.599 550.453 734.7 550.642C735.966 550.879 737.251 550.998 738.538 551C742.481 551 745.403 550.097 747.304 548.292C749.204 546.487 750.157 543.93 750.161 540.623V522.547H745.288L745.294 524.788ZM745.136 534.09C744.724 535.37 743.9 536.476 742.794 537.235C741.665 538.022 740.318 538.433 738.944 538.413C738.117 538.442 737.292 538.301 736.522 537.998C735.752 537.695 735.051 537.237 734.464 536.652C733.88 536.057 733.423 535.348 733.121 534.569C732.819 533.79 732.679 532.958 732.709 532.123C732.677 531.294 732.816 530.467 733.118 529.695C733.42 528.923 733.879 528.222 734.464 527.636C735.057 527.062 735.76 526.613 736.529 526.317C737.299 526.021 738.12 525.883 738.944 525.911C740.311 525.891 741.65 526.298 742.776 527.077C743.883 527.832 744.712 528.931 745.136 530.204V534.09Z" fill="white"/>
<path d="M771.324 523.228C769.549 522.329 767.578 521.888 765.591 521.946C762.177 521.946 759.554 522.867 757.722 524.709C755.889 526.551 754.969 529.054 754.961 532.22C754.961 535.43 756 537.929 758.079 539.719C760.157 541.508 762.982 542.402 766.554 542.402C767.974 542.4 769.391 542.278 770.791 542.038C771.985 541.861 773.156 541.554 774.284 541.121V537.229C773.2 537.641 772.076 537.938 770.93 538.116C769.69 538.324 768.435 538.43 767.177 538.431C762.564 538.431 760.086 537.002 759.743 534.145H776.088V531.819C776.116 530.056 775.699 528.314 774.877 526.755C774.07 525.25 772.832 524.022 771.324 523.228ZM759.756 530.684C759.753 530.02 759.895 529.364 760.171 528.762C760.447 528.159 760.851 527.623 761.354 527.192C762.541 526.283 764.014 525.828 765.506 525.911C767.016 525.815 768.513 526.244 769.744 527.126C770.259 527.555 770.672 528.095 770.951 528.705C771.231 529.316 771.371 529.982 771.36 530.653L759.756 530.684Z" fill="white"/>
<path d="M785.755 525.632V522.548H780.912V541.783H785.949V530.119C786.235 529.475 786.645 528.893 787.157 528.409C787.668 527.924 788.27 527.546 788.927 527.296C790.535 526.659 792.254 526.351 793.982 526.391V522.548C792.318 522.52 790.662 522.777 789.085 523.306C787.765 523.724 786.603 524.535 785.755 525.632Z" fill="white"/>
<path d="M814.11 523.228C812.564 522.368 810.822 521.927 809.055 521.946C807.143 521.934 805.257 522.394 803.565 523.288C801.931 524.121 800.627 525.484 799.866 527.156V512.183H798.752V541.801H799.866V537.272C800.717 538.87 802.007 540.191 803.583 541.079C805.255 541.983 807.132 542.439 809.031 542.402C810.788 542.424 812.521 541.995 814.067 541.158C815.589 540.337 816.849 539.102 817.699 537.593C818.621 535.956 819.087 534.1 819.049 532.22C819.089 530.346 818.636 528.495 817.736 526.852C816.887 525.329 815.631 524.074 814.11 523.228ZM816.81 537.077C816.044 538.435 814.916 539.552 813.553 540.301C812.177 541.066 810.628 541.46 809.055 541.443C806.992 541.494 804.963 540.907 803.244 539.761C801.609 538.639 800.415 536.982 799.866 535.074V529.384C800.378 527.452 801.572 525.771 803.226 524.654C804.946 523.493 806.981 522.891 809.055 522.93C810.627 522.917 812.176 523.31 813.553 524.071C814.923 524.832 816.051 525.964 816.81 527.338C817.632 528.833 818.05 530.519 818.02 532.226C818.054 533.922 817.636 535.597 816.81 537.077Z" fill="white"/>
<path d="M834.667 521.946C833.594 521.95 832.524 522.058 831.471 522.268C830.515 522.442 829.578 522.71 828.674 523.07V524.071C830.578 523.297 832.613 522.901 834.667 522.906C837.119 522.906 838.905 523.416 840.001 524.43C841.096 525.444 841.659 526.992 841.659 529.081V532.323C839.207 530.955 836.431 530.277 833.626 530.362C828.566 530.362 826.035 532.386 826.035 536.434C825.988 537.282 826.147 538.128 826.5 538.901C826.852 539.673 827.386 540.348 828.057 540.866C829.401 541.89 831.205 542.404 833.469 542.408C837.279 542.408 840.049 541.18 841.78 538.723V541.807H842.779V529.117C842.779 524.341 840.075 521.95 834.667 521.946ZM841.659 537.332C840.975 538.65 839.889 539.713 838.56 540.368C837.08 541.11 835.443 541.481 833.79 541.449C831.526 541.449 829.837 541.018 828.735 540.15C828.183 539.709 827.745 539.142 827.457 538.497C827.168 537.851 827.038 537.146 827.076 536.44C827.076 534.732 827.583 533.456 828.596 532.614C829.607 531.777 831.284 531.352 833.626 531.352C835.066 531.333 836.503 531.488 837.906 531.813C839.215 532.155 840.476 532.661 841.659 533.319V537.332Z" fill="white"/>
<path d="M861.557 521.946C859.985 521.941 858.43 522.276 856.999 522.93C855.498 523.635 854.216 524.734 853.288 526.112V522.547H852.168V541.783H853.288V527.636C855.387 524.486 858.143 522.91 861.557 522.906C863.736 522.906 865.314 523.434 866.291 524.49C867.259 525.547 867.75 527.065 867.75 529.038V541.789H868.87V528.996C868.964 527.107 868.311 525.256 867.054 523.847C865.867 522.58 864.035 521.946 861.557 521.946Z" fill="white"/>
<path d="M880.771 532.165L891.122 522.547H889.524L879.372 532.044V512.165H878.259V541.783H879.372V532.287L890.402 541.783H892L880.771 532.165Z" fill="white"/>
<path d="M766.318 483.991L766.311 446L758.218 452.029L758.224 490.021L780.688 497.562L788.782 491.533L766.318 483.991Z" fill="white"/>
<path d="M786.04 480.124C786.875 477.762 785.574 475.102 783.122 473.821C782.938 473.73 782.748 473.651 782.553 473.584L775.083 470.894L774.986 478.927L782.202 481.356C782.202 481.356 785.15 482.571 786.04 480.124Z" fill="white"/>
<path d="M786.173 465.327C787.008 462.965 785.707 460.305 783.255 459.024C783.071 458.933 782.881 458.854 782.686 458.787L775.216 456.085L775.119 464.118L782.335 466.577C782.335 466.577 785.307 467.774 786.173 465.327Z" fill="white"/>
</g>
<path d="M698.789 602.428H702.345V610.548H711.753V602.428H715.281V622H711.753V613.488H702.345V622H698.789V602.428ZM726.201 622.42C723.7 622.42 721.721 621.795 720.265 620.544C718.809 619.293 718.081 617.548 718.081 615.308C718.081 613.105 718.725 611.36 720.013 610.072C721.301 608.784 723.14 608.14 725.529 608.14C727.097 608.14 728.432 608.439 729.533 609.036C730.653 609.633 731.493 610.455 732.053 611.5C732.613 612.527 732.893 613.703 732.893 615.028V616.652H721.441C721.684 618.649 723.42 619.648 726.649 619.648C727.508 619.648 728.385 619.573 729.281 619.424C730.177 619.275 730.961 619.069 731.633 618.808V621.524C730.998 621.785 730.177 622 729.169 622.168C728.18 622.336 727.19 622.42 726.201 622.42ZM729.561 614.244C729.524 613.18 729.141 612.359 728.413 611.78C727.704 611.201 726.724 610.912 725.473 610.912C724.241 610.912 723.27 611.211 722.561 611.808C721.852 612.405 721.478 613.217 721.441 614.244H729.561ZM735.703 601.308H739.231V622H735.703V601.308ZM742.594 601.308H746.122V622H742.594V601.308ZM756.793 622.42C755.225 622.42 753.843 622.14 752.649 621.58C751.473 621.001 750.558 620.18 749.905 619.116C749.251 618.033 748.925 616.755 748.925 615.28C748.925 613.843 749.242 612.592 749.877 611.528C750.53 610.445 751.454 609.615 752.649 609.036C753.843 608.439 755.225 608.14 756.793 608.14C758.361 608.14 759.733 608.439 760.909 609.036C762.103 609.615 763.027 610.445 763.681 611.528C764.334 612.592 764.661 613.843 764.661 615.28C764.661 616.755 764.334 618.033 763.681 619.116C763.027 620.18 762.103 621.001 760.909 621.58C759.733 622.14 758.361 622.42 756.793 622.42ZM756.793 619.648C758.081 619.648 759.107 619.247 759.873 618.444C760.638 617.623 761.021 616.568 761.021 615.28C761.021 613.917 760.638 612.853 759.873 612.088C759.126 611.304 758.099 610.912 756.793 610.912C755.486 610.912 754.45 611.304 753.685 612.088C752.938 612.853 752.565 613.917 752.565 615.28C752.565 616.568 752.947 617.623 753.713 618.444C754.478 619.247 755.505 619.648 756.793 619.648ZM783.195 622.42C782.038 622.42 780.89 622.308 779.751 622.084C778.631 621.879 777.707 621.599 776.979 621.244V618.192C777.913 618.64 778.893 618.976 779.919 619.2C780.946 619.424 781.954 619.536 782.943 619.536C784.194 619.536 785.146 619.303 785.799 618.836C786.453 618.369 786.779 617.725 786.779 616.904C786.779 616.325 786.63 615.849 786.331 615.476C786.033 615.084 785.594 614.748 785.015 614.468C784.437 614.169 783.55 613.787 782.355 613.32C780.526 612.573 779.201 611.743 778.379 610.828C777.558 609.913 777.147 608.775 777.147 607.412C777.147 606.348 777.437 605.405 778.015 604.584C778.594 603.763 779.406 603.128 780.451 602.68C781.497 602.232 782.701 602.008 784.063 602.008C785.183 602.008 786.173 602.101 787.031 602.288C787.909 602.456 788.767 602.727 789.607 603.1V606.068C787.983 605.284 786.341 604.892 784.679 604.892C783.485 604.892 782.561 605.116 781.907 605.564C781.254 605.993 780.927 606.609 780.927 607.412C780.927 607.991 781.077 608.467 781.375 608.84C781.674 609.195 782.066 609.503 782.551 609.764C783.055 610.007 783.951 610.399 785.239 610.94C786.546 611.481 787.573 612.013 788.319 612.536C789.085 613.059 789.654 613.675 790.027 614.384C790.419 615.075 790.615 615.924 790.615 616.932C790.615 618.668 789.99 620.021 788.739 620.992C787.489 621.944 785.641 622.42 783.195 622.42ZM797.944 622.42C796.339 622.42 795.023 622 793.996 621.16C792.969 620.301 792.456 619.153 792.456 617.716C792.456 616.223 792.941 615.056 793.912 614.216C794.883 613.376 796.245 612.956 798 612.956C799.699 612.956 801.164 613.301 802.396 613.992V613.628C802.396 612.676 802.097 611.985 801.5 611.556C800.921 611.127 799.979 610.912 798.672 610.912C797.851 610.912 797.039 610.996 796.236 611.164C795.433 611.313 794.724 611.528 794.108 611.808V609.036C794.668 608.775 795.415 608.56 796.348 608.392C797.3 608.224 798.215 608.14 799.092 608.14C801.425 608.14 803.152 608.644 804.272 609.652C805.392 610.641 805.952 612.023 805.952 613.796V622H802.62V620.684C802.041 621.244 801.379 621.673 800.632 621.972C799.904 622.271 799.008 622.42 797.944 622.42ZM798.812 619.844C799.596 619.844 800.305 619.695 800.94 619.396C801.575 619.079 802.06 618.649 802.396 618.108V616.624C801.369 615.896 800.193 615.532 798.868 615.532C796.983 615.532 796.04 616.26 796.04 617.716C796.04 618.425 796.273 618.957 796.74 619.312C797.225 619.667 797.916 619.844 798.812 619.844ZM809.176 608.56H812.592V610.716C813.133 609.988 813.899 609.447 814.888 609.092C815.896 608.737 817.044 608.56 818.332 608.56V611.248C816.969 611.248 815.784 611.463 814.776 611.892C813.787 612.303 813.096 612.956 812.704 613.852V622H809.176V608.56ZM824.249 622.42C822.643 622.42 821.327 622 820.301 621.16C819.274 620.301 818.761 619.153 818.761 617.716C818.761 616.223 819.246 615.056 820.217 614.216C821.187 613.376 822.55 612.956 824.305 612.956C826.003 612.956 827.469 613.301 828.701 613.992V613.628C828.701 612.676 828.402 611.985 827.805 611.556C827.226 611.127 826.283 610.912 824.977 610.912C824.155 610.912 823.343 610.996 822.541 611.164C821.738 611.313 821.029 611.528 820.413 611.808V609.036C820.973 608.775 821.719 608.56 822.653 608.392C823.605 608.224 824.519 608.14 825.397 608.14C827.73 608.14 829.457 608.644 830.577 609.652C831.697 610.641 832.257 612.023 832.257 613.796V622H828.925V620.684C828.346 621.244 827.683 621.673 826.937 621.972C826.209 622.271 825.313 622.42 824.249 622.42ZM825.117 619.844C825.901 619.844 826.61 619.695 827.245 619.396C827.879 619.079 828.365 618.649 828.701 618.108V616.624C827.674 615.896 826.498 615.532 825.173 615.532C823.287 615.532 822.345 616.26 822.345 617.716C822.345 618.425 822.578 618.957 823.045 619.312C823.53 619.667 824.221 619.844 825.117 619.844ZM835.481 601.308H839.009V610.268C840.278 608.849 841.921 608.14 843.937 608.14C845.747 608.14 847.101 608.635 847.997 609.624C848.893 610.595 849.341 611.892 849.341 613.516V622H845.813V613.852C845.813 611.892 844.898 610.912 843.069 610.912C842.266 610.912 841.51 611.108 840.801 611.5C840.091 611.873 839.494 612.443 839.009 613.208V622H835.481V601.308Z" fill="white"/>
<path d="M686.412 664.418H687.87L690.966 674.624L694.062 664.418H695.178L698.22 674.642L701.316 664.418H702.774L699.012 677H697.644L694.584 666.722L691.542 677H690.174L686.412 664.418ZM704.297 663.698H705.683V669.62C706.511 668.6 707.657 668.09 709.121 668.09C710.261 668.09 711.107 668.39 711.659 668.99C712.223 669.59 712.505 670.394 712.505 671.402V677H711.119V671.528C711.119 670.784 710.939 670.214 710.579 669.818C710.219 669.41 709.643 669.206 708.851 669.206C707.519 669.206 706.463 669.806 705.683 671.006V677H704.297V663.698ZM717.692 677.27C716.648 677.27 715.82 677.012 715.208 676.496C714.608 675.968 714.308 675.248 714.308 674.336C714.308 673.388 714.602 672.662 715.19 672.158C715.778 671.642 716.63 671.384 717.746 671.384C718.994 671.384 720.068 671.642 720.968 672.158V671.51C720.968 670.73 720.746 670.154 720.302 669.782C719.858 669.398 719.156 669.206 718.196 669.206C717.176 669.206 716.234 669.398 715.37 669.782V668.612C715.73 668.456 716.186 668.33 716.738 668.234C717.29 668.138 717.818 668.09 718.322 668.09C719.69 668.09 720.704 668.402 721.364 669.026C722.024 669.638 722.354 670.49 722.354 671.582V677H721.058V675.884C720.302 676.808 719.18 677.27 717.692 677.27ZM718.034 676.136C718.682 676.136 719.264 676.01 719.78 675.758C720.308 675.494 720.704 675.128 720.968 674.66V673.274C720.5 672.998 720.032 672.8 719.564 672.68C719.108 672.548 718.592 672.482 718.016 672.482C717.2 672.482 716.606 672.638 716.234 672.95C715.874 673.25 715.694 673.712 715.694 674.336C715.694 675.536 716.474 676.136 718.034 676.136ZM727.523 677.27C726.707 677.27 726.071 677.03 725.615 676.55C725.171 676.07 724.949 675.386 724.949 674.498V669.44H723.599V668.36H724.949V665.768H726.335V668.36H728.513V669.44H726.335V674.534C726.335 675.134 726.455 675.56 726.695 675.812C726.935 676.052 727.373 676.172 728.009 676.172C728.321 676.172 728.651 676.1 728.999 675.956V677.09C728.603 677.21 728.111 677.27 727.523 677.27ZM740.755 677.27C739.711 677.27 738.883 677.012 738.271 676.496C737.671 675.968 737.371 675.248 737.371 674.336C737.371 673.388 737.665 672.662 738.253 672.158C738.841 671.642 739.693 671.384 740.809 671.384C742.057 671.384 743.131 671.642 744.031 672.158V671.51C744.031 670.73 743.809 670.154 743.365 669.782C742.921 669.398 742.219 669.206 741.259 669.206C740.239 669.206 739.297 669.398 738.433 669.782V668.612C738.793 668.456 739.249 668.33 739.801 668.234C740.353 668.138 740.881 668.09 741.385 668.09C742.753 668.09 743.767 668.402 744.427 669.026C745.087 669.638 745.417 670.49 745.417 671.582V677H744.121V675.884C743.365 676.808 742.243 677.27 740.755 677.27ZM741.097 676.136C741.745 676.136 742.327 676.01 742.843 675.758C743.371 675.494 743.767 675.128 744.031 674.66V673.274C743.563 672.998 743.095 672.8 742.627 672.68C742.171 672.548 741.655 672.482 741.079 672.482C740.263 672.482 739.669 672.638 739.297 672.95C738.937 673.25 738.757 673.712 738.757 674.336C738.757 675.536 739.537 676.136 741.097 676.136ZM751.897 677.27C750.985 677.27 750.163 677.09 749.431 676.73C748.711 676.358 748.147 675.83 747.739 675.146C747.331 674.45 747.127 673.634 747.127 672.698C747.127 671.774 747.331 670.964 747.739 670.268C748.159 669.56 748.735 669.02 749.467 668.648C750.199 668.276 751.027 668.09 751.951 668.09C752.611 668.09 753.193 668.15 753.697 668.27C754.201 668.39 754.651 668.582 755.047 668.846V670.016C754.291 669.476 753.301 669.206 752.077 669.206C751.021 669.206 750.163 669.512 749.503 670.124C748.843 670.736 748.513 671.594 748.513 672.698C748.513 673.802 748.843 674.66 749.503 675.272C750.163 675.872 751.003 676.172 752.023 676.172C752.659 676.172 753.229 676.1 753.733 675.956C754.237 675.812 754.717 675.59 755.173 675.29V676.46C754.753 676.748 754.279 676.952 753.751 677.072C753.235 677.204 752.617 677.27 751.897 677.27ZM761.477 677.27C760.565 677.27 759.743 677.09 759.011 676.73C758.291 676.358 757.727 675.83 757.319 675.146C756.911 674.45 756.707 673.634 756.707 672.698C756.707 671.774 756.911 670.964 757.319 670.268C757.739 669.56 758.315 669.02 759.047 668.648C759.779 668.276 760.607 668.09 761.531 668.09C762.191 668.09 762.773 668.15 763.277 668.27C763.781 668.39 764.231 668.582 764.627 668.846V670.016C763.871 669.476 762.881 669.206 761.657 669.206C760.601 669.206 759.743 669.512 759.083 670.124C758.423 670.736 758.093 671.594 758.093 672.698C758.093 673.802 758.423 674.66 759.083 675.272C759.743 675.872 760.583 676.172 761.603 676.172C762.239 676.172 762.809 676.1 763.313 675.956C763.817 675.812 764.297 675.59 764.753 675.29V676.46C764.333 676.748 763.859 676.952 763.331 677.072C762.815 677.204 762.197 677.27 761.477 677.27ZM771.075 677.27C770.139 677.27 769.305 677.084 768.573 676.712C767.853 676.34 767.289 675.812 766.881 675.128C766.485 674.432 766.287 673.622 766.287 672.698C766.287 671.786 766.491 670.982 766.899 670.286C767.307 669.59 767.871 669.05 768.591 668.666C769.323 668.282 770.151 668.09 771.075 668.09C771.999 668.09 772.821 668.282 773.541 668.666C774.273 669.05 774.843 669.59 775.251 670.286C775.659 670.982 775.863 671.786 775.863 672.698C775.863 673.622 775.659 674.432 775.251 675.128C774.855 675.812 774.291 676.34 773.559 676.712C772.839 677.084 772.011 677.27 771.075 677.27ZM771.075 676.172C772.107 676.172 772.929 675.86 773.541 675.236C774.165 674.6 774.477 673.754 774.477 672.698C774.477 671.63 774.165 670.784 773.541 670.16C772.929 669.524 772.107 669.206 771.075 669.206C770.043 669.206 769.215 669.524 768.591 670.16C767.979 670.784 767.673 671.63 767.673 672.698C767.673 673.754 767.979 674.6 768.591 675.236C769.215 675.86 770.043 676.172 771.075 676.172ZM781.512 677.27C780.36 677.27 779.472 676.958 778.848 676.334C778.236 675.71 777.93 674.876 777.93 673.832V668.36H779.316V673.904C779.316 675.416 780.102 676.172 781.674 676.172C782.334 676.172 782.91 676.028 783.402 675.74C783.906 675.452 784.356 674.996 784.752 674.372V668.36H786.138V677H784.788V675.704C784.008 676.748 782.916 677.27 781.512 677.27ZM788.655 668.36H790.005V669.656C790.425 669.116 790.935 668.72 791.535 668.468C792.147 668.216 792.795 668.09 793.479 668.09C794.619 668.09 795.465 668.39 796.017 668.99C796.581 669.59 796.863 670.394 796.863 671.402V677H795.477V671.528C795.477 670.784 795.297 670.214 794.937 669.818C794.577 669.41 794.001 669.206 793.209 669.206C791.877 669.206 790.821 669.806 790.041 671.006V677H788.655V668.36ZM802.493 677.27C801.677 677.27 801.041 677.03 800.585 676.55C800.141 676.07 799.919 675.386 799.919 674.498V669.44H798.569V668.36H799.919V665.768H801.305V668.36H803.483V669.44H801.305V674.534C801.305 675.134 801.425 675.56 801.665 675.812C801.905 676.052 802.343 676.172 802.979 676.172C803.291 676.172 803.621 676.1 803.969 675.956V677.09C803.573 677.21 803.081 677.27 802.493 677.27ZM812.341 668.36H813.781L815.923 675.326L818.029 668.36H819.343L821.467 675.326L823.591 668.36H825.049L822.277 677H820.855L818.695 669.962L816.535 677H815.095L812.341 668.36ZM830.454 677.27C829.518 677.27 828.684 677.084 827.952 676.712C827.232 676.34 826.668 675.812 826.26 675.128C825.864 674.432 825.666 673.622 825.666 672.698C825.666 671.786 825.87 670.982 826.278 670.286C826.686 669.59 827.25 669.05 827.97 668.666C828.702 668.282 829.53 668.09 830.454 668.09C831.378 668.09 832.2 668.282 832.92 668.666C833.652 669.05 834.222 669.59 834.63 670.286C835.038 670.982 835.242 671.786 835.242 672.698C835.242 673.622 835.038 674.432 834.63 675.128C834.234 675.812 833.67 676.34 832.938 676.712C832.218 677.084 831.39 677.27 830.454 677.27ZM830.454 676.172C831.486 676.172 832.308 675.86 832.92 675.236C833.544 674.6 833.856 673.754 833.856 672.698C833.856 671.63 833.544 670.784 832.92 670.16C832.308 669.524 831.486 669.206 830.454 669.206C829.422 669.206 828.594 669.524 827.97 670.16C827.358 670.784 827.052 671.63 827.052 672.698C827.052 673.754 827.358 674.6 827.97 675.236C828.594 675.86 829.422 676.172 830.454 676.172ZM840.891 677.27C839.739 677.27 838.851 676.958 838.227 676.334C837.615 675.71 837.309 674.876 837.309 673.832V668.36H838.695V673.904C838.695 675.416 839.481 676.172 841.053 676.172C841.713 676.172 842.289 676.028 842.781 675.74C843.285 675.452 843.735 674.996 844.131 674.372V668.36H845.517V677H844.167V675.704C843.387 676.748 842.295 677.27 840.891 677.27ZM848.033 663.698H849.419V677H848.033V663.698ZM856.094 677.27C855.242 677.27 854.474 677.084 853.79 676.712C853.106 676.34 852.566 675.806 852.17 675.11C851.774 674.414 851.576 673.61 851.576 672.698C851.576 671.798 851.768 671 852.152 670.304C852.548 669.596 853.088 669.05 853.772 668.666C854.468 668.282 855.242 668.09 856.094 668.09C856.922 668.09 857.654 668.24 858.29 668.54C858.938 668.828 859.454 669.254 859.838 669.818V663.698H861.224V677H859.874V675.488C859.418 676.088 858.878 676.538 858.254 676.838C857.642 677.126 856.922 677.27 856.094 677.27ZM856.382 676.172C857.21 676.172 857.93 675.962 858.542 675.542C859.166 675.11 859.598 674.522 859.838 673.778V671.618C859.61 670.874 859.184 670.286 858.56 669.854C857.948 669.422 857.222 669.206 856.382 669.206C855.746 669.206 855.164 669.356 854.636 669.656C854.12 669.944 853.712 670.352 853.412 670.88C853.112 671.408 852.962 672.014 852.962 672.698C852.962 673.382 853.112 673.988 853.412 674.516C853.712 675.044 854.12 675.452 854.636 675.74C855.164 676.028 855.746 676.172 856.382 676.172ZM703.289 707.564C702.737 707.564 702.245 707.51 701.813 707.402V706.286C701.945 706.334 702.131 706.376 702.371 706.412C702.623 706.448 702.833 706.466 703.001 706.466C703.409 706.466 703.739 706.358 703.991 706.142C704.243 705.926 704.471 705.566 704.675 705.062L705.143 703.946L701.309 695.36H702.785L705.881 702.344L708.743 695.36H710.219L706.223 705.152C705.887 705.98 705.491 706.586 705.035 706.97C704.591 707.366 704.009 707.564 703.289 707.564ZM715.273 704.27C714.337 704.27 713.503 704.084 712.771 703.712C712.051 703.34 711.487 702.812 711.079 702.128C710.683 701.432 710.485 700.622 710.485 699.698C710.485 698.786 710.689 697.982 711.097 697.286C711.505 696.59 712.069 696.05 712.789 695.666C713.521 695.282 714.349 695.09 715.273 695.09C716.197 695.09 717.019 695.282 717.739 695.666C718.471 696.05 719.041 696.59 719.449 697.286C719.857 697.982 720.061 698.786 720.061 699.698C720.061 700.622 719.857 701.432 719.449 702.128C719.053 702.812 718.489 703.34 717.757 703.712C717.037 704.084 716.209 704.27 715.273 704.27ZM715.273 703.172C716.305 703.172 717.127 702.86 717.739 702.236C718.363 701.6 718.675 700.754 718.675 699.698C718.675 698.63 718.363 697.784 717.739 697.16C717.127 696.524 716.305 696.206 715.273 696.206C714.241 696.206 713.413 696.524 712.789 697.16C712.177 697.784 711.871 698.63 711.871 699.698C711.871 700.754 712.177 701.6 712.789 702.236C713.413 702.86 714.241 703.172 715.273 703.172ZM725.71 704.27C724.558 704.27 723.67 703.958 723.046 703.334C722.434 702.71 722.128 701.876 722.128 700.832V695.36H723.514V700.904C723.514 702.416 724.3 703.172 725.872 703.172C726.532 703.172 727.108 703.028 727.6 702.74C728.104 702.452 728.554 701.996 728.95 701.372V695.36H730.336V704H728.986V702.704C728.206 703.748 727.114 704.27 725.71 704.27ZM739.691 690.698H741.077V704H739.691V690.698ZM744.457 693.488C744.217 693.488 744.013 693.404 743.845 693.236C743.677 693.068 743.593 692.864 743.593 692.624C743.593 692.384 743.677 692.18 743.845 692.012C744.013 691.844 744.217 691.76 744.457 691.76C744.697 691.76 744.901 691.844 745.069 692.012C745.249 692.18 745.339 692.384 745.339 692.624C745.339 692.864 745.249 693.068 745.069 693.236C744.901 693.404 744.697 693.488 744.457 693.488ZM743.773 695.36H745.159V704H743.773V695.36ZM747.864 690.698H749.25V704H747.864V690.698ZM749.556 699.644L753.786 695.36H755.55L751.302 699.644L755.964 704H754.2L749.556 699.644ZM762.405 704.27C760.833 704.27 759.603 703.868 758.715 703.064C757.839 702.26 757.401 701.138 757.401 699.698C757.401 698.282 757.797 697.16 758.589 696.332C759.381 695.504 760.509 695.09 761.973 695.09C762.957 695.09 763.791 695.282 764.475 695.666C765.159 696.038 765.675 696.554 766.023 697.214C766.371 697.874 766.545 698.624 766.545 699.464V700.22H758.697C758.745 701.204 759.105 701.942 759.777 702.434C760.461 702.926 761.385 703.172 762.549 703.172C763.113 703.172 763.665 703.124 764.205 703.028C764.757 702.92 765.249 702.776 765.681 702.596V703.766C765.321 703.91 764.829 704.03 764.205 704.126C763.593 704.222 762.993 704.27 762.405 704.27ZM765.249 699.23C765.225 698.294 764.937 697.556 764.385 697.016C763.833 696.476 763.023 696.206 761.955 696.206C760.911 696.206 760.113 696.488 759.561 697.052C759.009 697.604 758.721 698.33 758.697 699.23H765.249ZM778.754 704.27C777.938 704.27 777.302 704.03 776.846 703.55C776.402 703.07 776.18 702.386 776.18 701.498V696.44H774.83V695.36H776.18V692.768H777.566V695.36H779.744V696.44H777.566V701.534C777.566 702.134 777.686 702.56 777.926 702.812C778.166 703.052 778.604 703.172 779.24 703.172C779.552 703.172 779.882 703.1 780.23 702.956V704.09C779.834 704.21 779.342 704.27 778.754 704.27ZM786.464 704.27C785.528 704.27 784.694 704.084 783.962 703.712C783.242 703.34 782.678 702.812 782.27 702.128C781.874 701.432 781.676 700.622 781.676 699.698C781.676 698.786 781.88 697.982 782.288 697.286C782.696 696.59 783.26 696.05 783.98 695.666C784.712 695.282 785.54 695.09 786.464 695.09C787.388 695.09 788.21 695.282 788.93 695.666C789.662 696.05 790.232 696.59 790.64 697.286C791.048 697.982 791.252 698.786 791.252 699.698C791.252 700.622 791.048 701.432 790.64 702.128C790.244 702.812 789.68 703.34 788.948 703.712C788.228 704.084 787.4 704.27 786.464 704.27ZM786.464 703.172C787.496 703.172 788.318 702.86 788.93 702.236C789.554 701.6 789.866 700.754 789.866 699.698C789.866 698.63 789.554 697.784 788.93 697.16C788.318 696.524 787.496 696.206 786.464 696.206C785.432 696.206 784.604 696.524 783.98 697.16C783.368 697.784 783.062 698.63 783.062 699.698C783.062 700.754 783.368 701.6 783.98 702.236C784.604 702.86 785.432 703.172 786.464 703.172ZM799.887 695.36H801.363L804.099 702.29L806.835 695.36H808.329L804.819 704H803.379L799.887 695.36ZM811.359 693.488C811.119 693.488 810.915 693.404 810.747 693.236C810.579 693.068 810.495 692.864 810.495 692.624C810.495 692.384 810.579 692.18 810.747 692.012C810.915 691.844 811.119 691.76 811.359 691.76C811.599 691.76 811.803 691.844 811.971 692.012C812.151 692.18 812.241 692.384 812.241 692.624C812.241 692.864 812.151 693.068 811.971 693.236C811.803 693.404 811.599 693.488 811.359 693.488ZM810.675 695.36H812.061V704H810.675V695.36ZM819.411 704.27C817.839 704.27 816.609 703.868 815.721 703.064C814.845 702.26 814.407 701.138 814.407 699.698C814.407 698.282 814.803 697.16 815.595 696.332C816.387 695.504 817.515 695.09 818.979 695.09C819.963 695.09 820.797 695.282 821.481 695.666C822.165 696.038 822.681 696.554 823.029 697.214C823.377 697.874 823.551 698.624 823.551 699.464V700.22H815.703C815.751 701.204 816.111 701.942 816.783 702.434C817.467 702.926 818.391 703.172 819.555 703.172C820.119 703.172 820.671 703.124 821.211 703.028C821.763 702.92 822.255 702.776 822.687 702.596V703.766C822.327 703.91 821.835 704.03 821.211 704.126C820.599 704.222 819.999 704.27 819.411 704.27ZM822.255 699.23C822.231 698.294 821.943 697.556 821.391 697.016C820.839 696.476 820.029 696.206 818.961 696.206C817.917 696.206 817.119 696.488 816.567 697.052C816.015 697.604 815.727 698.33 815.703 699.23H822.255ZM824.813 695.36H826.253L828.395 702.326L830.501 695.36H831.815L833.939 702.326L836.063 695.36H837.521L834.749 704H833.327L831.167 696.962L829.007 704H827.567L824.813 695.36ZM841.547 700.238C841.547 699.47 841.691 698.846 841.979 698.366C842.267 697.874 842.765 697.382 843.473 696.89C844.157 696.422 844.637 696.008 844.913 695.648C845.189 695.288 845.327 694.844 845.327 694.316C845.327 693.716 845.087 693.242 844.607 692.894C844.127 692.546 843.455 692.372 842.591 692.372C841.391 692.372 840.299 692.606 839.315 693.074V691.796C840.335 691.364 841.427 691.148 842.591 691.148C843.395 691.148 844.109 691.28 844.733 691.544C845.357 691.808 845.837 692.18 846.173 692.66C846.521 693.14 846.695 693.692 846.695 694.316C846.695 694.928 846.527 695.486 846.191 695.99C845.867 696.494 845.351 696.986 844.643 697.466C844.139 697.814 843.767 698.108 843.527 698.348C843.287 698.588 843.119 698.852 843.023 699.14C842.939 699.416 842.897 699.788 842.897 700.256V700.58H841.547V700.238ZM842.213 704.27C841.973 704.27 841.769 704.186 841.601 704.018C841.433 703.85 841.349 703.646 841.349 703.406C841.349 703.166 841.433 702.962 841.601 702.794C841.769 702.626 841.973 702.542 842.213 702.542C842.453 702.542 842.657 702.626 842.825 702.794C843.005 702.962 843.095 703.166 843.095 703.406C843.095 703.646 843.005 703.85 842.825 704.018C842.657 704.186 842.453 704.27 842.213 704.27Z" fill="white"/>
<line x1="748" y1="952.5" x2="800" y2="952.5" stroke="white"/>
<path d="M748.173 938.214H749.951V946.53H754.655V948H748.173V938.214ZM758.868 948.21C758.084 948.21 757.393 948.07 756.796 947.79C756.208 947.501 755.751 947.09 755.424 946.558C755.097 946.017 754.934 945.377 754.934 944.64C754.934 943.921 755.093 943.296 755.41 942.764C755.737 942.223 756.199 941.807 756.796 941.518C757.393 941.219 758.084 941.07 758.868 941.07C759.652 941.07 760.338 941.219 760.926 941.518C761.523 941.807 761.985 942.223 762.312 942.764C762.639 943.296 762.802 943.921 762.802 944.64C762.802 945.377 762.639 946.017 762.312 946.558C761.985 947.09 761.523 947.501 760.926 947.79C760.338 948.07 759.652 948.21 758.868 948.21ZM758.868 946.824C759.512 946.824 760.025 946.623 760.408 946.222C760.791 945.811 760.982 945.284 760.982 944.64C760.982 943.959 760.791 943.427 760.408 943.044C760.035 942.652 759.521 942.456 758.868 942.456C758.215 942.456 757.697 942.652 757.314 943.044C756.941 943.427 756.754 943.959 756.754 944.64C756.754 945.284 756.945 945.811 757.328 946.222C757.711 946.623 758.224 946.824 758.868 946.824ZM767.752 951.22C767.304 951.22 766.856 951.178 766.408 951.094C765.96 951.01 765.587 950.898 765.288 950.758V949.358C766.016 949.675 766.838 949.834 767.752 949.834C768.574 949.834 769.162 949.661 769.516 949.316C769.88 948.971 770.062 948.457 770.062 947.776V947.342C769.745 947.631 769.367 947.851 768.928 948C768.49 948.14 768.018 948.21 767.514 948.21C766.833 948.21 766.217 948.061 765.666 947.762C765.116 947.454 764.686 947.029 764.378 946.488C764.07 945.947 763.916 945.326 763.916 944.626C763.916 943.917 764.066 943.296 764.364 942.764C764.672 942.223 765.092 941.807 765.624 941.518C766.166 941.219 766.777 941.07 767.458 941.07C768.028 941.07 768.518 941.149 768.928 941.308C769.339 941.457 769.736 941.709 770.118 942.064V941.28H771.826V947.594C771.826 948.751 771.49 949.643 770.818 950.268C770.156 950.903 769.134 951.22 767.752 951.22ZM767.892 946.824C768.396 946.824 768.844 946.689 769.236 946.418C769.638 946.138 769.913 945.769 770.062 945.312V943.954C769.904 943.497 769.628 943.133 769.236 942.862C768.844 942.591 768.396 942.456 767.892 942.456C767.258 942.456 766.735 942.657 766.324 943.058C765.914 943.459 765.708 943.982 765.708 944.626C765.708 945.27 765.914 945.797 766.324 946.208C766.735 946.619 767.258 946.824 767.892 946.824ZM782.206 948.21C781.422 948.21 780.731 948.07 780.134 947.79C779.546 947.501 779.089 947.09 778.762 946.558C778.435 946.017 778.272 945.377 778.272 944.64C778.272 943.921 778.431 943.296 778.748 942.764C779.075 942.223 779.537 941.807 780.134 941.518C780.731 941.219 781.422 941.07 782.206 941.07C782.99 941.07 783.676 941.219 784.264 941.518C784.861 941.807 785.323 942.223 785.65 942.764C785.977 943.296 786.14 943.921 786.14 944.64C786.14 945.377 785.977 946.017 785.65 946.558C785.323 947.09 784.861 947.501 784.264 947.79C783.676 948.07 782.99 948.21 782.206 948.21ZM782.206 946.824C782.85 946.824 783.363 946.623 783.746 946.222C784.129 945.811 784.32 945.284 784.32 944.64C784.32 943.959 784.129 943.427 783.746 943.044C783.373 942.652 782.859 942.456 782.206 942.456C781.553 942.456 781.035 942.652 780.652 943.044C780.279 943.427 780.092 943.959 780.092 944.64C780.092 945.284 780.283 945.811 780.666 946.222C781.049 946.623 781.562 946.824 782.206 946.824ZM790.166 948.21C789.261 948.21 788.584 947.967 788.136 947.482C787.688 946.987 787.464 946.334 787.464 945.522V941.28H789.228V945.354C789.228 946.334 789.686 946.824 790.6 946.824C791.002 946.824 791.38 946.731 791.734 946.544C792.089 946.348 792.388 946.059 792.63 945.676V941.28H794.394V948H792.686V947.09C792.369 947.473 791.991 947.757 791.552 947.944C791.114 948.121 790.652 948.21 790.166 948.21ZM798.781 948.21C798.044 948.21 797.484 948.005 797.101 947.594C796.719 947.183 796.527 946.605 796.527 945.858V942.624H795.519V941.28H796.527V939.264H798.291V941.28H799.901V942.624H798.291V945.634C798.291 946.063 798.371 946.371 798.529 946.558C798.688 946.735 798.977 946.824 799.397 946.824C799.687 946.824 799.971 946.759 800.251 946.628V947.972C799.85 948.131 799.36 948.21 798.781 948.21Z" fill="white"/>
<rect x="611" y="737" width="326" height="45" rx="22.5" stroke="url(#paint4_linear_221_126)" stroke-width="3"/>
<path d="M831.21 765.21C830.631 765.21 830.057 765.154 829.488 765.042C828.928 764.939 828.466 764.799 828.102 764.622V763.096C828.569 763.32 829.059 763.488 829.572 763.6C830.085 763.712 830.589 763.768 831.084 763.768C831.709 763.768 832.185 763.651 832.512 763.418C832.839 763.185 833.002 762.863 833.002 762.452C833.002 762.163 832.927 761.925 832.778 761.738C832.629 761.542 832.409 761.374 832.12 761.234C831.831 761.085 831.387 760.893 830.79 760.66C829.875 760.287 829.213 759.871 828.802 759.414C828.391 758.957 828.186 758.387 828.186 757.706C828.186 757.174 828.331 756.703 828.62 756.292C828.909 755.881 829.315 755.564 829.838 755.34C830.361 755.116 830.963 755.004 831.644 755.004C832.204 755.004 832.699 755.051 833.128 755.144C833.567 755.228 833.996 755.363 834.416 755.55V757.034C833.604 756.642 832.783 756.446 831.952 756.446C831.355 756.446 830.893 756.558 830.566 756.782C830.239 756.997 830.076 757.305 830.076 757.706C830.076 757.995 830.151 758.233 830.3 758.42C830.449 758.597 830.645 758.751 830.888 758.882C831.14 759.003 831.588 759.199 832.232 759.47C832.885 759.741 833.399 760.007 833.772 760.268C834.155 760.529 834.439 760.837 834.626 761.192C834.822 761.537 834.92 761.962 834.92 762.466C834.92 763.334 834.607 764.011 833.982 764.496C833.357 764.972 832.433 765.21 831.21 765.21ZM839.336 755.214H841.058L844.964 765H843.158L842.262 762.746H838.118L837.236 765H835.416L839.336 755.214ZM841.772 761.276L840.19 757.118L838.608 761.276H841.772ZM844.194 755.214H846.084L848.968 762.62L851.866 755.214H853.742L849.836 765H848.114L844.194 755.214ZM855.138 755.214H856.916V765H855.138V755.214ZM858.597 755.214H860.277L864.855 762.032V755.214H866.633V765H864.953L860.375 758.168V765H858.597V755.214ZM873.274 765.21C872.247 765.21 871.337 765.005 870.544 764.594C869.75 764.174 869.134 763.581 868.696 762.816C868.257 762.041 868.038 761.141 868.038 760.114C868.038 759.087 868.257 758.191 868.696 757.426C869.134 756.651 869.75 756.054 870.544 755.634C871.337 755.214 872.247 755.004 873.274 755.004C873.974 755.004 874.599 755.079 875.15 755.228C875.7 755.377 876.2 755.615 876.648 755.942V757.636C876.237 757.281 875.766 757.025 875.234 756.866C874.702 756.707 874.1 756.628 873.428 756.628C872.756 756.628 872.144 756.773 871.594 757.062C871.052 757.342 870.623 757.748 870.306 758.28C869.988 758.803 869.83 759.414 869.83 760.114C869.83 760.823 869.979 761.444 870.278 761.976C870.576 762.499 870.992 762.905 871.524 763.194C872.056 763.474 872.662 763.614 873.344 763.614C874.062 763.614 874.655 763.493 875.122 763.25V761.052H873.47V759.638H876.9V764.202C876.032 764.874 874.823 765.21 873.274 765.21Z" fill="white"/>
<path d="M661.755 764.21C660.728 764.21 659.818 764.005 659.025 763.594C658.232 763.174 657.616 762.581 657.177 761.816C656.738 761.041 656.519 760.141 656.519 759.114C656.519 758.087 656.738 757.191 657.177 756.426C657.616 755.651 658.232 755.054 659.025 754.634C659.818 754.214 660.728 754.004 661.755 754.004C663.108 754.004 664.238 754.326 665.143 754.97V756.664C664.331 755.973 663.253 755.628 661.909 755.628C661.19 755.628 660.56 755.773 660.019 756.062C659.478 756.342 659.058 756.743 658.759 757.266C658.46 757.789 658.311 758.405 658.311 759.114C658.311 759.823 658.46 760.439 658.759 760.962C659.067 761.485 659.492 761.891 660.033 762.18C660.574 762.46 661.2 762.6 661.909 762.6C662.6 762.6 663.216 762.516 663.757 762.348C664.298 762.171 664.798 761.891 665.255 761.508V763.202C664.396 763.874 663.23 764.21 661.755 764.21ZM666.656 754.214H668.434V758.274H673.138V754.214H674.902V764H673.138V759.744H668.434V764H666.656V754.214ZM676.582 754.214H683.204V755.684H678.36V758.372H681.958V759.842H678.36V762.53H683.204V764H676.582V754.214ZM689.222 764.21C688.195 764.21 687.285 764.005 686.492 763.594C685.698 763.174 685.082 762.581 684.644 761.816C684.205 761.041 683.986 760.141 683.986 759.114C683.986 758.087 684.205 757.191 684.644 756.426C685.082 755.651 685.698 755.054 686.492 754.634C687.285 754.214 688.195 754.004 689.222 754.004C690.575 754.004 691.704 754.326 692.61 754.97V756.664C691.798 755.973 690.72 755.628 689.376 755.628C688.657 755.628 688.027 755.773 687.486 756.062C686.944 756.342 686.524 756.743 686.226 757.266C685.927 757.789 685.778 758.405 685.778 759.114C685.778 759.823 685.927 760.439 686.226 760.962C686.534 761.485 686.958 761.891 687.5 762.18C688.041 762.46 688.666 762.6 689.376 762.6C690.066 762.6 690.682 762.516 691.224 762.348C691.765 762.171 692.264 761.891 692.722 761.508V763.202C691.863 763.874 690.696 764.21 689.222 764.21ZM694.123 754.214H695.901V758.652L699.919 754.214H702.047L697.707 759.002L702.327 764H700.199L695.901 759.352V764H694.123V754.214ZM703.721 754.214H705.499V764H703.721V754.214ZM707.18 754.214H708.86L713.438 761.032V754.214H715.216V764H713.536L708.958 757.168V764H707.18V754.214ZM721.857 764.21C720.83 764.21 719.92 764.005 719.127 763.594C718.333 763.174 717.717 762.581 717.279 761.816C716.84 761.041 716.621 760.141 716.621 759.114C716.621 758.087 716.84 757.191 717.279 756.426C717.717 755.651 718.333 755.054 719.127 754.634C719.92 754.214 720.83 754.004 721.857 754.004C722.557 754.004 723.182 754.079 723.733 754.228C724.283 754.377 724.783 754.615 725.231 754.942V756.636C724.82 756.281 724.349 756.025 723.817 755.866C723.285 755.707 722.683 755.628 722.011 755.628C721.339 755.628 720.727 755.773 720.177 756.062C719.635 756.342 719.206 756.748 718.889 757.28C718.571 757.803 718.413 758.414 718.413 759.114C718.413 759.823 718.562 760.444 718.861 760.976C719.159 761.499 719.575 761.905 720.107 762.194C720.639 762.474 721.245 762.614 721.927 762.614C722.645 762.614 723.238 762.493 723.705 762.25V760.052H722.053V758.638H725.483V763.202C724.615 763.874 723.406 764.21 721.857 764.21Z" fill="white"/>
</g>
<defs>
<filter id="filter0_dd_221_126" x="0" y="0" width="670" height="1094" filterUnits="userSpaceOnUse" color-interpolation-filters="sRGB">
<feFlood flood-opacity="0" result="BackgroundImageFix"/>
<feColorMatrix in="SourceAlpha" type="matrix" values="0 0 0 0 0 0 0 0 0 0 0 0 0 0 0 0 0 0 127 0" result="hardAlpha"/>
<feOffset/>
<feGaussianBlur stdDeviation="70"/>
<feComposite in2="hardAlpha" operator="out"/>
<feColorMatrix type="matrix" values="0 0 0 0 0 0 0 0 0 0.82 0 0 0 0 1 0 0 0 0.5 0"/>
<feBlend mode="normal" in2="BackgroundImageFix" result="effect1_dropShadow_221_126"/>
<feColorMatrix in="SourceAlpha" type="matrix" values="0 0 0 0 0 0 0 0 0 0 0 0 0 0 0 0 0 0 127 0" result="hardAlpha"/>
<feOffset dx="10" dy="10"/>
<feGaussianBlur stdDeviation="7.5"/>
<feComposite in2="hardAlpha" operator="out"/>
<feColorMatrix type="matrix" values="0 0 0 0 0 0 0 0 0 0 0 0 0 0 0 0 0 0 0.5 0"/>
<feBlend mode="normal" in2="effect1_dropShadow_221_126" result="effect2_dropShadow_221_126"/>
<feBlend mode="normal" in="SourceGraphic" in2="effect2_dropShadow_221_126" result="shape"/>
</filter>
<filter id="filter1_dd_221_126" x="439" y="99" width="670" height="1094" filterUnits="userSpaceOnUse" color-interpolation-filters="sRGB">
<feFlood flood-opacity="0" result="BackgroundImageFix"/>
<feColorMatrix in="SourceAlpha" type="matrix" values="0 0 0 0 0 0 0 0 0 0 0 0 0 0 0 0 0 0 127 0" result="hardAlpha"/>
<feOffset/>
<feGaussianBlur stdDeviation="70"/>
<feComposite in2="hardAlpha" operator="out"/>
<feColorMatrix type="matrix" values="0 0 0 0 0.68 0 0 0 0 0 0 0 0 0 1 0 0 0 0.5 0"/>
<feBlend mode="normal" in2="BackgroundImageFix" result="effect1_dropShadow_221_126"/>
<feColorMatrix in="SourceAlpha" type="matrix" values="0 0 0 0 0 0 0 0 0 0 0 0 0 0 0 0 0 0 127 0" result="hardAlpha"/>
<feOffset dx="10" dy="10"/>
<feGaussianBlur stdDeviation="7.5"/>
<feComposite in2="hardAlpha" operator="out"/>
<feColorMatrix type="matrix" values="0 0 0 0 0 0 0 0 0 0 0 0 0 0 0 0 0 0 0.5 0"/>
<feBlend mode="normal" in2="effect1_dropShadow_221_126" result="effect2_dropShadow_221_126"/>
<feBlend mode="normal" in="SourceGraphic" in2="effect2_dropShadow_221_126" result="shape"/>
</filter>
<linearGradient id="paint0_linear_221_126" x1="507" y1="235.857" x2="329.612" y2="540.217" gradientUnits="userSpaceOnUse">
<stop offset="0.114583" stop-color="#00D1FF"/>
<stop offset="0.510417" stop-color="white"/>
<stop offset="0.90625" stop-color="#AD00FF"/>
</linearGradient>
<linearGradient id="paint1_linear_221_126" x1="502.196" y1="685" x2="256.294" y2="825.515" gradientUnits="userSpaceOnUse">
<stop offset="0.114583" stop-color="#00D1FF"/>
<stop offset="0.510417" stop-color="white"/>
<stop offset="0.90625" stop-color="#AD00FF"/>
</linearGradient>
<linearGradient id="paint2_linear_221_126" x1="502.196" y1="581" x2="256.294" y2="721.515" gradientUnits="userSpaceOnUse">
<stop offset="0.114583" stop-color="#00D1FF"/>
<stop offset="0.510417" stop-color="white"/>
<stop offset="0.90625" stop-color="#AD00FF"/>
</linearGradient>
<linearGradient id="paint3_linear_221_126" x1="328.196" y1="581" x2="82.2945" y2="721.515" gradientUnits="userSpaceOnUse">
<stop offset="0.114583" stop-color="#00D1FF"/>
<stop offset="0.510417" stop-color="white"/>
<stop offset="0.90625" stop-color="#AD00FF"/>
</linearGradient>
<linearGradient id="paint4_linear_221_126" x1="946" y1="644.857" x2="768.612" y2="949.217" gradientUnits="userSpaceOnUse">
<stop offset="0.114583" stop-color="#00D1FF"/>
<stop offset="0.510417" stop-color="white"/>
<stop offset="0.90625" stop-color="#AD00FF"/>
</linearGradient>
<clipPath id="clip0_221_126">
<rect width="25" height="42" fill="white" transform="translate(323 203)"/>
</clipPath>
<clipPath id="clip1_221_126">
<rect width="237" height="105" fill="white" transform="translate(655 446)"/>
</clipPath>
</defs>
</svg>
